<?xml version="1.0" encoding="utf-8"?>
<!-- Generator: Adobe Illustrator 16.0.0, SVG Export Plug-In . SVG Version: 6.00 Build 0)  -->
<!DOCTYPE svg PUBLIC "-//W3C//DTD SVG 1.1//EN" "http://www.w3.org/Graphics/SVG/1.1/DTD/svg11.dtd">
<svg version="1.1" id="Layer_1" xmlns="http://www.w3.org/2000/svg" xmlns:xlink="http://www.w3.org/1999/xlink" x="0px" y="0px"
	 width="927.5px" height="178px" viewBox="0 0 927.5 178" enable-background="new 0 0 927.5 178" xml:space="preserve">
<path fill="none" stroke="#000000" stroke-width="2" stroke-miterlimit="10" d="M138.933,173.133h-26.496l-13.346-43.8h-40.25
	l-13.349,43.8H19l47.732-149h24.469L138.933,173.133z M92.215,106.733l-13.148-43.4l-13.349,43.4H92.215z"/>
<path fill="none" stroke="#000000" stroke-width="2" stroke-miterlimit="10" d="M239.852,129.133c0,11.601-2.968,20.835-8.9,27.7
	c-5.936,6.869-13.349,11.635-22.246,14.3c-3.105,0.8-6.543,1.335-10.313,1.601c-3.777,0.269-6.746,0.399-8.9,0.399h-43.889v-149
	h41.46c14.694,0,26.292,3.568,34.789,10.7c8.496,7.134,12.739,17.368,12.739,30.7c0,7.068-1.615,13.034-4.853,17.899
	c-3.234,4.869-7.481,8.435-12.739,10.7c6.603,2.669,12.064,6.669,16.382,12C237.694,111.468,239.852,119.133,239.852,129.133z
	 M209.107,65.533c0-6.131-1.584-10.666-4.753-13.6c-3.168-2.932-7.516-4.666-13.044-5.201c-1.214-0.131-2.628-0.23-4.248-0.299
	c-1.614-0.066-2.897-0.101-3.842-0.101h-12.335v37.8h20.425c5.258-0.665,9.537-2.6,12.844-5.8
	C207.458,75.133,209.107,70.867,209.107,65.533z M170.885,150.933h16.382c1.345,0,3.338-0.065,5.967-0.199
	c2.628-0.132,4.548-0.4,5.763-0.801c5.257-1.6,9.132-4.23,11.629-7.899c2.493-3.666,3.742-7.966,3.742-12.9
	c0-5.2-1.249-9.6-3.742-13.2c-2.498-3.6-6.373-6.199-11.629-7.8c-1.215-0.399-3.034-0.8-5.463-1.2c-2.424-0.399-4.582-0.6-6.472-0.6
	h-16.177V150.933z"/>
<path fill="none" stroke="#000000" stroke-width="2" stroke-miterlimit="10" d="M371.916,98.733c0,10.399-1.419,20.399-4.248,30
	c-2.833,9.6-7.012,17.868-12.538,24.8c-5.531,7.068-12.339,12.469-20.43,16.2c-8.086,3.734-16.517,5.6-25.278,5.6
	c-8.768,0-17.192-1.865-25.283-5.6c-8.086-3.731-14.897-9.132-20.425-16.2c-5.531-6.932-9.71-15.2-12.54-24.8
	c-2.833-9.601-4.247-19.601-4.247-30c0-10.531,1.414-20.601,4.247-30.2c2.83-9.6,7.008-17.932,12.54-25
	c5.528-6.932,12.339-12.332,20.425-16.2c8.091-3.866,16.515-5.8,25.283-5.8c8.761,0,17.191,1.934,25.278,5.8
	c8.091,3.868,14.899,9.269,20.43,16.2c5.526,7.068,9.705,15.4,12.538,25C370.497,78.133,371.916,88.202,371.916,98.733z
	 M346.229,98.733c0-7.866-0.979-15.4-2.933-22.601c-1.954-7.2-4.687-13.331-8.191-18.4c-3.233-4.799-7.176-8.399-11.829-10.799
	c-4.653-2.4-9.274-3.601-13.854-3.601c-4.587,0-9.202,1.2-13.854,3.601c-4.652,2.399-8.596,6-11.834,10.799
	c-3.507,5.069-6.236,11.2-8.19,18.4c-1.954,7.2-2.93,14.734-2.93,22.601c0,7.734,0.976,15.168,2.93,22.3
	c1.955,7.134,4.684,13.234,8.19,18.3c3.238,4.8,7.182,8.369,11.834,10.7c4.651,2.334,9.267,3.5,13.854,3.5
	c4.579,0,9.2-1.166,13.854-3.5c4.652-2.331,8.596-5.9,11.829-10.7c3.504-5.065,6.238-11.166,8.191-18.3
	C345.25,113.901,346.229,106.468,346.229,98.733z"/>
<path fill="none" stroke="#000000" stroke-width="2" stroke-miterlimit="10" d="M435.214,152.733
	c4.453,0.269,8.326-0.566,11.629-2.5c3.304-1.932,5.897-4.5,7.786-7.7c2.024-3.866,3.539-8.031,4.553-12.5
	c1.009-4.466,1.514-9.432,1.514-14.9v-91h25.484v92.4c0,6.134-0.575,12.6-1.72,19.399c-1.145,6.801-3.607,13.069-7.38,18.801
	c-3.64,5.868-8.896,10.769-15.774,14.699c-6.875,3.935-15.571,5.9-26.091,5.9c-10.515,0-19.211-1.966-26.087-5.9
	c-6.877-3.931-12.134-8.831-15.777-14.699c-3.775-5.731-6.201-12.031-7.282-18.9c-1.078-6.865-1.614-13.3-1.614-19.3v-92.4h25.483
	v91c0,5.469,0.471,10.435,1.414,14.9c0.941,4.469,2.429,8.634,4.449,12.5c1.889,3.2,4.453,5.7,7.686,7.5
	C426.723,151.833,430.632,152.733,435.214,152.733z"/>
<path fill="none" stroke="#000000" stroke-width="2" stroke-miterlimit="10" d="M600.852,46.732H561.41v126.4h-25.478v-126.4h-39.44
	v-22.6h104.359V46.732z"/>
<path fill="none" stroke="#000000" stroke-width="2" stroke-miterlimit="10" d="M801.883,173.133h-24.069v-95.8l-31.345,95.8h-19.42
	l-31.146-95.8v95.8h-24.069v-149h29.326l35.803,109.601l35.393-109.601h29.527V173.133z"/>
<path fill="none" stroke="#000000" stroke-width="2" stroke-miterlimit="10" d="M903,173.133h-83.32v-149h81.701v22.6h-56.222v37.4
	h53.793v22.601h-53.793v43.8H903V173.133z"/>
</svg>
