<?xml version="1.0" encoding="utf-8"?>
<!-- Generator: Adobe Illustrator 16.0.0, SVG Export Plug-In . SVG Version: 6.00 Build 0)  -->
<!DOCTYPE svg PUBLIC "-//W3C//DTD SVG 1.1//EN" "http://www.w3.org/Graphics/SVG/1.1/DTD/svg11.dtd">
<svg version="1.1" id="Layer_1" xmlns="http://www.w3.org/2000/svg" xmlns:xlink="http://www.w3.org/1999/xlink" x="0px" y="0px"
	 width="700px" height="400px" viewBox="0 0 700 400" enable-background="new 0 0 700 400" xml:space="preserve">
<path fill="none" stroke="#000000" stroke-width="3" stroke-miterlimit="10" d="M23.156,388.309l32.813-150.391h41.797
	l32.422,150.391H95.031L90.637,359.5H63l-4.395,28.809H23.156z M66.613,332.352h20.215L76.77,266.727L66.613,332.352z"/>
<path fill="none" stroke="#000000" stroke-width="3" stroke-miterlimit="10" d="M162.512,388.309l-33.594-150.391h37.207
	l12.988,79.004c0.586,3.516,1.253,8.154,2.002,13.916c0.748,5.762,1.48,11.996,2.197,18.701l0.293-1.855
	c1.758-15.689,2.994-25.879,3.711-30.566l13.281-79.199h37.109l-34.18,150.391H162.512z"/>
<path fill="none" stroke="#000000" stroke-width="3" stroke-miterlimit="10" d="M251.574,388.309V237.918h35.156v150.391H251.574z"
	/>
<path fill="none" stroke="#000000" stroke-width="3" stroke-miterlimit="10" d="M388.586,388.309h-77.441V237.918H346.3v120.02
	h42.286V388.309z"/>
<path fill="none" stroke="#000000" stroke-width="3" stroke-miterlimit="10" d="M404.113,388.309V237.918h35.156v150.391H404.113z"
	/>
<path fill="none" stroke="#000000" stroke-width="3" stroke-miterlimit="10" d="M482.043,388.309V267.117h-28.125v-29.199h92.969
	v29.199h-29.59v121.191H482.043z"/>
<path fill="none" stroke="#000000" stroke-width="3" stroke-miterlimit="10" d="M582.238,388.309v-63.77l-34.57-86.621h37.793
	l14.551,47.559l14.648-47.559h38.184l-34.57,86.621v63.77H582.238z"/>
</svg>
