<?xml version="1.0" encoding="utf-8"?>
<!-- Generator: Adobe Illustrator 16.0.0, SVG Export Plug-In . SVG Version: 6.00 Build 0)  -->
<!DOCTYPE svg PUBLIC "-//W3C//DTD SVG 1.1//EN" "http://www.w3.org/Graphics/SVG/1.1/DTD/svg11.dtd">
<svg version="1.1" id="Layer_1" xmlns="http://www.w3.org/2000/svg" xmlns:xlink="http://www.w3.org/1999/xlink" x="0px" y="0px"
	 width="652px" height="170px" viewBox="0 0 652 170" enable-background="new 0 0 652 170" xml:space="preserve">
<path fill="none" stroke="#000000" stroke-width="3" stroke-miterlimit="10" d="M128.114,163.4h-16.245L98.263,119.6H50.338
	L36.935,163.4H20.689L65.975,23.2h16.854L128.114,163.4z M94.201,105.8L74.503,41.2l-19.9,64.6H94.201z"/>
<path fill="none" stroke="#000000" stroke-width="3" stroke-miterlimit="10" d="M230.868,123.6c0,10.669-2.675,19.101-8.021,25.301
	c-5.35,6.199-11.949,10.434-19.8,12.699c-2.573,0.669-5.654,1.135-9.239,1.4c-3.589,0.269-6.397,0.4-8.428,0.4h-38.99V23.2h36.959
	c12.997,0,23.284,3.135,30.867,9.4C221.796,38.869,225.588,48,225.588,60c0,7.334-2.233,13.635-6.701,18.9
	c-4.468,5.269-10.153,8.699-17.059,10.3c6.499,0.935,12.962,4.134,19.394,9.6C227.65,104.269,230.868,112.534,230.868,123.6z
	 M210.154,60c0-7.2-2.03-12.665-6.092-16.399c-4.062-3.731-9.411-5.932-16.043-6.601c-1.354-0.131-2.944-0.231-4.772-0.3
	c-1.827-0.065-3.42-0.1-4.771-0.1H161.62v46.6h16.855c1.218,0,2.772,0,4.67,0c1.895,0,3.52-0.065,4.874-0.2
	c6.632-0.8,11.981-3.2,16.043-7.2S210.154,66.534,210.154,60z M161.62,150h20.917c1.894,0,4.397-0.1,7.514-0.3
	c3.112-0.2,5.482-0.565,7.107-1.101c6.226-2,10.829-5.23,13.809-9.699c2.977-4.466,4.468-9.566,4.468-15.301
	c0-6-1.491-11.165-4.468-15.5c-2.979-4.331-7.583-7.5-13.809-9.5c-1.625-0.531-3.827-1-6.601-1.399
	c-2.776-0.4-5.451-0.601-8.021-0.601H161.62V150z"/>
<path fill="none" stroke="#000000" stroke-width="3" stroke-miterlimit="10" d="M270.059,163.4h-15.434V23.2h15.434V163.4z"/>
<path fill="none" stroke="#000000" stroke-width="3" stroke-miterlimit="10" d="M372.607,163.4h-73.715V23.2h15.433V149.6h58.282
	V163.4z"/>
<path fill="none" stroke="#000000" stroke-width="3" stroke-miterlimit="10" d="M406.521,163.4h-15.434V23.2h15.434V163.4z"/>
<path fill="none" stroke="#000000" stroke-width="3" stroke-miterlimit="10" d="M523.486,37h-40.614v126.4h-15.434V37h-40.614V23.2
	h96.662V37z"/>
<path fill="none" stroke="#000000" stroke-width="3" stroke-miterlimit="10" d="M583.597,84.6L616.494,23.2h16.854l-41.833,76.2v64
	h-15.433v-64L534.25,23.2h16.651L583.597,84.6z"/>
</svg>
