<?xml version="1.0" encoding="utf-8"?>
<!-- Generator: Adobe Illustrator 16.0.0, SVG Export Plug-In . SVG Version: 6.00 Build 0)  -->
<!DOCTYPE svg PUBLIC "-//W3C//DTD SVG 1.1//EN" "http://www.w3.org/Graphics/SVG/1.1/DTD/svg11.dtd">
<svg version="1.1" id="Layer_1" xmlns="http://www.w3.org/2000/svg" xmlns:xlink="http://www.w3.org/1999/xlink" x="0px" y="0px"
	 width="775.312px" height="213.974px" viewBox="0 0 775.312 213.974" enable-background="new 0 0 775.312 213.974"
	 xml:space="preserve">
<path fill="none" stroke="#000000" stroke-width="2" stroke-miterlimit="10" d="M137.379,84.741h-26.2c0-7.065-0.7-12.065-2.1-15
	c-1.4-2.932-3.1-5.331-5.1-7.2c-2.134-1.6-4.534-2.865-7.2-3.8c-2.668-0.932-5.2-1.466-7.6-1.6c-4.535,0-8.9,1-13.1,3
	c-4.2,2-8.035,5.199-11.5,9.6c-3.469,4.8-6.234,10.8-8.3,18c-2.068,7.2-3.1,14.534-3.1,22c0,4.669,0.6,10.334,1.8,17
	c1.2,6.669,3.331,13.135,6.4,19.4c2.8,5.734,6.866,10.568,12.2,14.5c5.331,3.934,12,5.899,20,5.899c6.531,0,12.331-0.8,17.4-2.399
	v-38.4h-30.6v-22.8h55.8v73.399c-12.935,8.27-28.535,12.4-46.8,12.4c-10.8,0-20.2-2.432-28.2-7.3c-8-4.866-14.535-11.101-19.6-18.7
	c-5.069-7.466-8.669-15.8-10.8-25c-2.134-9.2-3.2-18.531-3.2-28c0-9.6,1.131-18.831,3.4-27.7c2.266-8.865,6-16.631,11.2-23.3
	c5.065-6.8,11.5-12.466,19.3-17c7.8-4.531,17.031-6.8,27.7-6.8c6.531,0,12.731,1.169,18.6,3.5c5.866,2.334,10.932,5.435,15.2,9.3
	c4.4,3.869,7.9,8.534,10.5,14C136.08,67.21,137.379,74.876,137.379,84.741z"/>
<path fill="none" stroke="#000000" stroke-width="2" stroke-miterlimit="10" d="M260.979,186.541h-26.2l-13.2-43.8h-39.8l-13.2,43.8
	h-26.2l47.2-149h24.2L260.979,186.541z M214.779,120.142l-13-43.4l-13.2,43.4H214.779z"/>
<path fill="none" stroke="#000000" stroke-width="2" stroke-miterlimit="10" d="M350.178,186.541h-82.6v-149h25.2v126.4h57.4
	V186.541z"/>
<path fill="none" stroke="#000000" stroke-width="2" stroke-miterlimit="10" d="M440.177,186.541h-82.6v-149h25.2v126.4h57.4
	V186.541z"/>
<path fill="none" stroke="#000000" stroke-width="2" stroke-miterlimit="10" d="M529.977,186.541h-82.4v-149h80.801v22.601h-55.6
	v37.399h53.2v22.601h-53.2v43.8h57.2V186.541z"/>
<path fill="none" stroke="#000000" stroke-width="2" stroke-miterlimit="10" d="M635.375,82.142c0,6.934-1.533,13.269-4.6,19
	c-3.068,5.734-7.135,10.269-12.199,13.6c-2.801,1.869-4.535,2.869-5.201,3c5.867,3.068,10.666,9.8,14.4,20.2
	c4.666,12.8,8.531,29,11.6,48.6h-26.199c-3.734-24.8-8.135-40.865-13.199-48.2c-5.336-7.73-12.07-11.6-20.201-11.6h-8.6v-23.2
	h10.199c4.801,0,8.766-0.3,11.9-0.899c3.131-0.601,5.832-1.832,8.1-3.7c2.4-1.601,4.467-3.866,6.201-6.8
	c1.73-2.932,2.6-6.266,2.6-10c0-4.266-0.869-7.801-2.6-10.601c-1.734-2.8-3.734-5-6-6.6c-2.67-1.731-5.568-3-8.701-3.8
	c-3.133-0.801-6.1-1.2-8.898-1.2h-15.201v126.6h-25.199v-149h39.799c6.531,0,12.801,0.869,18.801,2.601
	c6,1.734,11.4,4.134,16.199,7.199c5.201,3.601,9.332,8.2,12.4,13.801C633.842,66.741,635.375,73.741,635.375,82.142z"/>
<path fill="none" stroke="#000000" stroke-width="2" stroke-miterlimit="10" d="M685.773,92.941l29-55.4h27.602l-43.801,81.601
	v67.399h-25.199v-67.399l-43.801-81.601h27.4L685.773,92.941z"/>
</svg>
