<?xml version="1.0" encoding="utf-8"?>
<!-- Generator: Adobe Illustrator 23.0.1, SVG Export Plug-In . SVG Version: 6.00 Build 0)  -->
<svg version="1.1" id="레이어_1" xmlns="http://www.w3.org/2000/svg" xmlns:xlink="http://www.w3.org/1999/xlink" x="0px"
	 y="0px" viewBox="0 0 1920 1080" style="enable-background:new 0 0 1920 1080;" xml:space="preserve">
<style type="text/css">
	.st0{fill:none;stroke:#000000;stroke-width:3;stroke-miterlimit:10;}
</style>
<path class="st0" d="M65.85,1027.64l16.92-20.22c9.27,8.07,21.29,13.62,32.02,13.62c12.3,0,18.32-4.84,18.32-12.58
	c0-8.21-7.41-10.84-18.8-15.52l-16.94-7.22c-13.51-5.5-26.31-16.59-26.31-35.53c0-21.6,19.3-38.85,46.43-38.85
	c15.01,0,30.71,5.92,41.93,17.08l-14.88,18.57c-8.59-6.59-16.75-10.21-27.06-10.21c-10.16,0-16.63,4.23-16.63,11.69
	c0,8,8.53,10.9,19.9,15.43l16.61,6.73c15.92,6.44,25.86,17.04,25.86,35.46c0,21.65-18.05,40.4-49.11,40.4
	C97.17,1046.48,79.14,1040.06,65.85,1027.64z"/>
<path class="st0" d="M185.47,913.73h29.47v53.26h0.73l38.86-53.26h32.39l-39.43,52.03l46.68,78.33h-32.32l-31.69-55.07l-15.22,20.13
	v34.93h-29.47V913.73z"/>
<path class="st0" d="M308.27,913.73h29.47v130.35h-29.47V913.73z"/>
<path class="st0" d="M368.47,913.73h29.47v105.64h51.45v24.71h-80.92V913.73z"/>
<path class="st0" d="M472.07,913.73h29.47v105.64h51.45v24.71h-80.92V913.73z"/>
</svg>
