<?xml version="1.0" encoding="utf-8"?>
<!-- Generator: Adobe Illustrator 22.0.0, SVG Export Plug-In . SVG Version: 6.00 Build 0)  -->
<svg version="1.1" id="레이어_1" xmlns="http://www.w3.org/2000/svg" xmlns:xlink="http://www.w3.org/1999/xlink" x="0px"
	 y="0px" viewBox="0 0 68.5 63.5" style="enable-background:new 0 0 68.5 63.5;" xml:space="preserve">
<style type="text/css">
	.st0{fill:#FFFFFF;}
	.st1{fill:#753D17;}
</style>
<path class="st0" d="M32.3,0c-0.3,0-0.5,0-0.8,0c-0.9,0-1.8,0.1-2.7,0.3c-0.6,0.1-1.1,0.2-1.7,0.4c-0.3,0.1-0.6,0.1-0.9,0.2
	C25.6,1,25,1,24.4,1.1c-0.2,0-0.4,0-0.7,0.1c-0.4,0-0.8,0.1-1.2,0.2c-0.1,0-0.1,0-0.2,0c-0.1,0-0.3,0-0.4,0.1l-0.3,0.1
	c-0.4,0.1-0.8,0.2-1.1,0.3c-0.4,0.1-0.9,0.3-1.3,0.5c-0.9,0.4-1.7,0.9-2.5,1.3c-1,0.5-1.9,1-2.7,1.5c-0.4,0.2-0.8,0.5-1.1,0.7
	c-0.4,0.3-0.8,0.6-1.1,0.9C11.2,7.3,10.3,8,9.6,8.9C9,9.6,8.4,10.3,7.8,11.2c-0.5,0.7-1.1,1.5-1.5,2.2c-0.5,0.8-1.1,1.7-1.6,2.7
	c-1,1.9-1.8,3.7-2.4,5.5c-0.3,1-0.6,1.9-0.9,2.7l-0.1,0.4C1.1,25.2,1,25.6,0.8,26c-0.1,0.5-0.3,1.1-0.4,1.6
	c-0.1,0.4-0.2,0.9-0.2,1.4c-0.1,0.4-0.2,0.9-0.2,1.4l0,0.2c0,0.5,0,0.9,0,1.4c0,0.5,0,1.1,0.1,1.6c0.1,1,0.2,2,0.3,2.9
	c0.2,1.1,0.4,2.1,0.6,3c0.1,0.4,0.2,0.9,0.4,1.3c0.1,0.4,0.3,0.9,0.5,1.3c0.3,0.7,0.6,1.4,1,2.1c0,0.1,0.1,0.1,0.1,0.2
	c0,0.1,0.1,0.1,0.1,0.1c0.1,0.2,0.2,0.3,0.3,0.5c0,0.1,0.1,0.1,0.1,0.2c0.5,0.9,1,1.7,1.5,2.4c0.3,0.4,0.6,0.8,1,1.3
	c0.3,0.4,0.7,0.8,1,1.1c0.3,0.3,0.6,0.6,0.8,0.9L8,51.1c0.3,0.3,0.6,0.6,0.9,0.9c0.7,0.6,1.5,1.3,2.3,2c1.6,1.3,3.3,2.5,4.9,3.4
	c0.4,0.3,0.9,0.5,1.3,0.8c0.5,0.3,0.9,0.5,1.4,0.7c0.8,0.4,1.6,0.7,2.6,1.1c0.9,0.3,2,0.7,3.1,1c1.8,0.5,3.7,1.1,5.6,1.4
	c1.8,0.4,3.8,0.7,5.8,0.8c0.8,0.1,1.7,0.1,2.6,0.1c0.2,0,0.3,0,0.5,0c0.9,0,1.9-0.1,3-0.2c1.1-0.1,2.1-0.3,2.9-0.5
	c0.5-0.1,0.9-0.2,1.4-0.3l0.1,0c0.5-0.1,0.9-0.2,1.4-0.4c1-0.3,1.9-0.7,2.9-1.1c0.9-0.4,1.8-0.9,2.6-1.3c1.7-0.9,3.3-2.1,4.9-3.7
	c1.5-1.5,2.7-3,3.8-4.5c0.5-0.8,1.1-1.6,1.7-2.7c0.2-0.4,0.5-0.8,0.7-1.3c0.2-0.4,0.5-0.9,0.6-1.3c0.8-1.8,1.5-3.6,2.1-5.5
	c0.4-1.2,0.6-2.2,0.8-3.1c0.1-0.4,0.2-0.9,0.3-1.3l0.1-0.3c0.1-0.4,0.1-0.7,0.2-1.1c0.1-0.9,0.2-1.5,0.2-2.1c0-0.7,0.1-1.5,0-2.4
	c0-0.7,0-1.4-0.1-2c-0.1-0.7-0.2-1.5-0.4-2.2l0,0.1l0-0.2l0-0.1c0-0.1,0-0.1-0.1-0.2c0-0.1,0-0.2-0.1-0.2c0-0.1-0.1-0.2-0.1-0.3
	l-0.1-0.2c0-0.2-0.1-0.4-0.2-0.5c-0.3-0.9-0.6-1.9-1-2.7l-0.1-0.3c-0.3-0.8-0.6-1.6-1-2.3c-0.4-0.8-0.9-1.8-1.6-2.7
	c-0.5-0.7-1-1.4-1.7-2.3c-0.6-0.8-1.1-1.5-1.7-2.3c-0.6-0.8-1.3-1.6-2-2.4c-0.7-0.8-1.4-1.4-2.1-2c-0.9-0.7-1.8-1.3-2.6-1.7
	c-1.8-1.1-3.6-1.9-5.3-2.6c-0.9-0.4-1.7-0.7-2.6-1c-1-0.3-2-0.6-2.9-0.8C42,1,41.1,0.9,40.2,0.7l-0.3-0.1c-0.8-0.1-1.7-0.3-2.5-0.4
	c-0.8-0.1-1.6-0.1-2.4-0.2l-0.4,0C33.7,0,33,0,32.3,0"/>
<path class="st1" d="M25.6,20.1c-0.3,0.2-0.5,0.5-0.7,0.8c-0.1,0.2-0.1,0.4-0.2,0.6c0,0.2-0.1,0.4-0.1,0.6c0,0.5,0,0.9,0,1.4
	c0,0.2,0,0.4,0,0.5c0,0.1,0,0.2,0,0.3c-0.1,0.6-0.1,1.2-0.1,1.9c0,0,0-0.1,0-0.1c0,0,0,0.1,0,0.1c0,0,0,0.1,0,0.1c0,0,0-0.1,0-0.1
	c0,0.1,0,0.2,0,0.3c0-0.1,0-0.2,0-0.2c0,1,0,1.9,0,2.9c0,1,0.1,2,0.1,2.9c0,0.9,0.1,1.9,0.1,2.8c0,0.9,0.1,1.8,0.2,2.7
	c0.1,0.5,0.1,0.9,0.2,1.3c0.1,0.3,0.1,0.6,0.3,0.8c0.3,0.6,0.9,1,1.6,1.1c0.6,0,1.3-0.2,1.9-0.4c0.4-0.1,0.8-0.3,1.3-0.5
	c1.8-0.7,3.6-1.3,5.4-2c0.9-0.3,1.7-0.7,2.6-1.1c0.8-0.4,1.6-0.8,2.4-1.3c0.8-0.4,1.7-0.8,2.5-1.3c0.9-0.5,1.7-0.9,2.5-1.4
	c0.4-0.2,0.7-0.5,1.1-0.8c0.3-0.3,0.6-0.6,0.7-1c0.1-0.6-0.2-1.1-0.6-1.5c-0.6-0.6-1.3-1.1-2-1.6c-0.7-0.6-1.5-1.1-2.2-1.6
	c-0.8-0.5-1.6-1-2.4-1.5c-1.6-0.9-3.2-1.7-4.9-2.5c-0.8-0.4-1.6-0.7-2.4-1.1c-0.4-0.2-0.8-0.4-1.2-0.5c-0.4-0.2-0.8-0.3-1.3-0.4
	c-0.8-0.2-1.5-0.4-2.3-0.6c-0.4-0.1-0.8-0.1-1.2-0.2c-0.1,0-0.2,0-0.2,0C26.2,19.8,25.9,19.9,25.6,20.1 M26.6,21.6
	c0.2,0,0.4,0.1,0.7,0.1c-0.3,0.2-0.5,0.6-0.6,0.9c0-0.3,0-0.5-0.2-0.7c0-0.1,0-0.1,0-0.2C26.5,21.7,26.5,21.7,26.6,21.6
	C26.6,21.7,26.6,21.6,26.6,21.6C26.6,21.6,26.6,21.6,26.6,21.6 M30.2,22.4c0,0,0.1,0,0.1,0c0.5,0.1,0.9,0.3,1.3,0.5
	c0.4,0.2,0.8,0.3,1.1,0.5c0.4,0.2,0.8,0.4,1.2,0.5c0.2,0.1,0.3,0.2,0.5,0.2c-0.2,0-0.4,0-0.6,0.1c-0.2-0.1-0.4-0.2-0.7-0.2
	c-0.1,0-0.3,0-0.4,0c-0.1,0-0.2-0.1-0.2-0.1c-0.2-0.1-0.4-0.1-0.6-0.2c-0.2-0.5-0.6-0.9-1.1-1.1C30.6,22.6,30.4,22.6,30.2,22.4
	C30.2,22.5,30.2,22.5,30.2,22.4 M26.6,23.3c0,0.1,0,0.2,0,0.2c0,0-0.1,0.1-0.1,0.1C26.5,23.6,26.6,23.5,26.6,23.3 M35.9,25
	c1,0.5,1.9,1,2.8,1.5c0,0,0.1,0,0.1,0.1c0,0-0.1,0-0.1,0c-0.3-0.1-0.6-0.3-0.8-0.4c-0.3-0.2-0.6-0.4-0.9-0.5
	c-0.2-0.1-0.4-0.1-0.7-0.1C36.2,25.3,36.1,25.1,35.9,25 M27.5,27c0.1-0.2,0.2-0.5,0.3-0.7c0-0.1,0.1-0.2,0.1-0.3c0,0,0,0.1,0.1,0.1
	c0,0.2,0.1,0.3,0.1,0.5c0,0.1,0.1,0.3,0.1,0.4c-0.4,0.6-0.6,1.3-0.8,1.9c0,0.1-0.1,0.2-0.1,0.3c0-0.2,0-0.4,0-0.5
	c0-0.5,0.1-1,0.1-1.4C27.4,27.2,27.4,27.1,27.5,27 M27.2,28.6L27.2,28.6L27.2,28.6z M27.2,28.7c0,0.1,0,0.1,0,0.2
	C27.2,28.8,27.2,28.7,27.2,28.7 M42.8,29.8c0.1-0.3-0.1-0.7-0.2-1c0.2,0.1,0.4,0.3,0.5,0.4c0.4,0.3,0.8,0.6,1.3,1
	c0.4,0.3,0.7,0.5,1,0.8c-0.3,0.2-0.5,0.4-0.8,0.6c-0.3,0.2-0.7,0.4-1,0.6c0-0.1,0.1-0.2,0.1-0.2c0-0.2,0-0.4,0-0.5
	c0-0.1,0-0.3,0-0.4c0-0.3-0.1-0.7-0.4-0.9C43.1,30,43,29.9,42.8,29.8C42.8,29.8,42.8,29.8,42.8,29.8L42.8,29.8z M41.4,29.4
	C41.4,29.4,41.4,29.4,41.4,29.4L41.4,29.4C41.4,29.4,41.4,29.4,41.4,29.4 M35.9,30.6c0,0,0,0.1,0,0.1c0,0.3-0.1,0.5-0.1,0.8
	c-0.1,0.4-0.3,0.7-0.5,1c-0.1,0.1-0.2,0.2-0.3,0.4c0-0.1,0-0.2,0-0.2c0-0.2,0-0.4,0.1-0.6c0.1-0.4,0.3-0.7,0.5-1
	C35.7,30.9,35.8,30.7,35.9,30.6 M29.5,31.1C29.5,31.1,29.6,31.1,29.5,31.1c-0.1,0.3-0.3,0.5-0.4,0.7c0-0.1,0-0.1,0-0.2
	C29.3,31.5,29.4,31.3,29.5,31.1 M32.5,33.2c0.1-0.4,0.2-0.9,0.2-1.3c0,0.1,0,0.1,0.1,0.2c0,0.1,0,0.3,0,0.4c0,0.3-0.1,0.5-0.1,0.8
	c-0.1,0.2-0.1,0.4-0.2,0.6c0,0-0.1-0.1-0.1-0.1c0,0,0,0,0,0C32.4,33.5,32.5,33.3,32.5,33.2 M30.5,33.5
	C30.5,33.5,30.5,33.5,30.5,33.5c0,0.1,0,0.1,0,0.1C30.5,33.6,30.5,33.5,30.5,33.5 M36.3,35.5c0.7-0.1,1.2-0.4,1.8-0.7
	c0.1,0,0.1-0.1,0.2-0.1c0.1,0,0.2,0,0.3,0c0,0,0,0-0.1,0c-0.9,0.5-1.7,0.9-2.6,1.3c-0.6,0.3-1.3,0.5-1.9,0.8c0,0,0.1,0,0.1-0.1
	c0.5-0.3,1-0.5,1.5-0.9c0.2-0.1,0.3-0.2,0.5-0.4C36.2,35.5,36.2,35.5,36.3,35.5 M24.5,26.2C24.5,26.2,24.5,26.2,24.5,26.2L24.5,26.2
	C24.5,26.2,24.5,26.2,24.5,26.2"/>
<path class="st1" d="M31.8,23.4c-0.1,0.1-0.3,0.3-0.3,0.4c-0.1,0.2-0.1,0.4-0.1,0.6c0,0.3,0.1,0.5,0.2,0.8c0,0.1,0,0.1,0.1,0.2
	c0,0,0,0.1,0,0.1c0,0.2,0,0.4,0,0.6c0,0.2,0,0.4,0.1,0.6c0,0.2,0.1,0.4,0.1,0.7c0.3,1.1,0.5,2.2,0.8,3.2c0.1,0.2,0.3,0.4,0.5,0.5
	c0.2,0.1,0.5,0.1,0.7,0c0.2-0.1,0.4-0.3,0.5-0.5c0.1-0.2,0.1-0.5,0-0.7c-0.2-0.6-0.3-1.3-0.5-1.9c-0.1-0.5-0.3-1-0.3-1.6
	c0,0,0.1,0,0.1-0.1c0.1-0.1,0.2-0.2,0.3-0.3c0.1-0.1,0.2-0.3,0.2-0.5c0.1,0,0.3,0,0.4,0c0.2-0.1,0.4-0.3,0.5-0.5
	c0.1-0.2,0.1-0.5,0-0.7c-0.1-0.2-0.3-0.4-0.5-0.5c-0.2-0.1-0.4-0.1-0.6-0.2c-0.1-0.2-0.4-0.3-0.6-0.3c-0.1,0-0.2,0-0.3,0
	c0,0,0,0-0.1,0c-0.2-0.1-0.4-0.1-0.6-0.1C32.2,23.2,32,23.2,31.8,23.4"/>
<path class="st1" d="M43.3,29c-0.1,0-0.2,0-0.3,0.1c-0.1,0-0.2,0.1-0.3,0.1c-0.1,0-0.1,0.1-0.2,0.2c-0.2-0.1-0.3-0.2-0.5-0.3
	c-0.4-0.2-0.9,0-1.1,0.4c-0.1-0.1-0.2-0.3-0.4-0.3c-0.4-0.2-0.8-0.1-1.1,0.1c-0.4,0.3-0.7,0.7-1.1,0.9c0,0,0,0,0,0
	c-0.2,0-0.4,0-0.6,0.1c-0.2,0-0.5,0-0.7,0.1c-0.5,0.1-1.1,0.2-1.6,0.2c-0.4,0-0.7-0.1-1.1-0.1c-0.5-0.1-1,0.3-1,0.8
	c-0.1,0.5,0.3,1,0.8,1c0.7,0.1,1.5,0.2,2.2,0.1c0.4-0.1,0.8-0.1,1.2-0.2c0.5-0.1,1.1,0,1.6-0.3c0.2-0.1,0.3-0.2,0.5-0.3
	c0.2,0.2,0.4,0.4,0.6,0.5c0.2,0.1,0.5,0.1,0.7,0.1c0.4,0,0.9,0,1.3,0c0,0,0.1,0.1,0.1,0.1c0.1,0.3,0.3,0.6,0.6,0.7
	c0.5,0.2,1,0,1.3-0.3c0.2-0.2,0.4-0.5,0.5-0.8c0.2-0.5,0.2-0.9,0.1-1.4c-0.1-0.2-0.1-0.3-0.2-0.5c-0.1-0.1-0.1-0.2-0.2-0.3
	c-0.1-0.1-0.2-0.2-0.3-0.3c-0.1-0.1-0.4-0.2-0.6-0.2C43.4,29,43.3,29,43.3,29 M42.3,29.7C42.3,29.7,42.3,29.8,42.3,29.7
	C42.3,29.8,42.3,29.8,42.3,29.7C42.3,29.8,42.3,29.8,42.3,29.7C42.3,29.8,42.3,29.8,42.3,29.7 M42.3,29.9
	C42.2,29.9,42.2,29.9,42.3,29.9C42.2,29.9,42.2,29.9,42.3,29.9L42.3,29.9z M42.3,32.1C42.3,32.1,42.4,32.1,42.3,32.1
	C42.4,32.1,42.3,32.1,42.3,32.1"/>
<path class="st1" d="M38.1,25.4c-0.3,0-0.4,0.2-0.6,0.3c-0.3,0.3-0.6,0.6-0.9,0.9c-0.3,0.4-0.3,1,0.1,1.3c0.4,0.3,1,0.3,1.3-0.1
	c0.3-0.3,0.6-0.6,0.9-0.9c0.2-0.2,0.2-0.5,0.2-0.7c0-0.2-0.1-0.5-0.3-0.6c-0.2-0.1-0.4-0.2-0.6-0.2C38.1,25.4,38.1,25.4,38.1,25.4"
	/>
</svg>
