<?xml version="1.0" encoding="utf-8"?>
<!-- Generator: Adobe Illustrator 22.0.0, SVG Export Plug-In . SVG Version: 6.00 Build 0)  -->
<svg version="1.1" id="레이어_1" xmlns="http://www.w3.org/2000/svg" xmlns:xlink="http://www.w3.org/1999/xlink" x="0px"
	 y="0px" viewBox="0 0 18 55" style="enable-background:new 0 0 18 55;" xml:space="preserve">
<path d="M3.1,2.8C2.9,3,2.7,3.3,2.5,3.5C2.3,4,2.1,4.6,2.1,5.1c0,0.3,0.1,0.6,0.2,1C2.4,6.4,2.5,6.7,2.7,7c0,0.1,0.1,0.1,0.1,0.2
	C3,7.2,3.2,7.3,3.4,7.4c0.6,0.2,1.3,0.4,2,0.5c0.7,0.1,1.3,0.2,2,0.3c0.9,0,1.7,0,2.6-0.1c0.7-0.1,1.5-0.2,2.2-0.3
	c0.1-0.2,0.3-0.3,0.4-0.5c0.1-0.2,0.3-0.4,0.3-0.7C13,6,13,5.4,12.7,4.9c-0.4-0.7-1-1.2-1.7-1.5c-0.1-0.3-0.2-0.6-0.4-0.9
	c0,0,0,0,0,0c0,0,0,0,0,0c0,0,0,0,0,0c-0.3-0.5-0.8-1-1.4-1.2c-0.3-0.1-0.7-0.2-1-0.2C8,1.1,7.9,1,7.7,1c0,0-0.1,0-0.1,0
	C7.3,0.9,6.9,0.9,6.5,1c-0.1,0-0.3,0.1-0.4,0.2C5.7,1.3,5.3,1.5,4.9,1.6C4.5,1.8,4.2,2,3.8,2.2C3.6,2.3,3.5,2.4,3.3,2.5
	C3.3,2.6,3.2,2.6,3.1,2.8L3.1,2.8z M5.2,5.8C5.2,5.8,5.2,5.8,5.2,5.8C5.2,5.8,5.2,5.8,5.2,5.8 M8.7,5.4c0,0,0.1,0,0.1,0
	C8.8,5.4,8.8,5.4,8.7,5.4C8.8,5.4,8.7,5.4,8.7,5.4 M11,5.6c0,0,0,0.1,0,0.1c0,0,0,0,0,0c0,0,0,0.1,0,0.1c0,0,0,0,0,0
	C11,5.8,11,5.7,11,5.6"/>
<path d="M10.6,2.5C10.6,2.5,10.6,2.5,10.6,2.5C10.6,2.5,10.6,2.5,10.6,2.5"/>
<path d="M10.6,2.6C10.6,2.6,10.6,2.6,10.6,2.6C10.6,2.6,10.6,2.6,10.6,2.6"/>
<path d="M3,3.2c-0.2,0.3-0.4,0.7-0.6,1c-0.3,0.6-0.6,1.3-0.6,2c0,0.2,0,0.3,0,0.5c0,0,0.1,0,0.1,0c0.5,0.2,1,0.5,1.5,0.7
	c0-0.1,0-0.2,0-0.2c0-0.5,0-1,0.1-1.5C3.6,5.2,3.8,4.8,4,4.4c0.2-0.2,0.3-0.5,0.5-0.7C5,3.3,5.5,2.9,6,2.5c0.3-0.1,0.5-0.3,0.8-0.3
	C7.2,2.1,7.7,2,8.1,2c0.4,0,0.8-0.1,1.2-0.1c0,0,0,0,0,0c0,0,0,0,0,0h0c0,0,0,0,0.1,0c0,0,0,0,0,0c0,0,0,0,0,0c0,0,0,0,0,0
	c0,0,0,0,0,0c0.4,0,0.9,0,1.3,0.1c0.1,0,0.2,0.1,0.3,0.1c0.1,0.1,0.2,0.2,0.3,0.2c0.1,0.1,0.2,0.1,0.3,0c0.1-0.1,0.1-0.2,0-0.3
	c-0.1-0.1-0.2-0.1-0.3-0.2c-0.1-0.1-0.2-0.1-0.2-0.2c-0.3-0.2-0.6-0.3-1-0.4C9.9,1.2,9.6,1.2,9.4,1.2c-0.2,0-0.4,0-0.6-0.1
	C8.5,1.1,8.2,1,8,1C7.7,1,7.5,1,7.2,1C6.6,1,6,1.2,5.4,1.4C4.8,1.6,4.3,2,3.8,2.4C3.6,2.6,3.5,2.7,3.4,2.8C3.2,2.9,3.1,3,3,3.2
	 M4.4,3.8C4.4,3.8,4.4,3.8,4.4,3.8C4.4,3.8,4.4,3.8,4.4,3.8"/>
<path d="M2.1,8.8C2.2,9,2.3,9.1,2.4,9.3c0.1,0.1,0.2,0.3,0.3,0.4C2.8,9.8,3,10,3.2,10.1c0.3,0.2,0.5,0.4,0.8,0.6
	c0.6,0.4,1.3,0.7,2,1c0.3,0.1,0.7,0.2,1,0.3c0.4,0.1,0.9,0.1,1.3,0c0.3-0.1,0.6-0.2,0.9-0.3c0.5-0.1,0.9-0.4,1.3-0.6
	c0.4-0.2,0.7-0.4,1-0.6c0.1-0.1,0.2-0.1,0.3-0.3c0-0.1,0-0.2,0-0.4c-0.1-0.2-0.4-0.4-0.6-0.3c-0.3,0.1-0.7,0.3-1,0.4
	c-0.3,0.1-0.7,0.3-1,0.4c-0.2,0-0.3,0.1-0.5,0.1c-0.3,0.1-0.5,0.1-0.8,0.1c-0.2,0-0.3,0-0.5,0c-0.4-0.1-0.7-0.3-1.1-0.5
	C6,10.1,5.7,10,5.4,9.8C5.3,9.7,5.2,9.7,5,9.6c-0.2,0-0.4-0.1-0.6-0.1C3.6,9.3,2.8,9,2.1,8.8C2.1,8.8,2.1,8.8,2.1,8.8"/>
<polyline points="9.3,1.9 9.3,1.9 9.3,1.9 "/>
<path d="M9.3,1.9L9.3,1.9L9.3,1.9C9.3,1.9,9.3,1.9,9.3,1.9C9.3,1.9,9.3,1.9,9.3,1.9L9.3,1.9z"/>
<path d="M9.3,1.9L9.3,1.9C9.3,1.9,9.3,1.9,9.3,1.9C9.3,1.9,9.3,1.9,9.3,1.9"/>
<path d="M9.4,1.9C9.3,1.9,9.3,1.9,9.4,1.9C9.3,1.9,9.3,1.9,9.4,1.9C9.3,1.9,9.3,1.9,9.4,1.9"/>
<polyline points="9.4,1.9 9.4,1.9 9.4,1.9 "/>
<polyline points="9.4,1.9 9.4,1.9 9.4,1.9 "/>
<path d="M4.3,7.1C4.2,7.2,4.1,7.4,4.1,7.6c0.4,0.1,0.8,0.2,1.2,0.3c0.1-0.1,0.1-0.2,0.2-0.3c0.1-0.1,0.2-0.2,0.3-0.2
	C6,7.2,6.2,7.1,6.5,7C6.7,7,6.9,6.9,7.2,6.8c0.2,0,0.3-0.1,0.5-0.1c0.2,0,0.4-0.1,0.5-0.3C8.3,6.2,8.3,6,8.3,5.8
	c0-0.2-0.1-0.4-0.3-0.5C7.9,5.2,7.6,5.1,7.4,5.2C7.1,5.3,6.8,5.3,6.6,5.4C6.4,5.5,6.2,5.5,6.1,5.6C5.9,5.7,5.6,5.8,5.4,6
	C5.2,6.1,5.1,6.2,4.9,6.4C4.7,6.6,4.5,6.8,4.3,7.1 M5.7,7.4C5.7,7.4,5.7,7.4,5.7,7.4C5.7,7.4,5.7,7.4,5.7,7.4"/>
<path d="M3.8,9.5c0.1,0.3,0.3,0.6,0.5,0.8c0.4,0.5,0.9,0.9,1.5,1.2c0.3,0.1,0.5,0.2,0.8,0.2c0.1,0,0.3,0,0.4,0
	c0.1,0,0.3-0.1,0.4-0.1c0.3-0.1,0.5-0.2,0.7-0.4c0.2-0.2,0.5-0.4,0.7-0.6c0,0,0,0,0,0l0.4-0.4c0.1-0.1,0.1-0.2,0-0.3
	c-0.1-0.1-0.3-0.1-0.4,0c-0.1,0.1-0.2,0.2-0.4,0.3c-0.2,0.2-0.4,0.3-0.6,0.4c-0.2,0.1-0.3,0.1-0.5,0.2c0,0,0,0,0,0c0,0,0,0,0,0
	c0,0,0,0,0,0c-0.1,0-0.2,0-0.3,0.1c-0.2,0-0.3,0-0.5-0.1c-0.2,0-0.3-0.1-0.5-0.2c-0.3-0.2-0.5-0.4-0.8-0.6C5.2,9.9,5.1,9.8,4.9,9.6
	c-0.2,0-0.3-0.1-0.5-0.1C4.2,9.4,4,9.3,3.7,9.3C3.8,9.3,3.8,9.4,3.8,9.5"/>
<path d="M8.8,10.8L8.8,10.8L8.8,10.8z"/>
<path d="M6.4,10.6c0,0-0.1,0.1-0.1,0.1c0,0,0,0.1,0,0.2c0,0,0.1,0.1,0.1,0.1c0.1,0.1,0.2,0.1,0.3,0.1c0.2,0,0.5,0,0.7,0
	C7.7,11.1,7.8,11,8,11c0.1,0,0.2-0.1,0.3-0.1c0.1,0,0.2-0.1,0.3-0.1c0.1,0,0.2-0.1,0.3-0.1c0.3-0.1,0.5-0.3,0.8-0.4
	c0.1,0,0.1-0.1,0.1-0.1c0-0.1,0-0.1,0-0.2c0-0.1-0.1-0.1-0.1-0.1c-0.1,0-0.1,0-0.2,0C9.3,9.9,9.1,10,9,10.1
	c-0.1,0.1-0.2,0.1-0.3,0.2c-0.1,0-0.1,0-0.2,0.1c-0.1,0-0.1,0-0.2,0.1c-0.1,0.1-0.3,0.1-0.4,0.1c-0.1,0-0.2,0-0.2,0.1
	c-0.2,0.1-0.4,0.1-0.6,0.1c0,0-0.1,0-0.2,0l0,0c0,0-0.1,0-0.1-0.1c0,0,0,0,0,0c0,0,0,0,0,0l0,0l0,0l0,0c0,0-0.1-0.1-0.1-0.1
	C6.6,10.5,6.5,10.5,6.4,10.6L6.4,10.6z"/>
<path d="M9.3,8.1C9.2,8,9,8,8.8,8c-0.2,0-0.3,0.1-0.4,0.1C8.7,8.2,9,8.1,9.3,8.1"/>
<path d="M8.5,10.2c0.3,0,0.7,0,1-0.1c0.5-0.1,1-0.2,1.4-0.4c0,0,0.1,0,0.1,0c-0.4,0.1-0.7,0.1-1.1,0.1c-0.5,0-1,0.1-1.5,0.1
	c-0.3,0-0.5,0-0.8,0C7.9,10.1,8.2,10.2,8.5,10.2"/>
<path d="M12.2,7.7c-0.1,0-0.1,0-0.2,0C12.1,7.7,12.1,7.7,12.2,7.7"/>
<path d="M10.8,10.6c0,0.2,0.1,0.3,0.3,0.3c0.1,0,0.3,0,0.4-0.1c0.1-0.1,0.3-0.1,0.4-0.2c0.1-0.1,0.2-0.1,0.3-0.2
	c0.1,0,0.1-0.1,0.2-0.1c0.3-0.1,0.5-0.2,0.8-0.3c0.1,0,0.2-0.2,0.2-0.3c0-0.1-0.2-0.3-0.3-0.2c-0.1,0-0.2,0-0.2,0.1
	c0-0.1,0.1-0.2,0.1-0.3c-0.1,0-0.2,0-0.2,0c-0.2,0-0.4,0.1-0.6,0.1c-0.1,0.1-0.1,0.2-0.2,0.3c-0.1,0.1-0.2,0.2-0.3,0.3
	c-0.1,0.1-0.3,0.1-0.4,0.2c0,0,0,0-0.1,0c0,0,0,0,0,0l0,0c0,0,0,0,0,0C10.8,10.4,10.8,10.5,10.8,10.6"/>
<path d="M13.7,9.5C13.7,9.5,13.8,9.6,13.7,9.5c-0.1,0.2-0.2,0.3-0.3,0.5c0,0-0.1,0.1-0.1,0.1c-0.1,0.1-0.1,0.2,0,0.3
	c0.1,0.1,0.2,0.1,0.3,0.1c0.2-0.1,0.3-0.2,0.4-0.3c0.1-0.1,0.1-0.2,0-0.3c0.2-0.2,0.4-0.4,0.5-0.7c0-0.1,0.1-0.1,0.1-0.2
	c0-0.1,0-0.1-0.1-0.1C14.4,9,14.1,9,13.9,9.1c0,0-0.1,0.1-0.1,0.1c0,0,0,0,0,0C13.7,9.3,13.7,9.4,13.7,9.5"/>
<path d="M13.4,6c0,0-0.1,0.1-0.1,0.1c-0.1,0.1-0.1,0.2-0.1,0.3c0,0.1,0.1,0.2,0.2,0.3c0,0,0.1,0,0.1,0.1c0,0,0,0,0,0
	c0,0,0,0.1,0,0.1c0,0.1,0,0.1,0,0.2c0,0.1,0,0.2,0,0.3c0.4-0.1,0.8-0.2,1.2-0.4C14.9,7,15,6.9,15.2,6.9c0,0,0,0,0-0.1c0,0,0,0,0-0.1
	c0-0.2,0-0.4-0.1-0.6c-0.1-0.1-0.2-0.2-0.3-0.3c-0.1-0.1-0.3-0.1-0.4-0.1c-0.1,0-0.2,0-0.2,0c0,0-0.1,0-0.1,0c-0.1,0-0.1,0-0.2,0.1
	c0,0,0,0-0.1,0C13.6,5.9,13.5,5.9,13.4,6C13.5,6,13.5,6,13.4,6"/>
<path d="M10.8,5.5c-0.1,0.1-0.3,0.3-0.4,0.4c-0.2,0.3-0.3,0.6-0.4,0.9c-0.1,0.4-0.1,0.9,0,1.3c0.9-0.1,1.8-0.3,2.6-0.4
	c-0.1,0-0.1,0-0.2,0c0.7-0.2,1.5-0.3,2.2-0.6c0.6-0.2,1.2-0.5,1.8-0.7c0,0,0-0.1,0-0.1c0-0.1-0.1-0.3-0.2-0.4
	c-0.1-0.2-0.2-0.3-0.3-0.5c-0.1-0.1-0.2-0.2-0.3-0.3c0,0,0,0,0,0c0,0,0-0.1,0.1-0.1c0.1-0.2,0-0.4-0.2-0.5c-0.2-0.1-0.5-0.2-0.7-0.3
	c-0.3-0.1-0.6,0-0.8,0.1c-0.1,0-0.2,0.1-0.2,0.1c-0.2,0-0.3,0-0.4,0c-0.3,0-0.6,0.1-0.9,0.2C11.8,4.7,11.3,5,10.8,5.5L10.8,5.5z"/>
<path d="M11.8,9.9c0.3,0.1,0.5,0.2,0.8,0.3c0.3,0.2,0.6,0.3,0.9,0.3c0.3,0,0.6,0,0.9,0c0.4-0.1,0.7-0.2,1-0.4
	c0.2-0.2,0.5-0.4,0.6-0.6c0.1-0.1,0.1-0.2,0.2-0.3c0.1-0.1,0.1-0.2,0.1-0.3c0.1-0.2,0.1-0.4,0.1-0.6c0-0.1,0-0.1,0-0.2
	c-0.4,0.2-0.7,0.3-1.1,0.4c-0.9,0.3-1.9,0.6-2.8,0.8c-0.4,0.1-0.9,0.2-1.4,0.2C11.4,9.8,11.6,9.9,11.8,9.9"/>
<path d="M4.7,6.9C4.6,7.1,4.5,7.3,4.4,7.5c0,0.1,0,0.1,0,0.2c0.3,0.1,0.7,0.2,1,0.2c0.7,0.1,1.3,0.2,2,0.3c0.7,0,1.4,0,2,0
	c0-0.1,0-0.1-0.1-0.2c0,0,0,0,0,0c0.1,0,0.1,0,0.2,0.1c0,0,0,0,0,0c0,0,0,0,0,0c0,0,0,0.1-0.1,0.1c0.1,0,0.3,0,0.4,0
	c0.5-0.1,1-0.1,1.5-0.2c0-0.1-0.1-0.1-0.1-0.2c-0.1-0.1-0.1-0.2-0.2-0.3c0-0.1-0.1-0.1-0.1-0.1c0,0,0-0.1,0-0.1c0-0.2,0-0.5-0.1-0.7
	c0-0.2-0.1-0.4-0.2-0.6c-0.1-0.2-0.3-0.4-0.4-0.6c-0.1-0.1-0.2-0.2-0.2-0.2C10,4.8,9.8,4.7,9.7,4.7C9.3,4.4,8.8,4.4,8.3,4.4
	c-0.2,0-0.5,0.1-0.7,0.1C7.4,4.6,7.1,4.7,6.9,4.8c0,0-0.1,0-0.1,0c-0.4,0.2-0.7,0.5-1,0.8c0,0,0,0,0,0c0,0-0.1,0.1-0.1,0.1
	C5.3,6.1,5,6.5,4.7,6.9 M9.7,6.5C9.2,6.4,8.8,6.4,8.3,6.5l-0.1,0C8,6.4,7.9,6.4,7.7,6.3c-0.2-0.1-0.5,0-0.7,0
	c-0.2,0-0.5,0.1-0.7,0.2c-0.1,0-0.1,0.1-0.2,0.1c0,0,0-0.1,0.1-0.1c0.3-0.3,0.7-0.6,1.1-0.9c0.2-0.1,0.3-0.2,0.5-0.2
	c0.2-0.1,0.4-0.1,0.7-0.1c0.1,0,0.3,0,0.4,0.1c0,0.1,0,0.1,0,0.2c0,0.2,0.2,0.3,0.4,0.3c0.1,0,0.2-0.1,0.2-0.1
	C9.5,5.9,9.6,5.9,9.6,6c0.1,0.2,0.2,0.3,0.2,0.5C9.8,6.5,9.7,6.5,9.7,6.5"/>
<path d="M4.1,10.3c0.3,0.5,0.8,0.9,1.3,1.1c0.4,0.2,0.9,0.4,1.4,0.5c0.2,0,0.4,0,0.6,0c0.3,0,0.6,0,0.9,0c0.2,0,0.5-0.1,0.7-0.1
	c0.3-0.1,0.6-0.2,0.9-0.3c0.3-0.1,0.5-0.3,0.7-0.5c0.2-0.2,0.4-0.4,0.6-0.6c0.2-0.2,0.3-0.4,0.3-0.7c0,0,0-0.1,0-0.1
	C11,9.7,10.5,9.8,10,9.8c-0.5,0-1,0.1-1.5,0.1c-0.5,0-1,0-1.5,0C6.1,9.8,5.3,9.7,4.4,9.4c-0.2,0-0.3-0.1-0.5-0.1
	C3.9,9.6,4,10,4.1,10.3"/>
<path d="M1.4,2.9C1.3,3.1,1.2,3.3,1.1,3.5C0.9,3.7,0.7,4,0.6,4.3C0.4,4.6,0.2,5,0.1,5.3C0,5.4,0,5.5,0,5.6c0.1,0.1,0.3,0.2,0.4,0.3
	c0.5,0.3,0.9,0.5,1.4,0.7C2.1,6.8,2.3,6.9,2.6,7c0-0.3-0.1-0.5-0.1-0.8c0-0.2,0-0.5,0.1-0.7C2.6,5.2,2.8,4.8,3,4.5
	c0.1-0.2,0.2-0.4,0.3-0.5c0.1-0.2,0.2-0.3,0.4-0.4c0.4-0.4,0.9-0.8,1.5-1.2L5,2.5c0.3-0.2,0.6-0.4,1-0.5c0.2-0.1,0.5-0.2,0.7-0.3
	C6.6,1.7,6.5,1.8,6.5,1.9C6.4,2,6.3,2.1,6.3,2.2C6.2,2.4,6.2,2.5,6.2,2.7c0,0.2,0,0.3,0,0.5c0,0.2,0.1,0.4,0.2,0.6
	c0,0.1,0.1,0.2,0.1,0.3c0,0,0,0,0,0C6,4.2,5.5,4.4,5,4.6C4.6,4.8,4.2,5,3.8,5.3C3.6,5.5,3.4,5.7,3.3,6c-0.1,0.3-0.1,0.7,0,0.9
	c0,0,0,0.1,0,0.1C3.2,7.1,3.1,7.2,3.1,7.2c0.1,0,0.2,0.1,0.4,0.1c0.6,0.2,1.3,0.4,2,0.5C6,8,6.7,8.1,7.4,8.1c0.1,0,0.1-0.1,0.2-0.1
	c0.2-0.1,0.3-0.4,0.3-0.6c0-0.1,0-0.2-0.1-0.3C7.6,7,7.6,6.9,7.5,6.8C7.1,6.5,6.4,6.5,5.9,6.6c-0.2,0-0.4,0.1-0.5,0.1
	C5.3,6.7,5.1,6.7,5,6.6c-0.2,0-0.4,0-0.6,0c0,0-0.1,0-0.1-0.1c0,0,0-0.1-0.1-0.1c0,0,0,0,0,0c0,0,0,0,0-0.1c0,0,0,0,0,0l0-0.1
	c0,0,0.1-0.1,0.1-0.1c0.2-0.2,0.3-0.3,0.5-0.4c0.4-0.2,0.8-0.4,1.2-0.5c0.4-0.2,0.8-0.3,1.2-0.4c0,0,0,0,0,0c0,0,0,0,0,0
	c0,0,0,0,0.1,0c0,0,0,0,0,0c0,0,0.1,0,0.1,0C7.6,4.9,7.8,5,8,5.1c0.3,0.1,0.6,0.2,0.9,0.3c0.2,0,0.4,0.1,0.6,0.1c0.1,0,0.2,0,0.2,0
	c0.2,0,0.3,0,0.4,0c0.3,0,0.6,0,0.9,0c0.2,0,0.5,0,0.7-0.1c0.3-0.1,0.7-0.1,0.9-0.3c0.2-0.1,0.3-0.2,0.5-0.4
	c0.1,0.2,0.3,0.3,0.4,0.5c0.2,0.2,0.3,0.4,0.5,0.6c0.1,0.1,0.1,0.3,0.1,0.4c0.1,0.3,0.1,0.7,0.2,1c0.1,0,0.2-0.1,0.3-0.1
	c0.7-0.3,1.4-0.6,2.1-0.9l0.2-0.1c-0.1-0.3-0.2-0.7-0.3-1c-0.2-0.5-0.5-1-0.8-1.4c-0.1-0.2-0.2-0.3-0.3-0.5
	c-0.2-0.3-0.4-0.5-0.6-0.7c-0.1-0.1-0.2-0.2-0.4-0.3c-0.2-0.2-0.5-0.3-0.7-0.5c-0.3-0.2-0.7-0.3-1-0.5C12.5,1,12,0.9,11.6,0.8
	c-0.3-0.1-0.6-0.1-0.8-0.2c0,0-0.1-0.1-0.1-0.1c-0.1-0.1-0.3-0.2-0.5-0.2c-0.1,0-0.3-0.1-0.4-0.1c-0.2,0-0.3-0.1-0.5-0.1
	C9.1,0.1,9,0,8.8,0C8.4,0,8,0,7.6,0c-0.3,0-0.7,0.1-1,0.1c-0.4,0-0.7,0.1-1.1,0.2c-0.1,0-0.2,0-0.3,0.1c0,0,0,0,0,0c0,0-0.1,0-0.1,0
	c0,0,0,0,0.1,0c-0.1,0-0.1,0-0.2,0c0,0,0,0,0,0c0,0,0,0,0,0c-0.1,0-0.1,0-0.2,0.1c-0.1,0-0.1,0-0.1,0c0,0,0,0,0,0
	C4.5,0.6,4.2,0.7,4,0.8C3.7,0.9,3.5,1.1,3.2,1.2C2.8,1.4,2.5,1.7,2.1,2C1.8,2.3,1.6,2.6,1.4,2.9 M4.3,6.3C4.2,6.3,4.2,6.3,4.3,6.3
	C4.2,6.3,4.2,6.3,4.3,6.3 M4.4,6.2L4.4,6.2L4.4,6.2z M4.2,6.5C4.2,6.5,4.2,6.5,4.2,6.5C4.2,6.5,4.2,6.5,4.2,6.5 M4.3,6.6
	C4.3,6.5,4.2,6.5,4.3,6.6C4.3,6.5,4.3,6.5,4.3,6.6L4.3,6.6z M4.3,6.6L4.3,6.6L4.3,6.6C4.3,6.6,4.3,6.6,4.3,6.6 M11.3,3.8
	c-0.1,0-0.3,0-0.4,0c0,0-0.1-0.1-0.1-0.1h0c0.2,0,0.5,0,0.7,0.1c0,0,0.1,0,0.1,0L11.3,3.8z M6.8,7.6L6.8,7.6
	C6.9,7.6,6.9,7.6,6.8,7.6C6.9,7.6,6.9,7.6,6.8,7.6 M15.9,3.5C15.9,3.6,15.9,3.6,15.9,3.5C15.9,3.6,15.9,3.6,15.9,3.5 M16,3.8
	C16,3.8,16,3.8,16,3.8C16,3.8,16,3.8,16,3.8"/>
<path d="M3.2,1.2C3.1,1.2,3.1,1.3,3.2,1.2C3.1,1.3,3.1,1.2,3.2,1.2"/>
<path d="M3.2,1.2C3.2,1.2,3.3,1.2,3.2,1.2C3.2,1.2,3.2,1.2,3.2,1.2C3.2,1.2,3.2,1.2,3.2,1.2"/>
<path d="M3.3,1.1C3.3,1.2,3.3,1.2,3.3,1.1C3.3,1.2,3.3,1.2,3.3,1.1"/>
<path d="M4.7,0.6C4.7,0.6,4.7,0.6,4.7,0.6C4.7,0.6,4.7,0.6,4.7,0.6"/>
<path d="M0.2,8.2c0.1,0.2,0.1,0.4,0.2,0.6c0.1,0.3,0.3,0.6,0.5,0.9C1,9.8,1.1,10,1.3,10.2c0.2,0.3,0.5,0.5,0.7,0.7
	c0.4,0.3,0.7,0.6,1.1,0.8C3.4,11.9,3.7,12,4,12.2c0.2,0.1,0.4,0.1,0.6,0.2c0.4,0.1,0.8,0.3,1.2,0.4C6.3,13,7,13.1,7.6,13.2
	c0.7,0.1,1.5,0.1,2.2,0c0.6-0.1,1.2-0.1,1.9-0.2c0.6-0.1,1.2-0.2,1.7-0.4c0.5-0.2,1-0.5,1.5-0.9c0.2-0.2,0.4-0.4,0.6-0.6
	c0.2-0.2,0.3-0.4,0.4-0.6c0,0,0.1-0.1,0.1-0.1c0,0-0.1,0.1-0.1,0.1c0,0,0.1-0.1,0.1-0.1c0,0,0,0,0-0.1c0,0,0,0,0,0.1l0,0
	c0,0,0,0,0-0.1c0.2-0.4,0.5-0.9,0.7-1.3c0.2-0.3,0.3-0.7,0.3-1c-0.5,0.2-1,0.5-1.5,0.6c-0.6,0.2-1.1,0.4-1.7,0.5
	c-0.1,0.1-0.2,0.3-0.3,0.4c-0.2,0.1-0.4,0.3-0.5,0.4c-0.1,0-0.2,0.1-0.3,0.1c-0.1,0-0.3,0.1-0.4,0.1c0,0,0,0,0,0
	c-0.2,0.1-0.5,0.1-0.7,0.1c-0.2,0-0.5,0.1-0.7,0.1c-0.3,0-0.7,0-1,0c0.1,0,0.2,0,0.3,0c-0.6,0-1.2,0-1.8-0.1c-0.3,0-0.5-0.1-0.8-0.1
	c-0.2,0-0.5-0.1-0.7-0.1C6.3,9.9,5.9,9.8,5.5,9.8C5.2,9.7,4.9,9.6,4.6,9.6c-0.1,0-0.2-0.1-0.3-0.1c0,0-0.1,0-0.1-0.1
	C3.3,9.2,2.5,8.9,1.7,8.5C1.3,8.3,0.9,8.2,0.6,8C0.4,7.9,0.2,7.8,0,7.7C0.1,7.9,0.1,8,0.2,8.2"/>
<path d="M12.2,10.2C12.2,10.2,12.2,10.2,12.2,10.2L12.2,10.2z"/>
<path d="M16,10.3C16,10.3,16,10.3,16,10.3C16,10.3,16,10.3,16,10.3C16,10.3,16,10.3,16,10.3"/>
<path d="M15.8,10.5C15.8,10.5,15.8,10.6,15.8,10.5C15.8,10.6,15.8,10.5,15.8,10.5"/>
<path d="M3.8,14.6c-0.3,0.2-0.3,0.7-0.1,0.9c0,0,0.1,0.1,0.1,0.1c0,0.1,0,0.2,0.1,0.3l0,0.1l0,0.3l0,0.3c0,0.1,0,0.2,0.1,0.3l0,0.2
	c0,0.1,0,0.3,0.1,0.4c0,0.3,0,0.5,0.1,0.8c0.1,0.3,0.1,0.5,0.1,0.8c0,0.2,0,0.3,0,0.5c0,0.2,0,0.3,0,0.5c0,0.4,0.1,0.9,0.1,1.5v0.4
	l0,0.4l0,0.1c0,0.2,0,0.5,0,0.7l0,0.3c0,0.1,0,0.3,0,0.4l0,0.7l0,0.3c0,0.2,0,0.4,0,0.7c0,0.1,0,0.2,0,0.3c0,0.2,0,0.5,0,0.7
	c0,0.2,0,0.5,0,0.7c0,0.3,0,0.6,0.1,0.9c0,0.3,0,0.5,0.1,0.8l0,0.3c0,0.2,0,0.5,0,0.7c0,0.3,0,0.5,0.1,0.9l0.1,0.4
	c0,0.4,0.1,0.7,0.2,1.1c0.1,0.3,0.1,0.7,0.2,1c0.1,0.2,0.1,0.5,0.2,0.7l0,0.1c0,0.2,0.1,0.5,0.2,0.7c0,0.2,0.1,0.3,0.1,0.4l0.1,0.2
	l0,0.2c0,0.2,0.1,0.3,0.2,0.5c0.1,0.3,0.4,0.6,0.7,0.8c0.2,0.1,0.4,0.3,0.8,0.3c0.2,0,0.5,0,0.7,0l0.1,0c0.3,0,0.6-0.1,0.8-0.2
	c0.2-0.1,0.4-0.2,0.5-0.4l0.1-0.1c0.3-0.3,0.5-0.8,0.6-1.2c0.2-0.5,0.3-1,0.4-1.5l0-0.1c0-0.1,0.1-0.3,0.1-0.4
	c0-0.1,0.1-0.3,0.1-0.4c0-0.2,0.1-0.5,0.1-0.7l0-0.1c0.1-0.6,0.2-1.2,0.2-1.7c0-0.1,0.1-0.3,0.1-0.4c0-0.1,0-0.2,0-0.3
	c0-0.1,0-0.2,0-0.3c0-0.3,0.1-0.6,0.1-0.9c0-0.2,0.1-0.3,0.1-0.5l0.1-0.4c0.1-0.3,0.1-0.6,0.1-0.9c0-0.4,0-0.7,0.1-1.1
	c0-0.3,0-0.7,0.1-1c0-0.6,0.1-1.2,0.2-1.8l0.1-0.3c0.1-0.5,0.2-1,0.3-1.5c0-0.3,0.1-0.6,0.1-0.8c0-0.3,0-0.6,0.1-0.9l0-0.2
	c0-0.2,0.1-0.4,0.1-0.6c0-0.2,0-0.4,0-0.5l0-0.1l0-0.2c0-0.3,0.1-0.6,0.1-0.9c0-0.1,0-0.2,0-0.2c0-0.2-0.1-0.2-0.1-0.3
	c0.1-0.1,0.1-0.2,0.2-0.3c0.1-0.2,0.1-0.3,0.1-0.5c0-0.3-0.3-0.7-0.6-0.8c-0.2-0.1-0.4-0.1-0.6-0.1c-0.1,0-0.1,0-0.2,0
	c-0.1,0-0.3,0.1-0.4,0.1l-0.1,0c-0.2,0-0.4,0.1-0.6,0.1l-0.2,0c-0.1,0-0.3,0-0.4,0c-0.8,0.1-1.4,0.1-2.1,0.1c-0.7,0-1.5-0.1-2.3-0.3
	l0,0c-0.1,0-0.2-0.1-0.3-0.1c0,0,0,0-0.1-0.1C4.6,14.4,4.2,14.4,3.8,14.6L3.8,14.6z"/>
<path d="M7.4,37.4c0,0.1,0.1,0.1,0.2,0.1c0,0,0,0-0.1,0l0,0c-0.1,0-0.1,0.1-0.1,0.1c0,0.1,0,0.2,0,0.2C7.4,38,7.5,38,7.6,38
	c0,0,0,0,0,0c0,0.1,0.1,0.3,0.2,0.4c0.1,0.1,0.1,0.1,0.2,0.2c0.2,0.2,0.3,0.4,0.5,0.6c0.1,0.2,0.3,0.4,0.4,0.6c0,0,0,0,0,0
	c-0.1,0-0.1,0-0.2,0.1C8.4,39.9,8.2,40,8,40c-0.2,0-0.4,0-0.7,0.1c-0.1,0-0.3,0.1-0.4,0.1c-0.2,0-0.3,0.1-0.4,0.2
	c-0.1,0.1-0.2,0.1-0.3,0.2C6.1,40.7,6,40.9,6,41c0,0.2,0,0.4,0,0.5c0,0.1,0,0.1,0.1,0.2c0.1,0.1,0.1,0.2,0.2,0.3
	c0.2,0.2,0.5,0.4,0.8,0.6c0.2,0.1,0.4,0.2,0.7,0.4c0.4,0.2,0.8,0.5,1.2,0.7c0.2,0.1,0.4,0.3,0.6,0.5c0.1,0.1,0.2,0.3,0.3,0.4
	c0,0,0,0,0,0c0,0.1,0,0.2,0,0.3c0,0.2-0.1,0.3-0.1,0.5c-0.1,0.3-0.2,0.5-0.4,0.8c-0.5,0.7-1.1,1.3-1.6,1.9c-0.5,0.5-1,1.1-1.3,1.8
	c-0.1,0.2-0.2,0.4-0.3,0.6c-0.1,0.2-0.1,0.4-0.1,0.6c0,0.2,0,0.5,0.1,0.7c0.1,0.4,0.5,0.8,0.8,1.1c0.4,0.3,0.9,0.5,1.3,0.7
	c1,0.4,2.1,0.5,3.2,0.7c0.5,0.1,0.9,0.1,1.4,0.2c0.6,0.1,1.1,0.1,1.7,0.2c1,0.1,2.1,0.3,3.1,0.4c0.1,0,0.2-0.1,0.3-0.2
	c0-0.1-0.1-0.2-0.2-0.3c-1.4-0.2-2.9-0.4-4.3-0.6c-1.6-0.2-3.2-0.4-4.7-0.9c0,0,0,0,0,0C8.4,53,8,52.8,7.6,52.6
	c-0.2-0.1-0.3-0.2-0.4-0.4C7.1,52.1,7,52,7,51.9c-0.1-0.1-0.1-0.2-0.1-0.3c0-0.1,0-0.2,0-0.3c0-0.1,0-0.3,0.1-0.4
	c0-0.1,0.1-0.2,0.1-0.3c0,0,0-0.1,0.1-0.1c0.1-0.1,0.2-0.3,0.3-0.4c0.1-0.2,0.2-0.3,0.4-0.5c0.1-0.1,0.2-0.3,0.4-0.4
	c0.1-0.1,0.2-0.2,0.4-0.4c0.6-0.6,1.2-1.1,1.7-1.7c0.3-0.4,0.6-0.8,0.7-1.2c0.1-0.2,0.2-0.5,0.2-0.7c0-0.1,0-0.2,0-0.3
	c0-0.2,0-0.3,0-0.5c-0.1-0.4-0.3-0.8-0.6-1.2c-0.3-0.3-0.6-0.5-0.9-0.7c-0.6-0.4-1.3-0.7-1.9-1c-0.1-0.1-0.2-0.1-0.3-0.2
	c-0.1,0-0.1-0.1-0.2-0.1c0.2-0.1,0.3-0.1,0.5-0.2C8,41.1,8.2,41,8.4,41c0.1,0,0.2,0,0.4-0.1c0.2-0.1,0.4-0.1,0.6-0.3
	c0.1,0,0.1-0.1,0.2-0.2c0.1-0.1,0.1-0.2,0.2-0.3c0-0.2,0-0.3,0-0.5c-0.1-0.2-0.2-0.3-0.3-0.5c-0.2-0.3-0.5-0.6-0.7-0.8
	c-0.1-0.1-0.1-0.1-0.2-0.2c0.1,0,0.1,0,0.2-0.1c0.1-0.1,0.2-0.2,0.2-0.3c0-0.1,0-0.1,0-0.1c0-0.1-0.1-0.1-0.1-0.1c0,0-0.1,0-0.1,0
	c0-0.1,0.1-0.1,0-0.2c-0.1-0.4-0.7-0.2-1-0.1c0,0,0,0-0.1,0C7.4,37.3,7.4,37.4,7.4,37.4 M7.8,37.5c0.1,0,0.1,0,0.2,0c0,0,0,0,0,0
	C7.9,37.5,7.9,37.5,7.8,37.5C7.9,37.5,7.8,37.5,7.8,37.5 M8.2,37.4C8.2,37.4,8.2,37.4,8.2,37.4C8.2,37.4,8.2,37.4,8.2,37.4
	 M7.9,38.6C7.9,38.6,7.9,38.6,7.9,38.6C7.9,38.6,7.9,38.6,7.9,38.6 M8,38.6L8,38.6L8,38.6z M8.8,39.9C8.8,39.9,8.8,39.8,8.8,39.9
	C8.8,39.8,8.8,39.9,8.8,39.9 M8.9,39.8C8.9,39.8,8.9,39.8,8.9,39.8C8.9,39.8,8.9,39.8,8.9,39.8 M9.9,44.5
	C9.9,44.5,9.9,44.5,9.9,44.5C9.9,44.5,9.9,44.5,9.9,44.5 M10,44.6C10,44.6,10,44.6,10,44.6C10,44.6,10,44.6,10,44.6 M7.2,50.4
	C7.2,50.4,7.1,50.4,7.2,50.4C7.1,50.4,7.2,50.4,7.2,50.4 M7.2,52.2C7.2,52.2,7.2,52.2,7.2,52.2C7.2,52.2,7.2,52.2,7.2,52.2
	 M8.9,53.2C8.9,53.1,8.9,53.1,8.9,53.2C8.9,53.1,8.9,53.1,8.9,53.2"/>
</svg>
