<?xml version="1.0" encoding="utf-8"?>
<!-- Generator: Adobe Illustrator 22.0.0, SVG Export Plug-In . SVG Version: 6.00 Build 0)  -->
<svg version="1.1" id="레이어_1" xmlns="http://www.w3.org/2000/svg" xmlns:xlink="http://www.w3.org/1999/xlink" x="0px"
	 y="0px" viewBox="0 0 106.7 78.4" style="enable-background:new 0 0 106.7 78.4;" xml:space="preserve">
<style type="text/css">
	.st0{fill:#2B2B2B;}
	.st1{fill:#FDC436;}
</style>
<path class="st0" d="M36.6,34.3c-0.9,0-1.7,0-2.6,0c-1.2,0-2.3,0-3.2-0.1c-0.3,0-0.7,0-1,0l-0.8,0c-0.4,0-0.9,0-1.3-0.1l-0.3,0
	c-0.5,0-1.1,0-2,0c-0.6,0-1.2,0-1.8,0c-0.9,0-1.7,0-2.6,0l-1.2,0c-1.1,0-2.1,0-3.2,0.1c-1.2,0.1-2.4,0.1-3.7,0.2c-0.7,0-1.3,0-2,0
	l-0.2,0l-0.3,0l-0.3,0c-0.2,0-0.4,0-0.6,0c-0.4,0-0.7,0-1.1-0.1c-0.4,0-0.7,0.2-0.8,0.6c0,0.1,0,0.1,0,0.2c0,0,0,0.1-0.1,0.1
	c-0.2,0.4-0.3,0.7-0.4,1.1c0,0.3,0,0.6,0,0.9l0,0.2c0,0.1,0,0.3,0,0.4c0,0.2,0,0.3,0,0.5c0,0.1,0,0.2,0,0.4c0,0.2,0.1,0.4,0.2,0.5
	c0.1,0.2,0.4,0.4,0.6,0.4c0.2,0.1,0.4,0.1,0.5,0.2l0.1,0c0.1,0,0.2,0,0.2,0c0,0.3,0,0.6,0,0.9c0,0.3,0,0.6-0.1,0.8l-0.1,0l-0.3,0
	c-0.1,0-0.2,0.1-0.3,0.1c-0.1-0.1-0.3-0.2-0.5-0.2c0,0-0.1,0-0.1,0C7.2,41.5,7,41.8,7,42.2c0,0.3,0,0.5,0.1,0.8l0,0.2
	c0,0.2,0.1,0.4,0.1,0.6l0,0.3l0,0.3l0,0.3l0,0.2c0,0.2,0,0.5,0,0.8c0,0.2,0.1,0.4,0.3,0.6c0.2,0.1,0.4,0.2,0.6,0.2
	c0.2,0,0.3,0,0.5,0c0,0,0,0.1,0,0.1c-0.1,0.9-0.1,1.8-0.2,2.7c0,0.3,0,0.5,0,0.8c0,0.2,0,0.4,0,0.6c0,0.2,0,0.4,0,0.7
	c0,0.1,0,0.2,0,0.3c0,0.1,0,0.3,0,0.4c0,0,0,0.1,0,0.1c0,0-0.1,0-0.1,0c-0.2,0-0.3,0-0.4,0.1c-0.3,0.2-0.6,0.5-0.9,0.7
	c-0.3,0.2-0.6,0.5-0.8,0.7c-0.3,0.3-0.7,0.6-1,1l-0.5,0.5c-0.6,0.5-1.1,1-1.6,1.6L2.5,57c-0.4,0.4-0.8,0.8-1.1,1.2
	c-0.2,0.2-0.3,0.3-0.4,0.5l-0.2,0.2L0.6,59c-0.2,0.2-0.4,0.4-0.5,0.7c-0.1,0.2-0.1,0.4,0,0.6c0.1,0.2,0.3,0.4,0.5,0.5
	C0.8,61,1,61,1.1,61.1c0.2,0.1,0.4,0.1,0.6,0.2c-0.1,0.6-0.3,1.2-0.4,1.8c-0.1,0.7-0.2,1.3-0.3,2c0,0.3,0,0.7-0.1,1
	c0,0.4,0,0.7-0.1,1.1c0,0.5-0.1,1-0.2,1.4l-0.1,0.5l0,0.3c0,0.3-0.1,0.6-0.1,0.9c0,0.2,0,0.4-0.1,0.7c0,0.2,0,0.4-0.1,0.6
	c0,0.4-0.1,0.8-0.1,1.2l0,0.2c0,0.3-0.1,0.7-0.1,1c0,0.2,0.1,0.4,0.3,0.4c0.1,0.1,0.3,0.1,0.4,0.1c0,0,0.1,0,0.1,0
	c0.2,0,0.3-0.1,0.4-0.3c0.1-0.1,0.1-0.2,0.1-0.4l0-0.2c0.1,0,0.3-0.1,0.4-0.1C1.9,73.4,2,73.2,2.1,73c0-0.2,0.1-0.4,0.1-0.6l0.1-0.4
	l0-0.2c0-0.2,0.1-0.5,0.1-0.7c0.1-0.3,0.1-0.7,0.1-1c0-0.3,0.1-0.6,0.1-1l0.1-0.7C2.9,68,2.9,67.6,3,67.1l0.1-0.8
	c0.1-0.4,0.1-0.8,0.2-1.2c0.1-0.5,0.2-0.9,0.3-1.4l0-0.1c0-0.2,0.1-0.4,0.1-0.6c0-0.3,0.1-0.6,0.2-0.8C3.9,62,3.9,61.9,4,61.7
	c0.2,0,0.3,0,0.5,0.1c0.3,0,0.6,0,0.9,0l0.3,0l0.3,0c0.2,0,0.5,0,0.7,0l0.1,0c0.4,0,0.9,0.1,1.3,0.1c0.3,0,0.5,0,0.8,0.1
	c-0.1,0.2-0.1,0.4-0.2,0.7l0,0.1c-0.1,0.3-0.1,0.6-0.2,0.9c-0.1,0.3-0.1,0.6-0.1,1c0,0.4-0.1,0.8-0.2,1.1C8,66,8,66.4,7.9,66.7
	c0,0.2-0.1,0.5-0.1,0.7l0,0.3c0,0.5-0.1,1-0.2,1.5l-0.1,0.5c0,0.3-0.1,0.7-0.2,1.2c0,0.2,0,0.4,0.1,0.5c0.1,0.1,0.3,0.2,0.5,0.3
	l0.1,0c0.2,0,0.3,0,0.4-0.1c0.1,0,0.1,0,0.1,0c0.3,0,0.6-0.4,0.6-0.7c0-0.1,0-0.1,0-0.2l0-0.1c0-0.2,0.1-0.3,0.1-0.5
	c0.1-0.3,0.1-0.6,0.2-1c0.1-0.6,0.3-1.3,0.4-1.9l0.1-0.3c0.1-0.6,0.2-1.2,0.3-1.7c0-0.3,0.1-0.5,0.1-0.8c0-0.4,0.1-0.8,0.2-1.2
	l0.1-0.4c0.1-0.3,0.2-0.6,0.3-0.9c0.1,0,0.1,0,0.2,0l0.1,0c0.7,0,1.5,0.1,2.1,0.2c0.5,0.1,1,0.2,1.5,0.3l0.7,0.1
	c0.7,0.1,1.5,0.3,2.2,0.4c0.6,0.1,1.3,0.2,2.1,0.3c0.5,0,0.9,0.1,1.4,0.1l0.8,0.1c0.7,0,1.4,0.1,2.3,0.3c0.7,0.1,1.5,0.2,2.2,0.3
	c0.8,0.1,1.5,0.2,2.3,0.3c1.4,0.2,2.9,0.3,4.3,0.3l0.3,0c0.6,0,1.2,0.1,1.8,0.1c0.8,0.1,1.7,0.1,2.6,0.2l0.2,0c0.4,0,0.9,0,1.3,0
	l0.7,0c0.5,0,1,0,1.5,0l0.8,0c0.2,0,0.5,0,0.7,0c1.1,0,2.2,0.1,3.3,0.2l0.6,0l0.4,0c0.6,0,1.2,0.1,1.7,0.1c0.6,0,1.2,0.1,1.8,0.1
	c0.2,0,0.4,0,0.5,0c0.5,0,1.1,0,1.6,0l0.6,0l0.3,0l0.3,0l0.1,0l0,0c0,0,0.1,0,0.1,0c0.1,0,0.1,0,0.2,0l0,0c0,0,0.1,0,0.1,0l0,0
	c0,0,0.1,0,0.1,0l0,0c0.1,0,0.1,0,0.2,0l0.1,0c0.4,0,0.8,0,1.2,0c1,0,1.9-0.1,2.9-0.2c0.6,0,1.1-0.1,1.7-0.1l0.7,0l0.7,0l0,0.5
	c0,0.4-0.1,0.8-0.1,1.2c0,0.4-0.1,0.9-0.2,1.3c0,0.2-0.1,0.4-0.1,0.6c-0.1,0.4-0.1,0.8-0.1,1.3c0,0.2,0,0.4-0.1,0.6
	c0,0.2,0,0.4-0.1,0.6l0,0.3l0,0.1c0,0.3-0.1,0.6-0.1,0.9c0,0.2,0.1,0.4,0.3,0.5c0,0.1,0.1,0.2,0.1,0.3c0.1,0.1,0.3,0.2,0.5,0.3l0,0
	c0.4,0,0.7-0.2,0.7-0.5c0-0.1,0.1-0.2,0.1-0.3c0-0.2,0-0.4,0.1-0.6l0-0.2c0-0.3,0.1-0.6,0.1-0.9c0-0.1,0-0.1,0-0.2
	c0.1-0.6,0.2-1.3,0.2-1.9c0-0.5,0.1-1,0.1-1.5l0-0.2c0.1-0.6,0.1-1.2,0.2-1.7c0-0.1,0-0.2,0-0.3c0-0.1,0-0.3,0.1-0.4
	c0.4,0,0.8-0.1,1.3-0.1c0.7-0.1,1.4-0.1,2.1-0.1l0.6,0c-0.1,0.2-0.1,0.3-0.2,0.5c0,0.2-0.1,0.3-0.1,0.5c0,0.2,0,0.4-0.1,0.7l0,0.4
	c-0.1,0.7-0.1,1.4-0.1,2.1c0,0.5,0,0.9,0,1.4c0,0.3,0,0.6,0,0.9c0,0.5-0.1,1-0.1,1.5c0,0.2,0,0.4,0,0.6c0,0.5-0.1,0.9-0.1,1.4l0,0.6
	c0,0.3,0,0.6-0.1,0.9l0,0.1c0,0.3-0.1,0.7,0,1c0,0.1,0,0.2,0.1,0.3c0,0.2,0,0.4,0.1,0.5c0.1,0.1,0.3,0.2,0.5,0.3c0,0,0,0,0.1,0
	c0.1,0,0.3,0,0.4-0.1c0.1,0.1,0.2,0.1,0.3,0.1l0,0c0.4,0,0.7-0.2,0.8-0.6c0-0.2,0-0.4,0-0.6c0-0.1,0-0.3,0-0.4c0-0.4,0-0.7,0-1.1
	c0-0.7,0-1.4,0.1-2.1c0-0.7,0.1-1.5,0.1-2.2c0-0.8,0-1.5,0-2.2c0-0.5,0.1-1.1,0.1-1.6l0-0.4c0.1-0.6,0.1-1.3,0.1-2.1
	c0,0,0-0.1,0-0.1l0-0.2l0-0.2c0.2,0,0.5-0.1,0.7-0.1l0.2,0c0.4-0.1,0.7-0.1,1-0.2c0.3-0.1,0.6-0.2,1-0.4c0.2-0.1,0.3-0.3,0.3-0.5
	c0-0.2,0-0.4-0.1-0.6c-0.1-0.2-0.3-0.3-0.5-0.4L71.9,62c-0.3-0.2-0.6-0.5-0.9-0.7c-0.3-0.3-0.7-0.6-1-0.9L69.6,60
	c-0.5-0.4-1-0.9-1.3-1.2c-0.3-0.3-0.5-0.5-0.8-0.7c-0.2-0.2-0.4-0.3-0.5-0.5c-0.2-0.3-0.4-0.5-0.6-0.8c-0.2-0.3-0.4-0.5-0.5-0.8
	l-0.1-0.1c-0.1-0.2-0.2-0.5-0.4-0.6c-0.1-0.1-0.2-0.1-0.2-0.1c-0.1-0.1-0.1-0.1-0.2-0.1c-0.1,0-0.2-0.1-0.3-0.1c-0.1,0-0.2,0-0.3,0
	l-0.1,0c-0.1,0-0.2,0-0.3,0l-0.1,0c-0.3,0-0.6,0-0.9,0c0-0.1,0.1-0.2,0-0.3l0-0.2c0-0.3,0-0.6,0-0.9c0-0.6,0-1.2,0.1-1.8
	c0-0.7,0.1-1.4,0.1-2.1c0-0.4,0-0.8,0-1.2c0.2,0,0.3,0,0.5,0c0.1,0,0.3,0,0.4,0l0.1,0l0.2,0c0.1,0,0.1,0,0.2,0c0.1,0,0.2,0,0.3-0.1
	c0.1,0,0.2-0.1,0.3-0.2l0,0c0.1-0.1,0.1-0.1,0.1-0.2c0.1-0.1,0.1-0.2,0.2-0.4c0-0.1,0-0.2,0-0.3l0-0.1c0-0.1,0-0.2,0-0.3
	c0-0.1,0-0.2,0-0.3c0-0.2,0-0.3,0-0.5c0-0.2-0.1-0.3-0.1-0.5c-0.1-0.2-0.1-0.4-0.2-0.5c-0.1-0.1-0.1-0.3-0.1-0.4
	c-0.1-0.3-0.2-0.6-0.4-0.9c-0.2-0.2-0.4-0.4-0.7-0.4c-0.1,0-0.1,0-0.2,0l-0.1,0c-0.2,0-0.4,0-0.5,0l0-0.3c0-0.3-0.1-0.6-0.1-0.9
	l0-0.2l0.5,0l0.6,0l0.3,0l0.1,0c0.1,0,0.2,0,0.3,0c0.1,0,0.1,0,0.2-0.1c0.2-0.1,0.4-0.3,0.4-0.6c0,0,0,0,0-0.1
	c0.1-0.1,0.2-0.3,0.2-0.5l0-0.1l0-0.1l0-0.2l0-0.2c0-0.2,0-0.3,0-0.5l0-0.1c0-0.1,0-0.1,0-0.2c0-0.2,0-0.4,0.1-0.6l0-0.1
	c0-0.3,0-0.7,0-1.1c0-0.2-0.1-0.4-0.1-0.6c0-0.2-0.1-0.3-0.2-0.4c-0.1-0.1-0.2-0.2-0.3-0.3c-0.1-0.1-0.2-0.1-0.3-0.1
	c-0.1,0-0.2,0-0.3,0l-0.2,0c-0.2,0-0.3,0-0.5-0.1c-0.3,0-0.7-0.1-1-0.1l-0.4,0c-0.9-0.1-1.8-0.2-2.7-0.3c-1.4-0.1-2.9-0.2-4.2-0.3
	c-0.8,0-1.6-0.1-2.5-0.2l-0.3,0c-0.5,0-0.9-0.1-1.4-0.1c-1.5-0.1-2.9-0.2-4.2-0.2c-0.9,0-1.9-0.1-2.8-0.2l-0.5,0
	c-0.3,0-0.6-0.1-1-0.1c-0.7-0.1-1.5-0.1-2.2-0.2l-0.7-0.1c-0.5-0.1-1-0.1-1.5-0.1C37.7,34.4,37.1,34.4,36.6,34.3 M25.9,39.8
	L25.9,39.8c0.5,0,0.9,0,1.4,0c1,0,2,0.1,3,0.2c0.5,0,0.9,0.1,1.4,0.1l0.7,0c0.6,0,1.2,0.1,1.9,0.2l0.2,0c0.7,0.1,1.4,0.1,2.1,0.2
	c0.5,0,1.1,0.1,1.6,0.1l0.5,0c0.2,0,0.5,0,0.7,0.1l0.4,0c0.3,0,0.6,0,0.9,0.1c0.7,0.1,1.5,0.1,2.2,0.2c0.2,0,0.4,0,0.5,0
	c0.3,0,0.6,0,0.9,0l0.6,0l0.4,0c0.6,0,1.1,0,1.7,0.1l0.5,0l0.2,0c1.2,0.1,2.4,0.1,3.7,0.3c0.4,0,0.7,0.1,1.1,0.1
	c1,0.1,2,0.2,2.9,0.3l0.2,0c0.5,0,1.1,0,1.6,0l0.3,0c0.7,0,1.5,0,2.2,0l0.9,0c-0.1,0.5-0.2,0.9-0.2,1.3l0,0.1l0,0.1l-0.3,0l-0.1,0
	l-0.1,0c-0.5,0-1.1,0-1.6,0c-0.1,0-0.3,0-0.4,0c-0.7,0-1.4-0.1-2.1-0.1c-0.2,0-0.4,0-0.6,0l-0.2,0l-0.2,0c-0.3,0-0.7,0-1-0.1
	c-0.2,0-0.5,0-0.7,0l-0.5,0c-0.3,0-0.6,0-0.9,0c-0.7,0-1.4-0.1-2-0.1c-0.8-0.1-1.5-0.1-2.2-0.2c-1.5-0.2-2.9-0.4-4.2-0.5l-1.1-0.1
	L41.3,42c-0.5-0.1-0.9-0.1-1.4-0.2l-0.6-0.1c-1.5-0.2-3-0.3-4.2-0.4c-0.7-0.1-1.4-0.1-2.1-0.1c-0.1,0-0.1,0-0.2,0c-0.5,0-1,0-1.5,0
	l-0.5,0c-0.3,0-0.6,0-0.9,0l-0.2,0l-0.2,0c-0.3,0-0.6,0-0.8,0c-0.7,0-1.4,0-2.2,0c-0.7,0-1.5,0-2.2,0l-0.6,0c-0.5,0-1,0-1.5,0
	l-0.7,0c-0.5,0-1.1,0-1.6,0c-0.7,0-1.4,0-2.1,0.1c-1,0.1-2.1,0.1-3.3,0.1l-0.1,0l0.1,0l-0.3,0l-0.7,0l-0.1,0l-0.1,0l-0.4,0
	c-0.4,0-0.8,0-1.3,0c-0.2,0-0.5,0-0.7,0c0-0.2,0-0.5,0.1-0.7c0-0.2,0-0.4,0.1-0.6c0.2,0,0.4,0,0.5,0.1c0.3,0,0.7,0.1,1,0.1
	c0.2,0,0.4,0,0.6,0c0.5,0,1.1,0,1.6,0l0.4,0l0.2,0c0.5,0,0.9,0,1.4-0.1l0.2,0l0.2,0l-0.1,0c0.1,0,0.2,0,0.3,0c0.2,0,0.3,0,0.5,0
	l0.3,0c0.3,0,0.6,0,0.9,0c0.5,0,1.1,0,1.6,0l0.5,0l0.6,0c0.5,0,1.1,0,1.6,0c0.3,0,0.5,0,0.8,0l0.3,0c0.4,0,0.8,0,1.2,0
	C25.7,39.8,25.8,39.8,25.9,39.8L25.9,39.8L25.9,39.8z M10.3,46.4L10.3,46.4c0.5,0,1,0,1.5,0c0.5,0,0.9,0,1.4-0.1l0.7,0
	c0.7,0,1.4-0.1,2.1-0.1l0.2,0c0.7-0.1,1.3-0.1,2-0.1c0.5,0,0.9,0,1.4,0l0.6,0l0.6,0c0.4,0,0.9,0,1.3,0c0.8,0,1.6,0,2.4,0l0.3,0
	c0.5,0,0.9,0,1.4,0c0.5,0,1.1,0,1.6,0l0.5,0l0.1,0c0.4,0,0.8,0,1.2,0c0.3,0,0.6,0,0.9,0c0.2,0,0.3,0,0.5,0c1.1,0,2.3,0.1,3.3,0.2
	l0.4,0l0.5,0c0.6,0,1.1,0.1,1.7,0.1c0.4,0,0.9,0,1.3,0.1l0.6,0l0.2,0c0.3,0,0.7,0,1,0.1c0.4,0,0.8,0,1.2,0.1c0.3,0,0.6,0,0.9,0
	l0.3,0l1,0c0.4,0,0.8,0.1,1.3,0.1l0.3,0c0.2,0,0.4,0,0.6,0l0.8,0c0.4,0,0.9,0,1.3,0.1c0.5,0,0.9,0.1,1.4,0.1l0.7,0.1l0.3,0
	c0.6,0,1.3,0.1,1.9,0.2l0.9,0.1l0.4,0c0.3,0,0.5,0.1,0.8,0.1c0.5,0,0.9,0.1,1.4,0.1l0.7,0.1c0.7,0.1,1.4,0.2,2.1,0.2l0.3,0l0.3,0
	c0.4,0.1,0.9,0.1,1.3,0.1l0.1,0.3l0,0.1l0,0c0,0.5,0,0.9,0,1.4l0,0.2c0,0.3,0,0.5,0,0.8c0,0.3,0,0.6,0,0.9c0,0.5,0,1.1-0.1,1.6
	c0,0.1,0,0.3,0,0.4c0,0.1,0,0.2,0,0.4c0,0.2,0,0.3,0,0.5l0,0.3l0,0.1c-0.5,0.1-0.9,0.1-1.3,0.1c-0.4,0-0.7,0-1.1,0c-0.3,0-0.7,0-1,0
	c-0.7,0-1.4,0.1-2.1,0.2c-0.4,0-0.8,0.1-1.2,0.1c-1,0.1-2,0.1-3.2,0.1l0.1,0c-1.3,0-2.6,0-3.9-0.1l-0.4,0c-0.5,0-1.1,0-1.6-0.1
	c-0.9,0-1.8-0.1-2.7-0.1c-0.5,0-1-0.1-1.5-0.1l-0.7-0.1c-0.6,0-1.1-0.1-1.7-0.1l-0.4,0c-0.6,0-1.3-0.1-2.1-0.2
	c-0.7-0.1-1.4-0.1-2.1-0.2c-1.4-0.1-2.8-0.2-4.3-0.4l-0.4,0c-0.6-0.1-1.2-0.1-1.7-0.1c-0.3,0-0.7,0-1,0l-0.6,0l-0.6,0
	c-0.7,0-1.4-0.1-2.2-0.2l-0.4-0.1c-0.6-0.1-1.2-0.2-1.8-0.3c-0.5-0.1-0.9-0.1-1.4-0.1c-0.3,0-0.5-0.1-0.8-0.1
	c-0.6-0.1-1.3-0.2-2.1-0.3l-0.2,0c-0.6-0.1-1.2-0.2-1.7-0.3l-0.5-0.1c-0.5-0.1-0.9-0.1-1.4-0.2c-0.6-0.1-1.3-0.2-1.9-0.3
	c-0.1,0-0.3,0-0.4-0.1l-0.2,0C10,52.3,10,52.1,10,52c0-0.2,0-0.4,0-0.6l0-0.2c0-0.4,0-0.7,0.1-1.1l0-0.4c0-0.5,0.1-1.1,0.1-1.6
	l0-0.4c0-0.2,0-0.4,0-0.7l0-0.2C10.2,46.7,10.2,46.6,10.3,46.4L10.3,46.4z"/>
<path class="st1" d="M96.9,0.2c-0.2,0.1-0.5,0.1-0.7,0.2c-0.3,0.1-0.5,0.3-0.7,0.5C95.5,1,95.4,1,95.3,1.1c-0.2,0.2-0.1,0.5,0,0.7
	c0,0,0.1,0.1,0.2,0.1c0,0,0,0.1,0,0.1c0.1,0.2,0.2,0.3,0.4,0.3c0.1,0,0.3,0.1,0.4,0.1c0.1,0,0.2,0.1,0.3,0.1
	c0.2,0.1,0.4,0.3,0.5,0.5c0.1,0.2,0.2,0.4,0.4,0.6c0.1,0.2,0.3,0.5,0.4,0.7c0.1,0.2,0.2,0.4,0.4,0.6c0.1,0.2,0.3,0.5,0.4,0.7
	C98.9,6.2,99,6.6,99.1,7c0.1,0.4,0.1,0.8,0.2,1.2c0,0.4,0,0.8,0,1.3c-0.1,0.7-0.3,1.4-0.5,2.1c-0.1,0.4-0.3,0.8-0.5,1.1
	c-0.2,0.3-0.4,0.7-0.6,1c-0.1,0.2-0.3,0.4-0.5,0.5c-0.3,0.2-0.6,0.4-0.9,0.5c-0.1,0-0.2,0.1-0.3,0.1c-0.1,0.1-0.2,0.2-0.2,0.3
	c0,0.2,0,0.4,0.2,0.5c0.2,0.1,0.4,0.2,0.6,0.3c0.5,0.2,0.9,0.4,1.4,0.5c0.3,0.1,0.5,0.1,0.8,0.1c0.2,0,0.5,0,0.7,0
	c0.5,0,1-0.1,1.5-0.3c0.5-0.2,1-0.4,1.4-0.6c0.4-0.3,0.9-0.6,1.2-0.9c0.4-0.3,0.7-0.7,1-1.1c0.3-0.4,0.6-0.8,0.9-1.2
	c0.1-0.2,0.3-0.4,0.4-0.7c0.1-0.2,0.2-0.5,0.3-0.8c0.1-0.2,0.1-0.5,0.2-0.7c0-0.2,0.1-0.4,0.1-0.7c0.1-0.5,0.1-1,0.1-1.5
	c0-0.5,0-1,0-1.5c-0.1-0.5-0.2-1-0.4-1.5c-0.1-0.2-0.2-0.4-0.3-0.6c-0.1-0.2-0.2-0.5-0.3-0.7c-0.3-0.4-0.6-0.8-1-1.2
	c-0.3-0.3-0.7-0.7-1.1-1c-0.3-0.3-0.7-0.5-1.1-0.7c-0.4-0.2-0.7-0.4-1.1-0.6c-0.2-0.1-0.5-0.2-0.8-0.2c-0.2-0.1-0.5-0.1-0.7-0.1
	C99.5,0,99,0,98.4,0c-0.2,0-0.4,0-0.6,0.1C97.5,0.1,97.2,0.2,96.9,0.2 M98.5,0.9c0.3,0,0.6,0,0.9,0l-0.1,0c0.3,0,0.6,0.1,0.9,0.1
	c0.3,0,0.5,0.1,0.8,0.2c0,0,0,0,0,0c0,0,0.1,0,0.1,0c0.3,0.1,0.6,0.3,0.9,0.4c0.3,0.2,0.5,0.3,0.8,0.5c0.3,0.2,0.6,0.5,0.9,0.8
	c0.3,0.3,0.6,0.6,0.8,0.9c0.1,0.1,0.2,0.3,0.3,0.4c0.1,0.2,0.2,0.3,0.3,0.5c0.1,0.3,0.2,0.6,0.4,0.8c0.1,0.3,0.2,0.6,0.3,1
	c0,0.2,0.1,0.3,0.1,0.5c0,0.2,0,0.4,0,0.7c0,0.4,0,0.8-0.1,1.2c-0.1,0.7-0.2,1.4-0.4,2.1c-0.1,0.2-0.2,0.5-0.3,0.7
	c-0.1,0.2-0.3,0.4-0.4,0.6c-0.5,0.7-1.1,1.3-1.7,1.9c-0.5,0.4-1,0.7-1.5,0.9c-0.2,0.1-0.4,0.2-0.6,0.2c-0.2,0.1-0.4,0.1-0.6,0.2
	c-0.5,0.1-1.1,0.1-1.6,0.1c-0.2,0-0.3,0-0.5-0.1c-0.2-0.1-0.4-0.1-0.6-0.2c-0.1,0-0.2-0.1-0.2-0.1c0.2-0.1,0.4-0.3,0.6-0.4
	c0.4-0.3,0.6-0.7,0.9-1.1c0.5-0.8,0.9-1.7,1.1-2.6c0.1-0.4,0.2-0.9,0.3-1.3c0.1-0.5,0.1-1,0-1.4c0-0.4-0.1-0.9-0.2-1.3
	c-0.1-0.5-0.2-1-0.4-1.4c-0.2-0.4-0.4-0.8-0.6-1.2c-0.2-0.3-0.4-0.7-0.6-1c-0.1-0.2-0.2-0.4-0.3-0.6c-0.1-0.2-0.2-0.4-0.4-0.5
	c-0.2-0.3-0.5-0.5-0.8-0.6c-0.2-0.1-0.4-0.2-0.6-0.2c0,0,0,0,0,0c0.1-0.1,0.2-0.1,0.2-0.1c0.3-0.1,0.7-0.2,1-0.3
	C97.9,1,98.2,0.9,98.5,0.9 M97.6,1C97.6,1,97.6,1,97.6,1C97.6,1,97.6,1,97.6,1 M100.9,1.2C100.9,1.2,100.9,1.3,100.9,1.2
	C100.9,1.3,100.9,1.2,100.9,1.2 M101.1,1.3C101.1,1.3,101.1,1.3,101.1,1.3C101.1,1.3,101.1,1.3,101.1,1.3 M96.1,2.3L96.1,2.3
	L96.1,2.3z M96,2.3C96,2.3,96,2.3,96,2.3C96,2.3,96,2.3,96,2.3C96,2.3,96,2.3,96,2.3 M99.3,9.4C99.3,9.5,99.3,9.5,99.3,9.4
	C99.3,9.5,99.3,9.5,99.3,9.4 M97.6,15.4C97.6,15.4,97.6,15.4,97.6,15.4C97.6,15.4,97.6,15.4,97.6,15.4 M96.6,15.6
	C96.6,15.7,96.6,15.7,96.6,15.6C96.6,15.7,96.6,15.7,96.6,15.6C96.6,15.7,96.6,15.7,96.6,15.6 M101.4,0.5
	C101.5,0.5,101.5,0.5,101.4,0.5C101.5,0.5,101.4,0.5,101.4,0.5C101.4,0.4,101.4,0.5,101.4,0.5 M101.4,0.4
	C101.4,0.4,101.4,0.4,101.4,0.4C101.4,0.4,101.4,0.4,101.4,0.4"/>
<path class="st1" d="M102.2,5.8c-0.2,0-0.4,0.2-0.6,0.3c-0.3,0.2-0.5,0.4-0.7,0.7c-0.2,0.3-0.4,0.6-0.5,0.9
	c-0.3,0.6-0.4,1.4-0.1,2.1c0,0,0.1,0.1,0.1,0.1c-0.1,0.2-0.1,0.5-0.1,0.7c-0.1,0.1-0.2,0.2-0.2,0.3c-0.2,0.3-0.3,0.6-0.4,0.9
	c0,0.1,0,0.2-0.1,0.3c0,0,0,0-0.1,0.1c-0.2,0.2-0.4,0.5-0.6,0.8c-0.1,0.3-0.2,0.6-0.3,0.9c-0.2,0.1-0.3,0.3-0.4,0.5
	c-0.1,0.1-0.2,0.2-0.3,0.2c-0.1,0.1-0.2,0.3-0.3,0.5c-0.1,0.2-0.1,0.4-0.1,0.5c0.1,0.4,0.3,0.6,0.6,0.7c0.3,0.1,0.7,0,1-0.1
	c0.1,0,0.2-0.1,0.4-0.2c0.1,0,0.2-0.1,0.3-0.1c0.3-0.1,0.5-0.2,0.8-0.4c0,0,0,0,0.1,0c0.2,0,0.3,0,0.5,0c0.2,0,0.4-0.1,0.6-0.1
	c0.3-0.1,0.6-0.3,0.8-0.5c0.3-0.2,0.5-0.5,0.8-0.7c0,0,0.1-0.1,0.1-0.1c0.4-0.3,0.8-0.7,1-1.1c0.2-0.3,0.3-0.6,0.3-0.9
	c0.1-0.4,0.1-0.8,0-1.1c0,0,0,0,0,0c0.1-0.3,0.2-0.5,0.3-0.8c0.1-0.3,0.1-0.7,0.1-1c0-0.4-0.1-0.7-0.2-1.1c-0.1-0.2-0.2-0.5-0.3-0.7
	c-0.1-0.2-0.2-0.3-0.3-0.5c-0.2-0.3-0.5-0.6-0.8-0.8c-0.1-0.1-0.3-0.2-0.4-0.2c-0.2,0-0.3-0.1-0.5-0.1c-0.1,0-0.1,0-0.2,0
	C102.3,5.7,102.2,5.7,102.2,5.8 M103.3,7.2C103.3,7.2,103.3,7.2,103.3,7.2c0.1,0.1,0.1,0.1,0.1,0.1C103.3,7.3,103.3,7.2,103.3,7.2
	 M102.4,7.6c0.1,0.1,0.1,0.2,0.2,0.3c0.1,0.2,0.1,0.3,0.2,0.5c0,0,0,0-0.1,0.1c-0.2,0-0.5,0-0.7,0.1c-0.1,0-0.1,0.1-0.2,0.1
	c0-0.1,0-0.1,0.1-0.2C102.1,8.2,102.2,7.9,102.4,7.6C102.4,7.6,102.4,7.6,102.4,7.6 M103.8,8.5c0-0.1,0.1-0.2,0.1-0.2
	c0,0,0,0.1,0,0.1c0,0.2,0,0.4,0,0.6c0,0.1,0,0.1,0,0.2c0,0,0,0,0,0c-0.1-0.1-0.1-0.1-0.2-0.2c0-0.1,0-0.2,0-0.3
	C103.8,8.6,103.8,8.5,103.8,8.5 M102.9,10.2c0.2-0.1,0.3-0.2,0.4-0.4c0,0,0,0,0,0c0,0,0.1,0.1,0.1,0.1c-0.1,0.1-0.2,0.1-0.3,0.2
	c-0.1,0.1-0.3,0.1-0.4,0.1c0,0-0.1,0-0.1,0C102.7,10.3,102.8,10.2,102.9,10.2 M103.5,10C103.4,10,103.4,10,103.5,10
	C103.4,10,103.4,10,103.5,10 M103.1,10.2C103.1,10.2,103.1,10.2,103.1,10.2C103.1,10.2,103.1,10.2,103.1,10.2 M101.4,11
	C101.5,11,101.5,11,101.4,11c0.1,0,0.1,0.1,0.2,0.1c0,0-0.1,0-0.1,0.1c-0.1,0-0.1,0.1-0.2,0.1C101.4,11.2,101.4,11.1,101.4,11
	 M103.3,11.1c0.1,0,0.3-0.1,0.4-0.2c-0.1,0.1-0.2,0.3-0.4,0.4c0,0,0,0,0,0c0,0-0.1-0.1-0.1-0.1C103.2,11.1,103.3,11.1,103.3,11.1
	 M103.9,12.1C103.9,12.1,103.9,12.1,103.9,12.1c0,0.1,0,0.1-0.1,0.1C103.8,12.2,103.8,12.2,103.9,12.1
	C103.8,12.1,103.8,12.1,103.9,12.1 M100.4,12.6c0,0,0.1,0,0.1,0c0,0,0.1,0,0.1,0c0,0,0,0,0.1,0c0,0,0,0,0,0c-0.1,0-0.1,0-0.2,0.1
	c-0.1,0-0.1,0.1-0.2,0.1C100.4,12.8,100.4,12.7,100.4,12.6L100.4,12.6z M102.3,12.9c0.2,0,0.4-0.1,0.7-0.2c0,0.1,0,0.1,0,0.2
	c0,0.1,0,0.3-0.1,0.4c0,0.1-0.1,0.1-0.1,0.2c-0.1,0-0.1,0.1-0.2,0.1c-0.1,0-0.2,0.1-0.3,0.1c0-0.1,0-0.2,0-0.3
	c0-0.2-0.1-0.3-0.2-0.4c0,0,0.1,0,0.1,0C102.2,12.9,102.3,12.9,102.3,12.9"/>
<path class="st1" d="M97,1l-0.1,0c-0.1,0-0.2,0-0.3,0c-0.1,0-0.2,0.1-0.2,0.1c-0.1,0.1-0.2,0.3-0.1,0.5c0.1,0.2,0.2,0.3,0.4,0.3
	c0,0,0,0,0.1,0c0,0.3,0.2,0.5,0.3,0.7c0.1,0.1,0.2,0.2,0.4,0.3c0.1,0.1,0.2,0.1,0.3,0.1c0,0,0,0.1,0,0.1c0,0.2,0.1,0.4,0.2,0.6
	c0,0.1,0.1,0.2,0.2,0.2c0,0,0,0,0,0c0,0,0,0.1,0,0.1c0,0.3,0.2,0.6,0.4,0.8c0.1,0.1,0.3,0.2,0.4,0.2c0.1,0,0.2,0,0.3,0
	c0,0,0,0,0,0.1c0,0.2,0,0.3,0.1,0.5c0.1,0.2,0.1,0.3,0.2,0.4c0,0,0.1,0.1,0.1,0.1c0,0.1-0.1,0.2-0.1,0.3c-0.1,0.3,0,0.7,0.2,0.9
	c0.2,0.3,0.6,0.5,0.9,0.5c0.1,0,0.2,0,0.3,0c0,0,0.1,0.1,0.1,0.1c0,0,0.1,0.1,0.1,0.1c0.1,0,0.1,0.1,0.2,0.1c0,0.1,0,0.1,0,0.2
	c0,0.1,0,0.1,0,0.2c0,0,0,0,0,0.1c0,0.1-0.1,0.1-0.1,0.2c-0.1,0.2-0.1,0.3-0.2,0.5c-0.1,0.1-0.1,0.1-0.2,0.2
	c-0.1,0.1-0.2,0.1-0.2,0.2c-0.1,0.1-0.3,0.1-0.4,0.1l0,0c-0.1,0-0.2,0-0.3,0.1c-0.1,0.1-0.2,0.2-0.2,0.3c-0.1,0.2-0.1,0.4,0.1,0.6
	c0.1,0.1,0.2,0.1,0.3,0.1c0.1,0.2,0.1,0.3,0.2,0.5c0,0,0.1,0.1,0.1,0.1c-0.1,0.3,0,0.7,0.3,0.9c0.2,0.1,0.4,0.2,0.5,0.2
	c0.1,0,0.3-0.1,0.4-0.1c-0.1,0.1-0.1,0.2-0.2,0.4c-0.1,0.3-0.3,0.8,0,1c0,0,0.1,0,0.1,0.1c0.1,0,0.2,0.1,0.2,0.1c0.1,0,0.1,0,0.2,0
	c0.1,0,0.2-0.1,0.3-0.2c0.1-0.1,0.2-0.2,0.4-0.3c0.4-0.4,0.8-0.8,1-1.3c0.1-0.2,0.1-0.3,0.1-0.5c0-0.1,0-0.1,0-0.2
	c0-0.1,0-0.1-0.1-0.2c0,0,0,0,0,0c0-0.1,0.1-0.1,0.1-0.2c0.1,0.1,0.2,0.2,0.4,0.2c0.1,0,0.1,0,0.2,0.1c0.1,0.1,0.1,0.1,0.2,0.2
	c0.1,0.1,0.2,0,0.3,0.1c0.1,0,0.3-0.1,0.4-0.1c0.1-0.1,0.2-0.2,0.3-0.3c0.1-0.1,0.2-0.2,0.2-0.3c0.1-0.1,0.1-0.2,0.2-0.3
	c0.1-0.2,0.2-0.4,0.2-0.6c0-0.2,0.1-0.4,0.1-0.5c0-0.2-0.1-0.4-0.2-0.6c0,0-0.1,0-0.1-0.1c0,0,0-0.1,0-0.1c0-0.3,0-0.6-0.1-0.8
	c0-0.1,0.1-0.2,0.1-0.4c0-0.2,0-0.4,0-0.6c0-0.1,0-0.2-0.1-0.3c0-0.1-0.1-0.2-0.1-0.2c0,0,0,0,0-0.1c0,0,0,0,0,0
	c0-0.2,0-0.3-0.1-0.5c0-0.1-0.1-0.3-0.2-0.4c-0.1-0.1-0.2-0.2-0.3-0.4c-0.1-0.1-0.1-0.1-0.2-0.2c0,0-0.1,0-0.1-0.1
	c0-0.1,0-0.1-0.1-0.2c0-0.1,0-0.2,0-0.3c0,0,0-0.1,0-0.1c0.1-0.1,0.1-0.3,0.1-0.4c0-0.1-0.1-0.2-0.2-0.2c0,0,0-0.1,0-0.1
	c0.1-0.2,0.1-0.3,0.1-0.5c0-0.1-0.1-0.1-0.1-0.2c-0.1-0.1-0.2-0.1-0.3-0.1c-0.2,0-0.4,0.1-0.6,0.3c-0.1-0.1-0.1-0.1-0.2-0.2
	c-0.1-0.1-0.1-0.2-0.2-0.3c0-0.1-0.1-0.2-0.2-0.3c-0.1-0.1-0.2-0.2-0.3-0.2c0,0-0.1,0-0.1,0c0,0,0,0,0,0c-0.1-0.1-0.1-0.1-0.2-0.2
	c-0.1,0-0.2-0.1-0.2-0.1c0,0,0,0,0,0c-0.1-0.1-0.2-0.1-0.3-0.1c0,0-0.1-0.1-0.1-0.1c-0.1-0.1-0.1-0.1-0.2-0.2c0-0.1,0-0.2-0.1-0.3
	c-0.1-0.1-0.2-0.2-0.3-0.2c-0.1-0.1-0.2-0.1-0.3-0.1c-0.1,0-0.3-0.1-0.4-0.1c-0.2,0-0.3,0-0.5,0.1c0,0,0,0-0.1,0c0,0-0.1,0-0.1,0
	c-0.1,0-0.2,0-0.3,0c-0.1,0-0.2,0.1-0.3,0.1c-0.1,0-0.1,0-0.2,0c-0.1,0-0.1,0-0.2,0C99.2,1,99,0.9,98.9,0.9c-0.2,0-0.4,0-0.5,0
	c-0.1,0-0.1,0-0.2,0.1c0,0,0,0,0,0c-0.2-0.2-0.4-0.2-0.6-0.2l0,0C97.3,0.8,97.2,0.9,97,1 M100.2,1C100.2,1,100.2,1,100.2,1
	C100.2,1,100.2,1,100.2,1L100.2,1z M101.7,3.7L101.7,3.7C101.7,3.7,101.7,3.7,101.7,3.7C101.7,3.7,101.7,3.7,101.7,3.7 M103.4,4.5
	c0-0.1,0-0.1,0.1-0.2c0,0,0,0,0,0.1C103.5,4.4,103.5,4.5,103.4,4.5C103.5,4.5,103.5,4.5,103.4,4.5c0,0.1,0,0.1-0.1,0.2
	c-0.1,0.1-0.2,0.2-0.3,0.4c0,0,0-0.1,0-0.1C103.2,4.8,103.3,4.7,103.4,4.5 M101.8,5.8C101.8,5.8,101.8,5.8,101.8,5.8L101.8,5.8
	L101.8,5.8C101.8,5.8,101.8,5.8,101.8,5.8 M103.6,6.9C103.7,6.9,103.7,7,103.6,6.9C103.8,7,103.9,7,104,7c0.1,0,0.1,0,0.2,0
	c0,0,0.1,0,0.1,0c0,0.1-0.1,0.2-0.1,0.4c0,0.1,0,0.1,0,0.2c0.1,0.1,0.1,0.3,0.3,0.3c0.1,0,0.2,0.1,0.3,0.1c0,0,0,0,0.1,0
	c-0.1,0.1-0.1,0.1-0.2,0.2c0,0,0,0.1-0.1,0.1c0,0,0,0.1,0,0.1c0,0,0,0,0,0c-0.1-0.1-0.2-0.2-0.3-0.3c-0.2-0.1-0.4-0.2-0.7-0.3
	c-0.1,0-0.2-0.1-0.4-0.1c0,0,0,0,0,0C103.4,7.4,103.5,7.2,103.6,6.9 M102.2,7.6C102.2,7.7,102.2,7.7,102.2,7.6
	C102.2,7.7,102.2,7.7,102.2,7.6C102.2,7.7,102.2,7.7,102.2,7.6C102.2,7.7,102.2,7.7,102.2,7.6C102.2,7.7,102.1,7.7,102.2,7.6
	C102.2,7.7,102.2,7.7,102.2,7.6 M105.1,8.5C105.1,8.5,105.1,8.5,105.1,8.5C105.1,8.5,105.1,8.5,105.1,8.5 M104.7,9.2
	c0,0,0.1-0.1,0.1-0.2c0-0.1,0-0.1,0-0.2c0,0,0.1,0,0.1,0.1c0.1,0,0.2,0.1,0.3,0.1c0,0,0,0.1,0,0.1c-0.1,0.1-0.2,0.2-0.3,0.3
	c-0.1,0.2-0.2,0.4-0.1,0.6c0,0.1,0.1,0.1,0.1,0.2c0.1,0.1,0.2,0.1,0.3,0.1c0,0,0.1,0,0.1,0c0,0.1-0.1,0.2-0.1,0.3
	c-0.1,0-0.2,0-0.2,0c0,0-0.1,0-0.1,0.1c0,0,0,0-0.1,0c-0.1-0.1-0.2-0.1-0.2-0.2c0,0,0,0-0.1-0.1c0-0.1,0-0.1,0-0.2
	c0-0.1,0.1-0.2,0.1-0.3c0-0.1,0.1-0.2,0.1-0.3C104.7,9.5,104.7,9.4,104.7,9.2C104.7,9.3,104.7,9.3,104.7,9.2 M102.4,9.6
	C102.4,9.6,102.4,9.6,102.4,9.6c0.1,0,0.2,0.1,0.3,0.1c0.1,0,0.2,0,0.3,0.1c0,0,0,0.1,0.1,0.1c-0.1,0.1-0.2,0.2-0.3,0.3
	c-0.1,0.1-0.1,0.1-0.2,0.2c0,0,0,0,0-0.1c0-0.1-0.2-0.3-0.3-0.3C102.3,9.8,102.3,9.7,102.4,9.6 M104.7,10.7
	C104.7,10.7,104.7,10.7,104.7,10.7C104.7,10.7,104.7,10.7,104.7,10.7 M104.9,10.7C104.9,10.7,104.8,10.7,104.9,10.7
	C104.8,10.7,104.9,10.7,104.9,10.7 M104.9,10.9C104.9,10.9,104.9,10.9,104.9,10.9C104.9,10.9,104.9,10.9,104.9,10.9 M101.6,12
	C101.6,12,101.6,12.1,101.6,12C101.6,12.1,101.6,12,101.6,12"/>
</svg>
