<?xml version="1.0" encoding="utf-8"?>
<!-- Generator: Adobe Illustrator 22.0.0, SVG Export Plug-In . SVG Version: 6.00 Build 0)  -->
<svg version="1.1" id="레이어_1" xmlns="http://www.w3.org/2000/svg" xmlns:xlink="http://www.w3.org/1999/xlink" x="0px"
	 y="0px" viewBox="0 0 21.5 18.7" style="enable-background:new 0 0 21.5 18.7;" xml:space="preserve">
<style type="text/css">
	.st0{fill:#FFFFFF;}
</style>
<path class="st0" d="M1.4,13.9c-0.2,0.2-0.3,0.3-0.5,0.5c-0.2,0.2-0.3,0.3-0.4,0.5C0.3,15.2,0.1,15.6,0,16c-0.1,0.4,0.1,0.8,0.3,1.2
	c0.3,0.4,0.8,0.6,1.3,0.7c0.4,0.1,0.8,0.1,1.2,0.1c0.4,0,0.7,0,1.1,0c0.8-0.1,1.7-0.2,2.4-0.6c0.3-0.2,0.6-0.4,0.9-0.7
	c0.3-0.3,0.5-0.6,0.6-1c0.1-0.4,0-0.8-0.2-1.2c-0.4-0.8-1.2-1.3-2.1-1.5c-0.2,0-0.3-0.1-0.5-0.1c-0.2,0-0.4,0-0.7,0
	c-0.2,0-0.5,0-0.7,0.1c-0.5,0.1-0.9,0.3-1.3,0.5C2,13.5,1.7,13.6,1.4,13.9C1.5,13.9,1.4,13.9,1.4,13.9 M1.8,15.8
	C1.8,15.8,1.8,15.8,1.8,15.8C1.8,15.8,1.8,15.8,1.8,15.8C1.8,15.8,1.8,15.8,1.8,15.8 M4.6,17L4.6,17C4.6,17,4.6,17,4.6,17L4.6,17z"
	/>
<path class="st0" d="M13.8,15.8c-0.2,0.2-0.3,0.3-0.5,0.6c-0.1,0.2-0.2,0.4-0.3,0.7c-0.1,0.3,0,0.6,0.2,0.9c0.2,0.2,0.4,0.3,0.6,0.5
	c0.2,0.1,0.4,0.2,0.6,0.2c0.2,0,0.4,0.1,0.5,0.1c0.4,0,0.8,0,1.2,0c0.8-0.1,1.6-0.4,2.3-0.8c0.8-0.4,1.7-1.1,1.8-2.1
	c0-0.4,0-0.7-0.2-1c-0.1-0.3-0.3-0.5-0.5-0.7c-0.2-0.2-0.6-0.3-0.9-0.4c-0.5-0.1-1.1-0.1-1.6,0.1c-0.4,0.1-0.8,0.3-1.2,0.5
	c-0.4,0.2-0.7,0.4-1.1,0.7l0,0c-0.1,0-0.1,0.1-0.2,0.1c-0.2,0.1-0.4,0.3-0.5,0.4C14,15.6,13.9,15.7,13.8,15.8"/>
<path class="st0" d="M7.6,0.7C7.5,0.8,7.5,0.9,7.4,1c0,0.1-0.1,0.2-0.1,0.3C7.2,1.7,7.1,2,7.1,2.4c0,0.3,0,0.7,0,1
	C7,4.2,6.9,5,6.8,5.8C6.7,6.6,6.6,7.4,6.6,8.3c0,0.6,0,1.1-0.1,1.7c0,0.6-0.1,1.2-0.1,1.8c0,0.7,0,1.3,0,2c0,0.3,0.1,0.6,0.1,0.8
	c0,0.3,0,0.6,0,0.9c0,0.2,0.2,0.4,0.3,0.6c0.2,0.1,0.4,0.2,0.6,0.2c0.2,0,0.4-0.2,0.6-0.3c0.2-0.2,0.2-0.4,0.2-0.6
	c0-0.4,0-0.7,0-1.1c0-0.3,0-0.7-0.1-1c0-0.7,0-1.4,0.1-2.1c0.1-0.8,0.1-1.6,0.1-2.4c0-0.8,0-1.6,0.1-2.3c0.1-0.8,0.1-1.6,0.1-2.4
	c0-0.3,0-0.6,0-1c0-0.2,0-0.4-0.1-0.6c0-0.2,0-0.4,0-0.6c0-0.1,0-0.2,0-0.2c0.3,0,0.5,0,0.8,0c0.4,0,0.8,0,1.2,0
	c0.6,0,1.2-0.1,1.9-0.1c1.3-0.1,2.7-0.2,4-0.2c1,0,1.9,0,2.9,0.2c0.1,0,0.2,0,0.2,0.1c0,0,0,0,0,0c0,0,0,0,0,0.1
	c0,0.1,0.1,0.2,0.1,0.2c0.1,0.3,0.1,0.6,0.1,0.8c0,0.7,0,1.4-0.1,2.2c0,0.8-0.1,1.6-0.2,2.3c-0.1,0.8-0.2,1.6-0.3,2.4
	c-0.1,0.8-0.1,1.5-0.3,2.3c-0.1,0.9-0.3,1.7-0.4,2.6c0,0.2,0,0.5,0.2,0.7c0.1,0.2,0.4,0.3,0.6,0.3c0.5,0.1,0.9-0.3,1-0.8
	c0.1-0.7,0.2-1.5,0.4-2.2c0.1-0.8,0.2-1.5,0.3-2.3c0.1-0.8,0.2-1.5,0.3-2.3c0.1-0.8,0.2-1.6,0.2-2.4c0-0.8,0-1.5,0-2.3
	c0-0.2,0-0.5,0-0.7c0-0.4-0.1-0.8-0.2-1.2c-0.1-0.2-0.2-0.5-0.4-0.7c-0.2-0.2-0.4-0.4-0.6-0.5c-0.2-0.1-0.5-0.1-0.7-0.1
	C18,0,16.4,0,14.8,0.1c-0.8,0.1-1.7,0.2-2.5,0.2c-0.8,0.1-1.6,0.1-2.3,0.2c-0.4,0-0.7,0-1.1,0c-0.1,0-0.3,0-0.4,0
	c-0.1,0-0.2,0-0.3,0c-0.1,0-0.2,0-0.3,0.1C7.8,0.6,7.7,0.6,7.6,0.7C7.6,0.7,7.6,0.7,7.6,0.7 M8.1,13.3C8.1,13.3,8.1,13.3,8.1,13.3
	C8.1,13.3,8.1,13.3,8.1,13.3"/>
<path class="st0" d="M7.2,5.6c0,0.2,0,0.4,0.1,0.5c0.1,0.1,0.3,0.3,0.5,0.3c0.5,0,1.1,0,1.6,0.1c0.5,0,1,0.1,1.6,0.2
	c1.1,0.1,2.3,0.1,3.4,0.1c0.6,0,1.2,0,1.8-0.1c0.5-0.1,1.1-0.1,1.6-0.2c0.4,0,0.8-0.1,1.2-0.1c0.5-0.1,1-0.2,1.3-0.6
	c0.2-0.2,0.2-0.5,0.2-0.7c0-0.2-0.1-0.3-0.2-0.5c-0.1-0.1-0.2-0.2-0.4-0.3c-0.2-0.1-0.4-0.1-0.7-0.1l0.3,0c-0.5,0-1,0.1-1.5,0.1
	c-0.4,0-0.7,0.1-1.1,0.1c-0.4,0.1-0.8,0.1-1.2,0.2c-0.8,0.2-1.6,0.2-2.3,0.2C12.5,4.9,11.8,5,11,5c-0.5,0-0.9,0-1.4,0
	C9.1,5,8.5,5,8,5C7.8,5,7.7,5,7.5,5.1c0,0,0,0,0,0C7.3,5.3,7.2,5.4,7.2,5.6 M14.7,6.8c-0.1,0-0.2,0-0.2,0
	C14.5,6.8,14.6,6.8,14.7,6.8 M14.4,6.8L14.4,6.8C14.4,6.8,14.4,6.8,14.4,6.8C14.4,6.8,14.4,6.8,14.4,6.8"/>
</svg>
