<?xml version="1.0" encoding="utf-8"?>
<!-- Generator: Adobe Illustrator 22.0.0, SVG Export Plug-In . SVG Version: 6.00 Build 0)  -->
<svg version="1.1" id="레이어_1" xmlns="http://www.w3.org/2000/svg" xmlns:xlink="http://www.w3.org/1999/xlink" x="0px"
	 y="0px" viewBox="0 0 162.6 92.1" style="enable-background:new 0 0 162.6 92.1;" xml:space="preserve">
<style type="text/css">
	.st0{fill:#753D17;}
	.st1{fill:#4A2B24;}
	.st2{fill:#FFFFFF;}
	.st3{fill:#222222;}
</style>
<path d="M1.9,40.4c-0.2,0.1-0.3,0.2-0.5,0.3c-0.4,0.1-0.8,0.3-1,0.6C0.1,41.7,0,42.1,0,42.6c0.1,0.9,1,1.6,1.9,1.5
	c0.2,0.1,0.4,0.2,0.7,0.2s0.7,0,1,0c0.1,0,0.2,0,0.3,0c0.7,0,1.3,0.1,2,0.2c0.5,0.1,1,0.1,1.5,0.1h0.1l0,0c0,0.4,0.1,0.7,0.1,1.1
	c0,0.4-0.1,0.9-0.2,1.3c-0.2,0.5-0.4,1-0.6,1.6c-0.2,0.5-0.4,1-0.7,1.5C5.5,51,4.9,52,4.3,53c0,0,0-0.1,0.1-0.1
	c-0.5,0.9-1.1,1.7-1.7,2.5c-0.3,0.5-0.3,1.1,0.2,1.5s1.1,0.3,1.5-0.2c0.5-0.6,1-1.3,1.5-1.9C6,54.4,6.2,54,6.4,53.6
	c0.2-0.3,0.3-0.6,0.5-0.9c0.4-0.6,0.8-1.2,1.2-1.7c0.4-0.6,0.8-1.3,1.1-2c0.3-0.6,0.6-1.3,0.8-2c0.3-0.7,0.5-1.4,0.7-2.2
	c0-0.2,0.1-0.4,0.1-0.6c0-0.3,0-0.7,0-1c-0.1-0.4-0.2-0.7-0.4-1.1c-0.2-0.3-0.5-0.5-0.8-0.7c-0.2-0.1-0.6-0.2-0.8-0.3
	c-0.3-0.1-0.6-0.1-1-0.2c-0.4-0.1-0.8-0.1-1.2-0.1c-0.7-0.1-1.4-0.2-2.1-0.4c-0.4-0.1-0.7-0.2-1.1-0.2c-0.1,0-0.3,0-0.4,0
	C2.5,40.2,2.2,40.3,1.9,40.4"/>
<path d="M23.1,28.2c-0.4,0.2-0.9,0.5-1,1c-0.2,0.7-0.5,1.3-0.8,2c-0.1,0.3-0.3,0.6-0.4,0.9c-0.2,0.6-0.3,1.2-0.5,1.9
	c0-0.2,0.1-0.3,0.1-0.5c-0.3,1.2-0.7,2.3-1,3.5c-0.3,1.1-0.5,2.1-0.8,3.2c-0.2,0.6-0.3,1.2-0.5,1.8c-0.2,0.7-0.4,1.3-0.6,2
	c-0.4,1.5-0.8,3-1.2,4.6c-0.1,0.4,0.2,0.8,0.5,1c0.5,0.2,1.1,0,1.2-0.5c0.3-0.7,0.5-1.5,0.8-2.2c0.3-0.8,0.6-1.5,0.9-2.2
	c0.6-1.4,1.3-2.8,1.8-4.3c0.3-0.7,0.6-1.4,0.9-2.1c0.3-0.7,0.6-1.4,0.9-2.1c0.4-1,0.9-2,1.2-3c0.2-0.6,0.3-1.3,0.5-1.9
	c0-0.1,0.1-0.2,0.1-0.3c0-0.2,0.1-0.3,0.1-0.5c0.1-0.3,0-0.7-0.1-1c-0.2-0.5-0.5-0.8-1-1c0.1-0.4-0.2-0.5-0.4-0.5
	C23.5,28,23.3,28.1,23.1,28.2 M25.3,31.2c0,0.1,0,0.1,0,0.2C25.3,31.3,25.3,31.3,25.3,31.2 M18.9,39.7c0,0.1-0.1,0.2-0.1,0.3
	C18.9,39.9,18.9,39.8,18.9,39.7"/>
<path d="M14.4,50.6c-0.4,0.5-0.8,1.1-1,1.7c-0.3,0.6-0.6,1.2-0.8,1.8c-0.6,1.3-1.2,2.5-1.8,3.8c-0.6,1.2-1.1,2.4-1.6,3.7
	c-0.3,0.7-0.6,1.4-0.7,2.1c-0.2,0.6-0.3,1.3-0.3,2c-0.1,0.8,0.3,1.6,1.1,1.9c0.4,0.2,1,0.2,1.4,0s0.9-0.5,1-1
	c0.2-0.6,0.4-1.2,0.6-1.7c0.2-0.5,0.4-1.1,0.6-1.6c0.4-1.2,0.8-2.4,1.3-3.6c0.5-1.3,1-2.5,1.5-3.8c0.4-1,0.6-2.1,1.1-3.1
	c0.1-0.1,0.1-0.2,0.2-0.3c0.5-0.7,0.4-1.6-0.2-2.2c-0.3-0.2-0.6-0.3-1-0.3C15.1,50,14.7,50.2,14.4,50.6"/>
<path d="M21.6,49.2c-0.2,0-0.4,0-0.6,0.1c-0.3,0.1-0.7,0.2-1,0.2c-0.6,0.2-1.1,0.4-1.7,0.7c-0.5,0.3-1.1,0.5-1.6,0.8
	c-0.3,0.2-0.7,0.4-1,0.6c-0.2,0.1-0.3,0.2-0.5,0.3c-0.3,0.2-0.6,0.5-0.9,0.8c-0.2,0.2-0.3,0.5-0.2,0.8c0,0.3,0.2,0.5,0.4,0.7
	s0.5,0.3,0.8,0.2c0.3,0,0.5-0.2,0.7-0.4l0.1-0.1c0.2-0.2,0.4-0.3,0.6-0.4c1.3-0.7,2.6-1.3,4-1.7c0.1,0,0.3-0.1,0.4-0.1
	c-0.1,0.7-0.2,1.4-0.4,2c-0.1,0.4-0.2,0.7-0.3,1.1c-0.3,1-0.7,2-1.1,3c-0.3,0.8,0,1.7,0.8,2s1.7,0,2-0.8c0.3-0.7,0.5-1.3,0.7-2
	c0.1-0.5,0.2-1.1,0.3-1.6c0.1-0.6,0.2-1.2,0.3-1.7c0.1-0.6,0.2-1.1,0.2-1.7c0-0.4,0-0.8-0.1-1.2c-0.1-0.5-0.3-1-0.7-1.3
	c-0.1-0.1-0.2-0.2-0.4-0.3c-0.1,0-0.1,0-0.2-0.1C22,49,21.9,49,21.7,49C21.7,49.2,21.6,49.2,21.6,49.2 M21,51.1L21,51.1L21,51.1
	 M20.4,55C20.4,55,20.3,55.1,20.4,55C20.3,55.1,20.4,55,20.4,55"/>
<path d="M20.9,57.8c-1.4,0.4-2.8,0.9-4.1,1.5c-0.7,0.3-1.4,0.6-2.1,0.9c-0.7,0.3-1.4,0.7-2.1,1.1c-0.4,0.2-0.9,0.5-1.3,0.7
	c-0.5,0.2-0.7,0.7-0.5,1.2c0.2,0.4,0.8,0.7,1.2,0.5c0.8-0.4,1.6-0.8,2.5-1.2c0.8-0.4,1.6-0.7,2.4-1s1.7-0.5,2.5-0.8
	c0.9-0.3,1.8-0.6,2.6-1.1c0.4-0.3,0.5-0.8,0.3-1.2c-0.1-0.3-0.3-0.5-0.6-0.6c-0.1-0.1-0.3-0.1-0.4-0.1C21.1,57.7,21,57.7,20.9,57.8"
	/>
<path d="M26.1,50.7L26.1,50.7C26.1,50.8,26.1,50.8,26.1,50.7s0-0.2,0-0.3C26,50.5,26,50.6,26.1,50.7"/>
<path d="M62.8,42.6c-0.3,0.4-0.7,0.8-1,1.2c-0.4,0.4-0.8,0.9-1.2,1.4s-0.8,0.9-1.2,1.5s-0.7,1.1-1,1.7c-0.1,0.2-0.1,0.4-0.1,0.7
	s0.2,0.6,0.5,0.8c0.6,0.4,1.3,0.3,1.8-0.2c0.4-0.4,0.7-0.8,1.1-1.3c0.4-0.5,0.7-1,1.1-1.5c0.7-0.9,1.3-1.9,2-2.8
	c0.4-0.5,0.3-1.2-0.2-1.6c-0.2-0.2-0.5-0.3-0.7-0.3C63.3,42.2,63,42.3,62.8,42.6"/>
<path d="M60.5,47c-0.2,0.4,0,0.8,0.4,0.9c0.3,0.1,0.5,0.2,0.8,0.4c0.5,0.3,0.9,0.7,1.4,1c0.3,0.2,0.7,0.4,1,0.6
	c0.3,0.2,0.6,0.3,0.9,0.5c0.6,0.3,1.1,0.5,1.7,0.7s1.2,0.5,1.8,0.7c0.5,0.2,1.1,0,1.3-0.5c0.1-0.2,0.1-0.5,0-0.8
	c-0.1-0.2-0.3-0.5-0.5-0.5c-1.4-0.5-2.7-0.9-4.1-1.5c-0.6-0.3-1.2-0.6-1.8-0.9c-0.3-0.2-0.6-0.3-0.9-0.5c-0.3-0.2-0.7-0.3-1-0.5
	c-0.1,0-0.2-0.1-0.3-0.1C60.9,46.6,60.6,46.8,60.5,47"/>
<path d="M70.2,43c-0.7,0.4-1.4,0.8-2,1.2c-0.3,0.2-0.7,0.5-0.9,0.8c-0.1,0.1-0.3,0.3-0.4,0.4c-0.2,0.2-0.3,0.4-0.4,0.6
	c-0.1,0.1-0.1,0.3-0.1,0.4c0,0.2,0.1,0.4,0.3,0.5c0.2,0.2,0.6,0.2,0.9,0.1h0.1c0.2,0,0.3-0.1,0.4-0.2c0-0.1,0.1-0.1,0.1-0.2
	c0.1-0.1,0.2-0.1,0.3-0.2c0.2-0.1,0.4-0.3,0.7-0.4c0.8-0.4,1.6-0.9,2.4-1.3c0.2-0.1,0.4-0.5,0.4-0.7c0-0.3,0-0.6-0.2-0.8
	s-0.4-0.4-0.7-0.4c-0.1,0-0.2,0-0.3,0C70.6,42.8,70.4,42.9,70.2,43 M67.3,45.8C67.4,45.8,67.4,45.8,67.3,45.8
	C67.4,45.8,67.4,45.8,67.3,45.8"/>
<path d="M70.2,28.4c-0.1,0-0.3,0.1-0.4,0.2s-0.1,0.3-0.1,0.4c0,0.4,0,0.8,0.1,1.2c0,0.4,0,0.8,0,1.2c0,0.9-0.1,1.7-0.1,2.6
	c0,1,0,2,0,2.9c0,1.8,0,3.6,0.3,5.3c0.1,0.9,0.3,1.8,0.4,2.7c0.1,0.8,0.3,1.6,0.5,2.4c0.4,1.8,0.8,3.5,1.2,5.3c0,0.1,0,0.2,0.1,0.3
	c0.1,0.2,0.2,0.3,0.3,0.4c0.2,0.2,0.5,0.3,0.8,0.2c0.5-0.1,1-0.6,0.9-1.2c-0.2-1.3-0.5-2.6-0.8-4c-0.3-1.3-0.6-2.5-1-3.8
	c0,0.1,0,0.2,0.1,0.3c-0.2-0.9-0.5-1.8-0.7-2.7c-0.1-0.5-0.2-1-0.3-1.4c-0.1-0.4-0.1-0.8-0.2-1.3c0-0.2,0-0.4-0.1-0.7
	c0-0.2,0-0.4-0.1-0.6c0-0.4-0.1-0.9-0.1-1.3c0-1-0.1-1.9-0.1-2.9c0-0.9,0-1.8-0.1-2.7c0-0.4,0-0.8-0.1-1.3c0-0.4-0.1-0.8-0.1-1.3
	c0-0.1-0.1-0.3-0.2-0.4C70.5,28.5,70.4,28.4,70.2,28.4L70.2,28.4"/>
<path d="M74.3,51.3c-0.3,0-0.6,0.1-0.8,0.2c-0.7,0.2-1.3,0.4-1.9,0.6c-0.5,0.2-1,0.4-1.5,0.7c-0.5,0.2-1,0.5-1.5,0.7
	c-1.8,0.7-3.6,1.2-5.3,2.1c-0.8,0.4-1.7,0.8-2.5,1.3c-0.8,0.4-1.7,0.8-2.5,1.3c-0.2,0.1-0.4,0.3-0.6,0.5c-0.1,0.3-0.1,0.5,0,0.8
	c0.1,0.2,0.3,0.5,0.5,0.6s0.6,0.1,0.8,0c1-0.5,1.9-1.1,2.9-1.6c0.5-0.3,1.1-0.5,1.6-0.7s1-0.4,1.5-0.6c1.1-0.4,2.2-0.7,3.3-1.1
	c0.5-0.2,1.1-0.4,1.6-0.6c0.5-0.2,1.1-0.4,1.6-0.6c0.7-0.3,1.4-0.5,2.1-0.7c0.6-0.1,1.2-0.3,1.8-0.3c0.1,0,0.1,0,0.2,0l0,0
	c0,0.1,0,0.1,0.1,0.2c0,0.2,0.1,0.3,0.1,0.5c0,0.6-0.2,1.3-0.3,1.9c-0.1,0.4-0.2,0.8-0.2,1.2c-0.2,0.9-0.3,1.8-0.4,2.8
	c-0.1,0.5,0.2,0.9,0.7,1s0.9-0.3,1-0.7c0.1-0.6,0.2-1.1,0.4-1.7c0.1-0.6,0.3-1.2,0.4-1.7c0.2-0.7,0.4-1.4,0.5-2.1
	C78,54.9,78,54.4,78,54c0-0.2-0.1-0.4-0.1-0.6c-0.1-0.2-0.1-0.4-0.2-0.6c-0.4-0.8-1.3-1.3-2.2-1.4c-0.2,0-0.3,0-0.5,0
	c-0.1,0-0.2,0-0.3,0C74.5,51.2,74.4,51.2,74.3,51.3"/>
<path d="M78.2,37.4c-0.4,0.3-0.7,0.7-0.7,1.2c-0.1,0.5,0.1,1,0.3,1.4c0.3,0.3,0.6,0.5,1,0.7c0.2,0.2,0.5,0.3,0.7,0.4
	c0.4,0.2,0.8,0.4,1.2,0.6c0.2,0.2,0.5,0.3,0.7,0.5c0,0,0,0.1,0.1,0.1c0,0.1,0.1,0.2,0.1,0.2c0,0.2,0,0.5,0,0.7
	c0,0.8-0.1,1.7-0.1,2.5c0,0.3,0.2,0.6,0.3,0.8c0.3,0.4,0.7,0.6,1.2,0.7c0.5,0.1,0.9,0,1.3-0.3s0.6-0.7,0.7-1.2
	c0.2-0.9,0.3-1.9,0.5-2.8c0.1-0.5,0.1-1.1,0-1.6c0-0.7-0.3-1.3-0.6-1.9c-0.3-0.6-0.8-1.1-1.3-1.4c-0.5-0.3-0.9-0.6-1.5-0.7
	c-0.4-0.1-0.9-0.3-1.3-0.3c-0.3,0-0.6,0-1,0h-0.1h-0.1c-0.1,0-0.2,0-0.3,0C78.9,37,78.5,37.2,78.2,37.4"/>
<path d="M69.4,27.1c-0.4,0-0.7,0.2-0.9,0.5c-0.1,0.1-0.1,0.2-0.2,0.3c-0.1,0.2-0.1,0.5-0.1,0.7c0,0.1,0,0.3,0,0.4c0,0.4,0,0.8,0,1.2
	c0,0.7,0,1.3,0,2c0,0.6,0.1,1.3,0.2,1.9c0.1,0.7,0.2,1.3,0.3,2c0.2,1.4,0.4,2.7,0.7,4c0.1,0.6,0.3,1.3,0.4,1.9
	c0.1,0.7,0.2,1.3,0.3,2c0.2,1.6,0.6,3.1,1.1,4.6c0.2,0.9,0.4,1.7,0.6,2.6c0.1,0.2,0.2,0.3,0.3,0.4c0.2,0.2,0.4,0.2,0.7,0.2
	c0.5-0.1,0.9-0.5,0.8-1c-0.2-1.4-0.5-2.7-0.7-4.1c-0.2-1.3-0.4-2.6-0.4-3.9c0-0.7-0.1-1.4-0.1-2.1c0-0.6-0.1-1.3-0.2-1.9
	c-0.2-1.4-0.3-2.8-0.4-4.1c-0.1-1.1-0.3-2.2-0.4-3.3c0-0.6-0.1-1.1-0.2-1.7c0-0.2-0.1-0.5-0.1-0.7s0-0.4,0-0.6
	c0-0.3-0.3-0.7-0.5-0.9c-0.3-0.2-0.6-0.3-0.9-0.3C69.5,27,69.5,27.1,69.4,27.1 M68.2,28.7L68.2,28.7L68.2,28.7L68.2,28.7z"/>
<path d="M31.3,37.9C31.1,38,31,38,30.8,38.1c-0.1,0.1-0.3,0.2-0.4,0.3c-0.3,0.3-0.6,0.6-0.9,1c-0.2,0.3-0.4,0.6-0.6,0.9
	c-0.4,0.6-0.7,1.2-1,1.9c-0.2,0.6,0.2,1.2,0.8,1.4c0.6,0.2,1.2-0.2,1.4-0.8c0-0.1,0.1-0.2,0.1-0.2c0.2-0.5,0.5-0.9,0.9-1.3
	c0.1-0.1,0.2-0.3,0.3-0.4c0,0.4,0,0.8,0,1.2c0,0.5-0.1,0.9-0.1,1.4c0,0.8,0.7,1.5,1.5,1.5c0.4,0,0.8-0.2,1-0.4
	c0.1-0.1,0.2-0.2,0.2-0.3c0.1-0.2,0.2-0.5,0.2-0.7c0.1-0.7,0.1-1.4,0-2.1c-0.1-0.9-0.3-1.9-0.9-2.6c-0.3-0.4-0.8-0.7-1.3-0.7
	c-0.1,0-0.3,0-0.5,0C31.6,37.8,31.4,37.8,31.3,37.9 M32,40.3L32,40.3L32,40.3"/>
<path d="M30,44.2c-0.2,0.1-0.4,0.3-0.6,0.5c-0.1,0.1-0.2,0.2-0.4,0.4c-0.2,0.2-0.4,0.4-0.5,0.7c-0.3,0.4-0.6,0.8-0.8,1.2
	c-0.2,0.4-0.4,0.8-0.6,1.2c-0.2,0.5-0.5,1-0.7,1.6c0,0.2,0,0.3,0,0.5c0.1,0.2,0.2,0.4,0.4,0.6c0.4,0.3,1.1,0.1,1.3-0.3
	c0.3-0.6,0.6-1.2,1-1.8c0.3-0.5,0.6-1,0.9-1.4s0.6-0.8,1-1.1l0,0c0.2-0.2,0.4-0.4,0.5-0.6c0.1-0.3,0-0.6-0.1-0.8s-0.4-0.4-0.6-0.5
	c-0.1,0-0.2,0-0.3,0C30.4,44,30.2,44.1,30,44.2"/>
<path d="M38.1,46.2c-1.4,0.2-2.9,0.4-4.3,0.7c-0.7,0.1-1.4,0.3-2,0.5c-0.6,0.2-1.3,0.4-1.9,0.6c-0.6,0.2-1.2,0.5-1.8,0.7
	c-0.5,0.2-1,0.5-1.5,0.7c-0.4,0.1-0.7,0.2-1.1,0.3c-0.5,0.1-0.8,0.7-0.7,1.2c0.1,0.5,0.7,0.8,1.2,0.7s1.1-0.2,1.6-0.4
	c0.7-0.2,1.4-0.3,2.1-0.4c0.7-0.1,1.3-0.2,2-0.3c0.8-0.1,1.5-0.3,2.3-0.4c1.1-0.1,2.2-0.2,3.3-0.2c0.5,0,1.1-0.1,1.6-0.1
	c0.3,0,0.6,0,0.9,0c0.1,0,0.3,0,0.4,0c0.3,0,0.6,0,1,0c0.5,0.1,0.9,0.1,1.4,0.2c0.2,0,0.3,0,0.5,0.1c0.3,0,0.6-0.1,0.9-0.2
	c0.4-0.2,0.7-0.6,0.8-1c0.3-0.9-0.3-1.8-1.2-2.1c-1-0.3-2.1-0.6-3.2-0.6c0,0,0,0-0.1,0C39.5,46,38.8,46.1,38.1,46.2"/>
<path d="M55.8,51.3c-1.1,0.3-2.1,0.6-3.2,1c-0.5,0.2-1.1,0.5-1.6,0.7c-0.5,0.3-1,0.6-1.4,0.9c-1,0.7-2,1.5-2.9,2.3l0,0
	c-0.4,0-0.8,0-1.2,0.1c-0.8,0.1-1.5,0.2-2.3,0.5s-1.7,0.6-2.5,1.1c-0.3,0.2-0.6,0.4-1,0.6c-0.3,0.2-0.4,0.4-0.5,0.7s0,0.6,0.1,0.9
	c0.2,0.3,0.4,0.4,0.7,0.5s0.6,0,0.9-0.1c0.4-0.2,0.9-0.4,1.3-0.6c0.4-0.2,0.8-0.3,1.2-0.4c0.4-0.1,0.9-0.3,1.3-0.4
	c-0.1,0.3-0.3,0.7-0.4,1c-0.2,0.5-0.3,1.1-0.4,1.6c-0.1,0.4-0.1,0.7-0.1,1.1c0,0.4,0,0.8,0.1,1.1c0,0.1,0.1,0.3,0.1,0.4
	c0.1,0.2,0.2,0.5,0.3,0.7c0.3,0.4,0.6,0.7,1,1c0,0,0.1,0,0.1,0.1c0.2,0.1,0.4,0.2,0.6,0.2c0.2,0.1,0.3,0.1,0.5,0.1
	c0.4,0.1,0.8,0.1,1.2,0.1c0.3,0,0.5-0.1,0.8-0.1c0.3-0.1,0.6-0.2,0.9-0.3c0.4-0.2,0.7-0.4,1-0.7c0.2-0.2,0.4-0.4,0.5-0.6
	c0.3-0.4,0.6-0.8,0.8-1.3c0.2-0.3,0.3-0.7,0.4-1c0.1-0.3,0.1-0.7,0.1-1c0-0.4-0.1-0.8-0.1-1.1c-0.1-0.4-0.3-0.9-0.6-1.2
	c-0.6-0.9-1.5-1.7-2.4-2.2c0.3-0.3,0.6-0.7,0.9-1c0.6-0.5,1.2-1.1,1.8-1.6c0.9-0.7,1.8-1.3,2.8-1.7c0.4-0.2,0.8-0.3,1.2-0.4
	c0.3-0.1,0.5-0.4,0.4-0.7c-0.1-0.2-0.3-0.4-0.5-0.4C55.9,51.3,55.9,51.3,55.8,51.3 M54.8,52.8L54.8,52.8L54.8,52.8 M47.9,59.1
	L47.9,59.1c0.4,0.1,0.6,0.3,0.9,0.5c0.2,0.2,0.5,0.4,0.7,0.7c0.1,0.2,0.2,0.3,0.3,0.5c0,0.1,0,0.1,0,0.2c0,0.1,0,0.3,0,0.4
	c0,0.2-0.1,0.4-0.2,0.6c-0.1,0.2-0.2,0.3-0.3,0.5c-0.2,0.2-0.4,0.4-0.6,0.6c-0.1,0.1-0.2,0.1-0.3,0.2c-0.2,0.1-0.3,0.1-0.5,0.1
	c-0.1,0-0.2,0-0.2,0c-0.2,0-0.3-0.1-0.5-0.1l0,0c0-0.1-0.1-0.2-0.1-0.3c0-0.6,0-1.1,0-1.7c0.1-0.6,0.2-1.2,0.5-1.8
	C47.8,59.4,47.8,59.3,47.9,59.1"/>
<path d="M46.2,31.5c0,0.4,0.1,0.7,0.1,1.1c0.1,0.5,0.1,1,0.1,1.5c0.1,0.5,0.1,1.1,0.2,1.6c0,0.6,0.1,1.1,0.2,1.7
	c0.1,0.6,0.1,1.2,0.2,1.8c0.1,1.2,0.1,2.3,0.1,3.5s0.1,2.3,0.1,3.5c0,0.8,0,1.6-0.1,2.4c0,0.9,0,1.7,0,2.6c0,1.7-0.4,3.4-0.5,5.2
	c0,0.3,0.1,0.5,0.2,0.8c0.2,0.4,0.5,0.6,0.9,0.7c0.8,0.2,1.7-0.3,1.9-1.1c0.2-0.6,0.3-1.2,0.4-1.8c0.1-0.6,0.3-1.2,0.3-1.8
	c0.1-0.8,0.1-1.5,0.1-2.3c0-0.6,0-1.2-0.1-1.9c-0.1-2.4-0.3-4.7-0.6-7.1c-0.1-1-0.2-1.9-0.5-2.9c-0.1-0.4-0.2-0.9-0.3-1.3
	c-0.1-0.4-0.2-0.9-0.3-1.3c-0.2-0.8-0.4-1.6-0.7-2.4c-0.1-0.4-0.2-0.8-0.4-1.3c-0.1-0.3-0.3-0.7-0.4-1c0-0.1,0-0.1,0-0.2
	c0-0.3-0.3-0.6-0.6-0.6C46.5,30.9,46.2,31.2,46.2,31.5"/>
<path d="M90.1,34.9c-0.3,0-0.5,0.1-0.7,0.3c-0.9,1-1.7,2.1-2.2,3.3s-0.6,2.7-0.1,4c0.2,0.7,0.6,1.2,1,1.8c0.3,0.5,0.6,1.1,0.9,1.7
	c0.3,0.5,0.6,1,0.9,1.6c0.3,0.5,0.5,1,0.7,1.5c0.3,0.7,0.8,1.4,1.1,2.1c0.2,0.7,0.4,1.5,0.5,2.2c0,0.7,0.1,1.3,0,2
	c0,0.2-0.1,0.3-0.1,0.5c-0.1,0.2-0.2,0.3-0.3,0.5c-0.3,0.3-0.6,0.6-0.9,0.8s-0.7,0.4-1,0.6c-0.4,0.2-0.7,0.4-1.1,0.6
	c-0.4,0.2-0.7,0.4-1,0.7c-0.4,0.3-0.8,0.8-1,1.3c-0.2,0.4-0.2,0.7-0.1,1.1c0.1,0.4,0.5,0.7,0.9,1c0.4,0.2,0.8,0.4,1.2,0.6
	c0.7,0.3,1.5,0.6,2.2,0.9l0,0l0,0c-0.1,0.1-0.1,0.2-0.2,0.3c-0.4,0.4-0.7,0.7-1.2,1s-0.9,0.6-1.4,0.9s-1,0.7-1.5,1.1
	c-0.8,0.5-1.7,1-2.5,1.6c-0.4,0.3-0.7,0.5-1.1,0.8c-0.3,0.2-0.5,0.5-0.7,0.7s-0.3,0.5-0.4,0.9s-0.1,0.8,0,1.3c0,0.3,0.2,0.5,0.3,0.8
	c0.1,0.3,0.3,0.5,0.5,0.8c0.4,0.5,0.9,0.8,1.5,1c0.4,0.2,0.9,0.4,1.4,0.5c0.4,0.1,0.9,0.3,1.3,0.3c0.5,0.1,1,0.2,1.4,0.2
	c0.2,0,0.4,0.1,0.6,0.2l0.1,0.1l0,0c0,0.1,0.1,0.1,0.1,0.2s0,0.1,0,0.2s0,0.1,0,0.2c0,0,0,0,0,0.1c-0.1,0.1-0.1,0.1-0.2,0.2
	c-0.4,0.3-0.9,0.5-1.3,0.6c-1.1,0.4-2.2,0.8-3.3,1c-1.2,0.3-2.4,0.6-3.6,0.8c-0.6,0.1-1.3,0.2-1.9,0.3c-0.7,0.1-1.3,0.3-2,0.5
	c-1.2,0.3-2.4,0.5-3.5,1.1c-0.7,0.4-1.3,0.9-1.8,1.6c-0.2,0.3-0.4,0.7-0.5,1.1S71,85.2,71,85.7c0.1,0.4,0.2,0.9,0.4,1.3
	c0.3,0.6,0.7,1.3,1.2,1.8s1.1,1,1.8,1.4c0.2,0.2,0.5,0.3,0.8,0.4c0.4,0.2,0.9,0.4,1.3,0.6c0.7,0.3,1.3,0.4,2,0.5
	c1.4,0.3,2.9,0.5,4.3,0.6c2.8,0.2,5.6,0.3,8.3,0.1c1.4-0.1,2.8-0.1,4.2-0.1c1.5,0,2.9-0.2,4.4-0.4c1-0.1,2.1-0.3,3.1-0.4
	c1.7-0.1,3.4-0.2,5-0.4c0.2,0,0.4-0.1,0.5-0.3c0.2-0.2,0.4-0.5,0.4-0.8c0-0.6-0.5-1.2-1.1-1.3c-1.5,0-2.9,0-4.4,0
	c-0.6,0-1.3,0-1.9,0c-0.7,0-1.4,0-2.1,0.1c-0.7,0-1.4,0-2.1,0c-0.4,0-0.8,0-1.2-0.1c-0.3,0-0.6,0-0.9,0s-0.5,0-0.8,0
	c-0.1,0-0.3,0-0.4,0c-0.3,0-0.5,0-0.8-0.1c-0.4,0-0.8,0-1.2-0.1c-0.5,0-1.1-0.1-1.7-0.1c-0.2,0-0.5-0.1-0.7-0.1c-0.3,0-0.7,0-1-0.1
	c-1.5-0.1-2.9-0.1-4.4-0.2c-1.1,0-2.2-0.1-3.3-0.2c-1-0.1-2.1-0.1-3.1-0.3c-0.7-0.2-1.3-0.4-2-0.7c-0.5-0.2-0.9-0.5-1.3-0.8
	c-0.2-0.2-0.4-0.4-0.5-0.6c-0.1-0.1-0.2-0.3-0.2-0.5c0-0.1,0-0.1,0-0.2s0-0.1,0-0.2s0.1-0.2,0.1-0.4c0.1-0.2,0.2-0.3,0.3-0.4
	c0.2-0.2,0.5-0.4,0.7-0.6c0.4-0.2,0.8-0.4,1.2-0.6c0.6-0.2,1.1-0.3,1.7-0.5s1.3-0.4,2-0.5c0.6-0.1,1.3-0.2,1.9-0.3
	c0.6-0.1,1.2-0.3,1.8-0.4c0.6-0.1,1.2-0.2,1.9-0.4c0.6-0.1,1.1-0.3,1.7-0.4c0.6-0.2,1.3-0.4,1.9-0.6c0.3-0.1,0.6-0.2,0.8-0.4
	c0.3-0.2,0.7-0.4,0.9-0.7c0.2-0.3,0.4-0.5,0.5-0.9c0.1-0.2,0.1-0.5,0.1-0.7c0-0.3-0.1-0.6-0.1-0.9c-0.2-0.6-0.4-1.1-0.9-1.5
	c-0.3-0.3-0.6-0.4-0.9-0.6c-1.1-0.6-2.3-1-3.4-1.5c-0.2-0.1-0.4-0.2-0.5-0.3c0-0.1-0.1-0.1-0.1-0.2c0.4-0.4,0.8-0.8,1.3-1.1
	c0.8-0.5,1.6-1,2.4-1.6c0.4-0.3,0.8-0.6,1.2-0.9c0.4-0.3,0.8-0.5,1.2-0.9c0.4-0.3,0.8-0.7,1.2-1.2c0.1-0.1,0.2-0.2,0.2-0.3
	c0.2-0.3,0.4-0.6,0.5-0.9s0.1-0.7,0.1-1c0-0.4-0.1-0.7-0.3-1c-0.1-0.2-0.3-0.4-0.5-0.6c-0.4-0.2-0.8-0.2-1-0.2s-0.5,0-0.7,0
	c-0.4,0-0.8-0.1-1.1-0.1c-0.4-0.1-0.9-0.2-1.3-0.4c-0.2-0.1-0.4-0.2-0.6-0.4L87.7,61l0,0c0,0,0,0,0-0.1l0,0c0-0.1,0.1-0.2,0.1-0.3
	c0.1-0.1,0.2-0.3,0.3-0.4c0.2-0.2,0.5-0.4,0.7-0.6c0.9-0.6,1.9-1,2.7-1.7c0.5-0.3,0.9-0.7,1.2-1.2c0.4-0.6,0.4-1.3,0.4-2
	c0-0.6,0-1.1-0.1-1.7c-0.1-0.6-0.2-1.1-0.3-1.6c-0.2-0.5-0.4-1.1-0.6-1.6s-0.5-0.9-0.7-1.4c-0.2-0.4-0.3-0.9-0.5-1.3
	c-0.2-0.5-0.4-1-0.6-1.4c-0.1-0.4-0.2-0.8-0.4-1.2c-0.1-0.5-0.3-1-0.5-1.5v0.1c-0.1-0.2-0.1-0.3-0.2-0.5s-0.1-0.4-0.1-0.7
	c0-0.6,0-1.1,0.1-1.7c0.1-0.6,0.4-1.3,0.7-1.9c0.2-0.5,0.5-1,0.9-1.4l0.1-0.1c0.2-0.2,0.3-0.4,0.4-0.8c0-0.3-0.1-0.6-0.3-0.8
	C90.7,35,90.4,34.9,90.1,34.9L90.1,34.9z M87.6,60.7C87.6,60.8,87.6,60.8,87.6,60.7L87.6,60.7C87.6,60.8,87.6,60.8,87.6,60.7
	 M87.6,60.8L87.6,60.8L87.6,60.8L87.6,60.8 M87.6,60.9C87.6,60.9,87.7,61,87.6,60.9C87.7,61,87.6,60.9,87.6,60.9 M87.7,61
	C87.8,61,87.8,61.1,87.7,61C87.8,61.1,87.8,61,87.7,61 M90.9,63.8L90.9,63.8C90.9,63.9,91,63.9,90.9,63.8
	C91,63.9,90.9,63.9,90.9,63.8 M89.2,65.2L89.2,65.2L89.2,65.2 M89,76.3L89,76.3L89,76.3L89,76.3"/>
<path class="st0" d="M134.3,0c-0.1,0-0.3,0.1-0.4,0.2c-0.1,0.1-0.1,0.1-0.1,0.2c-0.1,0.2-0.2,0.3-0.3,0.5c-0.1,0.3-0.3,0.5-0.3,0.8
	l0,0c-0.1,0.3-0.3,0.7-0.4,1c-0.1,0.2-0.1,0.5-0.2,0.7c-0.1,0.2-0.1,0.3-0.2,0.5c0,0.1-0.1,0.3-0.1,0.4l-0.1,0.3
	c-0.1,0.2-0.1,0.4-0.2,0.6c-0.1,0.2-0.2,0.4-0.3,0.6c-0.1,0.1-0.1,0.3-0.2,0.4c0,0.1-0.1,0.2-0.1,0.3c-0.1,0.2,0,0.3,0,0.5
	c0,0.1,0.1,0.2,0.1,0.4c0,0.1,0.1,0.2,0.1,0.3c0.1,0.2,0.1,0.3,0.2,0.5c0.1,0.2,0.2,0.3,0.3,0.4l0.1,0.1l0.4,0.2
	c0,0.1,0.1,0.1,0.1,0.2c0.1,0.1,0.1,0.2,0.2,0.3c0,0.1,0,0.2-0.1,0.3c0,0.1-0.1,0.2-0.1,0.3v0.1c-0.1,0.1-0.1,0.3-0.1,0.4
	c0,0.1-0.1,0.2-0.1,0.4c-0.2,0.6-0.4,1.2-0.6,1.9c-0.1,0.4-0.2,0.9-0.3,1.3l-0.2,0.6c-0.1,0.3-0.1,0.6-0.2,0.8
	c-0.1,0.4-0.2,0.7-0.3,1.1c-0.2,0.5-0.3,1-0.4,1.5l-0.1,0.3c-0.1,0.5-0.3,1-0.5,1.5l-0.1,0.3c-0.1,0.4-0.2,0.7-0.3,1.1
	c-0.1,0.3-0.2,0.6-0.3,0.8c-0.1,0.4-0.2,0.8-0.4,1.1c-0.1,0.2-0.2,0.5-0.2,0.7l-0.1,0.4c-0.2,0.5-0.3,1-0.5,1.5
	c-0.2,0.6-0.4,1.2-0.6,1.9l-0.1,0.2c-0.1,0.3-0.2,0.5-0.2,0.8c-0.1,0.2-0.1,0.4-0.1,0.5s-0.1,0.3-0.1,0.4c-0.1,0.3-0.2,0.5-0.2,0.8
	c-0.1,0.4-0.2,0.8-0.3,1.1l-0.1,0.4c-0.1,0.3-0.2,0.6-0.3,0.9c-0.3-0.1-0.7-0.1-1-0.1h-0.2c-0.2,0-0.3,0-0.5-0.1H124
	c-0.5-0.1-1-0.1-1.4-0.2c-0.2,0-0.4,0-0.6,0c-0.5,0-1,0-1.6,0.1c-0.7,0.1-1.3,0.2-1.9,0.5c-0.6,0.2-1.1,0.5-1.6,0.7
	c-1.5,0.8-2.4,1.6-2.9,2.7c-0.3,0.6-0.4,1.2-0.5,1.8c0,0.5,0,1,0,1.5c0,0.6,0.1,1.3,0.3,2c0.1,0.4,0.3,0.9,0.4,1.3
	c0.1,0.2,0.1,0.3,0.2,0.5c0.1,0.3,0.2,0.7,0.3,1.2c0,0.2,0,0.5,0,0.7c-0.1,0.7-0.4,1.4-0.6,2c-0.1,0.2-0.2,0.4-0.3,0.6
	c-0.2,0.3-0.4,0.5-0.6,0.8c-0.1,0.2-0.3,0.3-0.4,0.4c-0.2,0.2-0.3,0.3-0.5,0.4h-0.1c-0.1,0-0.1,0.1-0.2,0.1
	c-0.6,0.5-1.1,0.8-1.5,1.2l0.1-0.1c-0.3,0.2-0.7,0.5-1.1,0.9c-0.2,0.2-0.3,0.3-0.5,0.5l-0.1,0.1l-0.3,0.3c-0.2,0.1-0.3,0.3-0.5,0.4
	l-0.1,0.1c-0.2,0.1-0.3,0.3-0.5,0.4c-0.4,0.4-0.8,0.9-1.1,1.3c-0.3,0.5-0.6,1.1-0.8,1.6c-0.2,0.6-0.4,1.2-0.6,1.8
	c-0.4,1.4-0.6,2.7-0.6,3.9c0,0.5,0,1.1,0.1,1.7V64c0.1,0.6,0.1,1.3,0.2,1.9c0.3,1.4,0.8,2.6,1.4,3.7c0.4,0.6,0.8,1.2,1.4,2
	c0.4,0.6,0.8,1.1,1.3,1.6c0.4,0.5,1,0.9,1.7,1.5c0.4,0.3,0.8,0.5,1.2,0.8l0.3,0.2c0.6,0.3,1.2,0.6,1.9,0.9h0.1
	c0.5,0.2,1,0.4,1.5,0.7c0.2,0.1,0.4,0.2,0.7,0.4c0.4,0.2,0.8,0.4,1.1,0.6c0.2,0.1,0.4,0.2,0.6,0.2c0.1,0,0.3,0.1,0.4,0.1
	c0.3,0.1,0.7,0.2,1,0.3c0.4,0.1,0.8,0.2,1.2,0.3h0.1c0.2,0,0.5,0.1,0.7,0.1c0.5,0.1,1,0.2,1.5,0.3c0.3,0,0.5,0.1,0.8,0.1
	c1,0.2,2.3,0.4,3.5,0.4h0.1c0.6,0,1.3-0.1,2.1-0.2c0.7-0.1,1.3-0.3,1.8-0.4c0.8-0.2,1.4-0.5,2-0.9s1.2-0.7,1.7-1.2
	c1.2-0.9,1.8-2.3,2.4-3.6l0.1-0.2c0.1-0.2,0.2-0.3,0.3-0.5V73c0.2-0.4,0.4-0.8,0.6-1.2c0.2-0.5,0.3-1,0.5-1.5v-0.2
	c0.2-0.7,0.3-1.4,0.4-2.1c0-0.2,0-0.4,0-0.6v-0.2c0-0.3,0-0.7,0-1c0-0.6-0.1-1.3-0.2-2.2c-0.1-0.7-0.2-1.2-0.4-1.7
	c-0.2-0.7-0.4-1.3-0.6-1.8c-0.2-0.7-0.4-1.3-0.6-1.9c-0.1-0.3-0.2-0.6-0.3-0.9v-0.1l-0.1-0.2c-0.1-0.2-0.1-0.4-0.2-0.6
	c-0.2-0.7-0.4-1.4-0.5-2c0-0.5,0-0.8,0-1.2c0.1-0.4,0.2-0.8,0.4-1.3c0.1-0.2,0.2-0.4,0.3-0.6l0.1-0.2c0.4-0.9,0.9-1.7,1.2-2.6
	c0.1-0.2,0.2-0.5,0.3-0.8c0.1-0.5,0.2-1,0.3-1.4c0.1-0.7,0.1-1.3,0.1-1.8c0-0.2,0-0.5,0-0.8V44c0-0.4-0.1-0.7-0.2-1.1
	c-0.1-0.4-0.3-0.7-0.5-1c-0.1-0.1-0.2-0.3-0.2-0.4l-0.1-0.1l-0.2-0.2l-0.1-0.2c-0.3-0.5-0.7-1.1-1.1-1.5c-0.2-0.2-0.4-0.4-0.6-0.6
	c-0.3-0.3-0.5-0.5-0.8-0.8l-0.2-0.2c-0.4-0.4-0.8-0.8-1.2-1.2c-0.6-0.5-1.2-1-1.8-1.4c-0.5-0.3-1-0.6-1.6-0.9h-0.1l-0.1-0.1H130
	c0.1-0.4,0.3-0.9,0.4-1.4c0.2-0.5,0.3-0.9,0.5-1.4c0.2-0.5,0.4-1.1,0.6-1.6c0.2-0.5,0.3-1,0.5-1.5c0.1-0.3,0.2-0.5,0.3-0.8
	c0.1-0.2,0.2-0.4,0.2-0.7c0.1-0.3,0.2-0.6,0.3-0.9c0.1-0.2,0.1-0.4,0.2-0.6c0.1-0.3,0.2-0.6,0.3-0.8c0.1-0.2,0.1-0.4,0.2-0.6
	l0.1-0.3c0.1-0.4,0.2-0.7,0.4-1.1c0.2-0.5,0.3-1,0.4-1.5c0.1-0.4,0.2-0.7,0.3-1.1l0.1-0.4c0.1-0.5,0.3-1,0.4-1.5
	c0.1-0.5,0.2-1.1,0.3-1.6s0.2-0.9,0.3-1.4s0.2-1,0.4-1.4l0.1-0.3c0.1-0.3,0.2-0.7,0.4-1c0.1-0.2,0.2-0.4,0.3-0.7c0,0,0.1,0,0.1-0.1
	c0.3-0.1,0.5-0.2,0.8-0.3h0.1c0.2-0.1,1-0.1,1.2-0.2h0.1c0.1,0,0.1-0.1,0.2-0.1l0.1-0.1l0,0c0.1-0.1,0.2-0.2,0.2-0.4
	c0.1-0.2,0.1-0.3,0.1-0.5V9.9c0-0.2,0-0.5,0.1-0.7c0-0.4,0.1-0.8,0.1-1.2c0-0.2,0.1-0.4,0.1-0.6c0-0.1,0-0.3,0.1-0.4
	c0-0.2,0.1-0.5,0.1-0.7s0-0.3,0.1-0.5l0,0c0.1-0.5,0.1-0.9,0.1-1.2c0-0.4,0-0.9,0-1.2c0-0.1,0-0.2,0-0.3s0-0.2,0-0.3s0-0.1-0.1-0.2
	c-0.1-0.1-0.1-0.1-0.2-0.2c-0.1,0-0.1-0.1-0.2-0.1L140,2.2l-0.1-0.1c-0.2-0.1-0.4-0.2-0.7-0.2c-0.2,0-1-0.2-1.2-0.3
	c-0.1,0-0.2-0.1-0.3-0.1c-0.1-0.1-0.3-0.1-0.4-0.2c-0.1,0-0.2-0.1-0.3-0.1s-0.2-0.1-0.3-0.1S136.5,1,136.5,1
	c-0.2-0.1-0.3-0.2-0.5-0.2c-0.1,0-0.5-0.2-0.6-0.2s-0.2-0.1-0.3-0.1H135c-0.1-0.1-0.3-0.1-0.4-0.2C134.4,0,134.4,0,134.3,0"/>
<path class="st1" d="M133,20.5c-0.1,0.1-0.1,0.2-0.1,0.3c0,0.1,0,0.2,0,0.2c-0.1,0.5-0.2,1-0.4,1.6c-0.2,0.5-0.3,1.1-0.5,1.6
	c-0.3,1.1-0.7,2.3-1,3.4c-0.2,0.7-0.4,1.4-0.6,2c-0.2,0.8-0.4,1.5-0.6,2.3c-0.1,0.3,0.1,0.5,0.4,0.6c0.3,0.1,0.5-0.1,0.6-0.4
	c0.2-0.6,0.4-1.1,0.6-1.7c0.2-0.6,0.4-1.1,0.6-1.7c0.2-0.6,0.3-1.1,0.5-1.7s0.3-1.2,0.4-1.8c0.2-0.7,0.3-1.5,0.5-2.2
	c0.2-0.8,0.3-1.6,0.4-2.4c0-0.3-0.2-0.5-0.5-0.5C133.2,20.4,133.1,20.5,133,20.5"/>
<path class="st1" d="M133.3,21.4c-0.1,0-0.2,0.1-0.2,0.2c-0.2,0.5-0.4,0.9-0.5,1.4c-0.2,0.4-0.3,0.9-0.5,1.3
	c-0.3,0.9-0.7,1.8-0.9,2.7c-0.2,0.8-0.4,1.6-0.6,2.5c-0.1,0.4-0.2,0.8-0.2,1.1c-0.1,0.4-0.2,0.9-0.3,1.3c-0.1,0.2,0.1,0.4,0.3,0.5
	c0.2,0.1,0.4-0.1,0.5-0.3c0.3-0.9,0.6-1.9,0.8-2.8s0.5-1.8,0.7-2.8c0.2-0.8,0.5-1.6,0.7-2.3c0.1-0.4,0.2-0.8,0.4-1.1
	c0.1-0.4,0.2-0.7,0.4-1.1l0,0c0,0,0,0,0-0.1l0,0l0,0c0-0.1,0.1-0.2,0-0.3c0-0.1-0.1-0.2-0.2-0.2c-0.1,0-0.1-0.1-0.2-0.1
	C133.4,21.4,133.4,21.4,133.3,21.4 M133.8,21.9L133.8,21.9C133.8,22,133.8,22,133.8,21.9C133.8,22,133.8,22,133.8,21.9L133.8,21.9z"
	/>
<path class="st1" d="M132.9,21.8c-0.2,0.6-0.4,1.3-0.6,1.9c-0.2,0.6-0.4,1.1-0.6,1.7c-0.4,1.2-0.8,2.3-1.1,3.5
	c-0.2,0.9-0.4,1.7-0.6,2.6c-0.2,0.9-0.5,1.8-0.7,2.6c-0.1,0.3,0.1,0.5,0.3,0.6c0.1,0,0.3,0,0.4-0.1c0.1-0.1,0.2-0.2,0.2-0.3
	c0.2-0.6,0.5-1.2,0.7-1.9c0.2-0.6,0.4-1.1,0.6-1.7c0.3-1.2,0.6-2.4,1-3.6c0.2-0.8,0.5-1.7,0.8-2.5s0.5-1.7,0.7-2.6
	c0.1-0.3-0.1-0.6-0.4-0.7h-0.1C133.2,21.4,133,21.6,132.9,21.8"/>
<path class="st2" d="M124.3,40.6c-0.5,0.1-1,0.2-1.4,0.5c-0.2,0.1-0.4,0.3-0.5,0.4c-0.2,0.1-0.5,0.3-0.6,0.5
	c-0.2,0.3-0.4,0.5-0.6,0.8s-0.3,0.5-0.5,0.8c-0.1,0.2-0.2,0.5-0.3,0.7c-0.1,0.3-0.1,0.6-0.1,0.9c0,0.4,0,0.8,0,1.2
	c0.1,1,0.4,2,0.9,2.9c0.2,0.5,0.6,0.9,1,1.2s0.9,0.6,1.3,0.9c0.5,0.3,1.1,0.6,1.7,0.7c0.5,0.1,1.1,0.2,1.7,0.1
	c0.7,0,1.3-0.2,1.9-0.6c0.3-0.2,0.5-0.4,0.7-0.6c0.2-0.1,0.3-0.3,0.4-0.5c0.4-0.6,0.7-1.1,1-1.8c0.1-0.4,0.2-0.9,0.3-1.4
	c0-0.3,0.1-0.6,0.1-0.9c0-0.3-0.1-0.6-0.1-0.9c-0.1-0.5-0.3-1-0.6-1.5c-0.2-0.4-0.5-0.8-0.7-1.1c-0.3-0.4-0.7-0.8-1.1-1.1
	c-0.7-0.6-1.5-1-2.4-1.2c-0.3-0.1-0.6-0.1-0.9-0.1c-0.3-0.1-0.6-0.1-0.9-0.1C124.4,40.6,124.3,40.6,124.3,40.6 M125,43.5
	c0.2,0,0.4,0,0.7,0c0.2,0,0.5,0.1,0.7,0.2c0.3,0.1,0.6,0.3,0.9,0.4c0.2,0.1,0.3,0.3,0.5,0.4c0.2,0.3,0.4,0.6,0.6,0.9
	c0.1,0.3,0.2,0.6,0.3,0.9c0,0.1,0,0.2,0,0.3c-0.1,0.5-0.2,1-0.3,1.4c-0.1,0.2-0.2,0.4-0.3,0.6c-0.1,0.1-0.1,0.1-0.2,0.2
	c-0.1,0.1-0.2,0.2-0.3,0.2c-0.2,0.1-0.4,0.1-0.6,0.2c-0.3,0-0.5,0-0.8,0s-0.5-0.1-0.8-0.2c-0.5-0.2-1-0.4-1.5-0.7
	c-0.1-0.1-0.2-0.2-0.3-0.3c-0.1-0.2-0.3-0.4-0.4-0.6c-0.1-0.1-0.1-0.3-0.2-0.4l0,0c-0.1-0.6-0.2-1.2-0.2-1.9c0-0.1,0-0.3,0.1-0.4
	c0-0.1,0.1-0.2,0.1-0.3c0.2-0.2,0.3-0.4,0.5-0.6c0.2-0.1,0.3-0.2,0.5-0.3c0.1,0,0.1-0.1,0.2-0.1c-0.1,0-0.1,0.1-0.2,0.1
	c0.2-0.1,0.3-0.1,0.5-0.2C124.7,43.6,124.8,43.6,125,43.5"/>
<path class="st2" d="M125.2,41.9c-0.2,0-0.3,0.1-0.5,0.2c-0.3,0.2-0.6,0.4-0.9,0.7c-0.2,0.2-0.4,0.5-0.5,0.8c0,0.1-0.1,0.1-0.1,0.2
	c-0.1,0.2-0.2,0.3-0.3,0.5c-0.2,0.3-0.2,0.7-0.3,1c-0.1,0.4-0.2,0.8-0.2,1.2c0,0.3-0.1,0.7-0.1,1c0,0.4,0,0.7,0.1,1.1
	c0.1,0.7,0.5,1.3,1,1.8c0.2,0.2,0.5,0.4,0.8,0.5c0.3,0.2,0.6,0.3,1,0.3c0.4,0.1,0.8,0.1,1.2,0c0.4-0.1,0.8-0.3,1.1-0.5
	c0.5-0.4,0.9-1.1,1.1-1.8c0-0.2,0.1-0.4,0.1-0.6c0-0.2,0-0.3,0-0.5c0-0.1,0-0.1,0-0.2c0-0.1,0-0.2,0-0.3c0-0.4,0.1-0.7,0-1.1
	c0-0.7-0.2-1.3-0.4-1.9c-0.1-0.3-0.2-0.6-0.3-0.9c-0.1-0.2-0.2-0.3-0.2-0.4c-0.1-0.2-0.2-0.3-0.4-0.5c-0.2-0.2-0.4-0.4-0.7-0.5
	c-0.3-0.1-0.6-0.2-0.9-0.2l0,0C125.5,41.8,125.4,41.9,125.2,41.9"/>
<path d="M117.7,69.5c-0.1,0.1-0.1,0.3,0,0.4s0.3,0.3,0.4,0.4s0.3,0.2,0.5,0.2c0.2,0.1,0.3,0.1,0.5,0.2s0.3,0.2,0.5,0.2
	c0.2,0.1,0.3,0.2,0.5,0.2c0.2,0.1,0.3,0.1,0.5,0.2s0.3,0.1,0.5,0.2s0.4,0.2,0.6,0.2c0.1,0,0.3,0,0.4-0.2s0-0.4-0.1-0.4
	c-0.6-0.3-1.2-0.5-1.8-0.7c-0.3-0.1-0.6-0.2-0.9-0.4c-0.3-0.1-0.5-0.2-0.8-0.4c-0.1-0.1-0.2-0.2-0.3-0.3c-0.1-0.1-0.1-0.1-0.2-0.1
	C117.8,69.4,117.8,69.5,117.7,69.5"/>
<path d="M134.9,3.9c-0.1,0.1-0.1,0.3-0.2,0.5c0,0.1,0,0.3-0.1,0.4c0,0.3-0.1,0.6-0.1,0.9s-0.1,0.6-0.1,0.9c-0.1,0.3-0.1,0.6-0.2,0.9
	c-0.1,0.3-0.1,0.6-0.2,0.9c-0.1,0.3-0.1,0.6-0.2,1c-0.1,0.3-0.1,0.6-0.2,0.9c-0.1,0.3-0.1,0.7-0.2,1c-0.1,0.6-0.3,1.3-0.4,1.9
	c-0.1,0.3-0.1,0.7-0.2,1c-0.1,0.3-0.1,0.7-0.2,1c-0.2,0.7-0.4,1.3-0.5,2c-0.2,0.7-0.3,1.3-0.5,2s-0.3,1.3-0.5,1.9
	c-0.2,0.7-0.4,1.3-0.6,2c-0.2,0.7-0.4,1.3-0.6,2c-0.2,0.7-0.4,1.3-0.5,2c-0.2,0.7-0.4,1.3-0.6,2c-0.2,0.6-0.3,1.3-0.5,2
	c-0.1,0.3-0.2,0.6-0.3,1c-0.1,0.3-0.2,0.7-0.3,1c-0.2,0.7-0.4,1.4-0.5,2c-0.2,0.6-0.4,1.2-0.6,1.9c-0.1,0.3-0.2,0.7-0.3,1
	c-0.1,0.3-0.2,0.7-0.3,1c-0.2,0.6-0.4,1.3-0.6,1.9c-0.2,0.6-0.3,1.3-0.4,1.9c-0.1,0.7-0.3,1.3-0.5,2c-0.1,0.3-0.2,0.6-0.2,1
	c-0.1,0.3-0.2,0.7-0.2,1c-0.2,0.6-0.3,1.3-0.5,1.9c-0.1,0.3-0.1,0.6-0.2,0.9c-0.1,0.3-0.2,0.7-0.2,1c-0.2,0.7-0.4,1.3-0.5,1.9
	c-0.1,0.3-0.2,0.6-0.3,1c-0.1,0.3-0.1,0.7-0.2,1s-0.2,0.7-0.2,1c-0.1,0.3-0.2,0.7-0.3,1c-0.2,0.7-0.3,1.4-0.5,2s-0.4,1.3-0.6,1.9
	c-0.2,0.6-0.3,1.3-0.5,1.9c-0.2,0.6-0.4,1.3-0.6,1.9c-0.2,0.6-0.3,1.3-0.5,1.9c-0.1,0.3-0.1,0.6-0.2,0.9c0,0.2-0.1,0.3-0.1,0.5
	c-0.1,0.2-0.1,0.3-0.1,0.5s-0.1,0.3-0.1,0.5c0,0.1-0.1,0.3-0.1,0.4s0,0.3-0.1,0.5c0,0.1,0,0.3-0.1,0.4c0,0.1,0,0.1,0.1,0.2
	c0.1,0,0.1,0,0.2-0.1c0.1-0.3,0.1-0.6,0.2-0.9c0-0.1,0.1-0.3,0.1-0.4c0-0.2,0.1-0.3,0.1-0.5l0,0c0.1-0.3,0.2-0.6,0.3-0.9
	c0.1-0.3,0.2-0.6,0.3-0.9c0.2-0.6,0.3-1.3,0.5-1.9s0.4-1.3,0.6-1.9c0.2-0.6,0.3-1.2,0.5-1.8s0.4-1.3,0.6-1.9c0.1-0.3,0.2-0.7,0.3-1
	c0.1-0.4,0.2-0.7,0.3-1.1c0.1-0.3,0.2-0.7,0.3-1c0.1-0.4,0.2-0.7,0.3-1.1c0.1-0.3,0.1-0.7,0.2-1s0.2-0.6,0.2-0.9
	c0.2-0.6,0.4-1.3,0.5-2c0.2-0.7,0.3-1.3,0.5-2c0.1-0.6,0.3-1.3,0.5-1.9c0.2-0.7,0.3-1.3,0.5-1.9c0.2-0.6,0.3-1.3,0.5-1.9
	c0.2-0.6,0.3-1.3,0.5-1.9c0.2-0.6,0.4-1.3,0.6-1.9c0.1-0.3,0.2-0.7,0.3-1c0.1-0.3,0.2-0.7,0.3-1c0.2-0.6,0.4-1.3,0.6-1.9
	c0.2-0.7,0.3-1.4,0.5-2c0.1-0.3,0.2-0.7,0.3-1s0.2-0.6,0.2-0.9c0.2-0.7,0.3-1.3,0.5-2s0.4-1.3,0.6-2c0.2-0.7,0.3-1.4,0.5-2
	c0.2-0.7,0.4-1.3,0.6-2c0.2-0.7,0.4-1.3,0.6-2c0.2-0.7,0.4-1.3,0.5-2c0.2-0.7,0.3-1.3,0.5-2c0.2-0.6,0.4-1.3,0.5-1.9
	c0.1-0.3,0.2-0.7,0.2-1c0.1-0.3,0.1-0.7,0.2-1c0.1-0.6,0.3-1.3,0.4-1.9c0.1-0.3,0.1-0.7,0.2-1c0.1-0.3,0.1-0.6,0.2-0.9
	c0.1-0.6,0.3-1.2,0.4-1.8c0.1-0.3,0.1-0.6,0.2-0.9c0.1-0.3,0.1-0.6,0.1-0.9s0.1-0.6,0.1-0.8c0-0.1,0-0.3,0.1-0.4
	c0-0.2,0.1-0.3,0.1-0.5s-0.1-0.3-0.3-0.3c0,0,0,0-0.1,0C135,3.7,134.9,3.8,134.9,3.9"/>
<path d="M135,3.5c-0.2,0-0.3,0-0.5,0c-0.1,0-0.2,0.1-0.2,0.2c0,0.1,0.1,0.2,0.2,0.2c0.2,0,0.4,0,0.5,0c0.2,0,0.3,0,0.5,0
	s0.4,0.1,0.6,0.1c0.1,0,0.2,0.1,0.3,0.1s0.2,0.1,0.3,0.1c0.2,0.1,0.5,0.2,0.7,0.3c0.2,0.1,0.4,0.2,0.6,0.3l0,0l0,0h0.1
	c0.1,0,0.1,0,0.1-0.1c0.1-0.1,0.1-0.2,0-0.3c-0.1-0.1-0.2-0.1-0.4-0.2c-0.1-0.1-0.3-0.2-0.4-0.2c-0.1-0.1-0.3-0.1-0.5-0.2
	c-0.2-0.1-0.3-0.1-0.5-0.2c-0.3-0.1-0.6-0.2-0.9-0.2c-0.1,0-0.2,0-0.3,0C135.1,3.5,135.1,3.5,135,3.5 M135.5,3.9L135.5,3.9
	L135.5,3.9"/>
<path d="M136,3.9c0,0.1-0.1,0.1-0.1,0.2s0,0.1,0,0.2s0,0.3,0,0.4c0,0.3-0.1,0.7-0.1,1c0,0.2,0,0.4-0.1,0.6c0,0.2,0,0.4,0,0.6
	c0,0.3-0.1,0.6-0.1,1c0,0.3-0.1,0.6-0.1,0.9c0,0.2-0.1,0.3-0.1,0.5s-0.1,0.3-0.1,0.5c-0.1,0.3-0.2,0.6-0.3,0.9
	c-0.2,0.6-0.3,1.3-0.4,1.9c-0.1,0.6-0.3,1.3-0.5,1.9c-0.1,0.3-0.2,0.6-0.3,0.9c-0.1,0.3-0.2,0.6-0.2,1c-0.2,0.7-0.3,1.3-0.5,2
	c-0.1,0.3-0.1,0.6-0.2,0.9c-0.1,0.3-0.1,0.7-0.2,1c-0.1,0.7-0.3,1.3-0.4,1.9c-0.2,0.7-0.4,1.3-0.5,2c-0.2,0.7-0.3,1.3-0.5,2
	c-0.1,0.3-0.2,0.6-0.3,1c-0.1,0.3-0.2,0.7-0.2,1c-0.1,0.3-0.1,0.6-0.2,0.9c-0.1,0.3-0.2,0.6-0.2,0.9c-0.1,0.2-0.1,0.5-0.2,0.7
	c-0.1,0.2-0.2,0.5-0.2,0.7c-0.1,0.2-0.1,0.4-0.2,0.7c-0.1,0.3-0.2,0.5-0.2,0.8l0,0c0,0.1,0,0.1-0.1,0.2l0,0c-0.2,0.5-0.4,1-0.5,1.5
	c-0.2,0.4-0.3,0.9-0.5,1.3c-0.1,0.4-0.2,0.8-0.4,1.2c-0.1,0.4-0.3,0.9-0.4,1.3l0,0c-0.1,0.3-0.2,0.6-0.3,0.9
	c-0.1,0.3-0.2,0.6-0.3,0.8c-0.1,0.3-0.2,0.6-0.3,0.8c-0.1,0.2-0.1,0.3-0.2,0.5c0,0.1-0.1,0.3-0.1,0.4c-0.2,0.6-0.3,1.2-0.4,1.8
	s-0.3,1.3-0.4,1.9c-0.1,0.3-0.2,0.6-0.2,0.9c-0.1,0.3-0.1,0.7-0.2,1c0,0.3-0.1,0.7-0.2,1s-0.1,0.6-0.2,1c-0.1,0.3-0.2,0.6-0.2,1
	c-0.1,0.3-0.2,0.6-0.2,0.9c-0.1,0.3-0.1,0.6-0.2,0.9c-0.1,0.3-0.2,0.6-0.2,0.9c0,0.2-0.1,0.3-0.1,0.5s-0.1,0.3-0.2,0.5l0,0
	c-0.1,0.3-0.2,0.5-0.3,0.8c-0.1,0.3-0.2,0.6-0.2,0.9c-0.1,0.3-0.1,0.6-0.2,0.9c-0.1,0.3-0.2,0.6-0.3,1c-0.2,0.7-0.3,1.3-0.5,2
	c-0.1,0.3-0.1,0.6-0.2,0.9c-0.1,0.3-0.2,0.7-0.2,1c-0.1,0.3-0.2,0.6-0.3,1c-0.1,0.3-0.2,0.6-0.3,0.9c-0.1,0.3-0.2,0.6-0.3,1
	c-0.1,0.3-0.2,0.7-0.3,1c-0.1,0.3-0.2,0.6-0.3,0.9c-0.1,0.3-0.1,0.6-0.2,0.9s-0.1,0.6-0.2,0.9s-0.1,0.6-0.2,0.9s-0.2,0.5-0.2,0.8
	c-0.1,0.3-0.1,0.5-0.2,0.8c0,0.1,0,0.2,0.1,0.2s0.2,0,0.2-0.1c0-0.3,0.1-0.6,0.2-0.8c0.1-0.3,0.2-0.5,0.3-0.8
	c0.1-0.3,0.2-0.6,0.2-0.9c0.1-0.3,0.1-0.6,0.2-0.8c0.1-0.3,0.1-0.7,0.2-1s0.2-0.6,0.3-1c0.2-0.6,0.3-1.3,0.5-1.9
	c0.1-0.3,0.2-0.6,0.3-0.9c0.1-0.3,0.2-0.6,0.3-1c0.1-0.3,0.2-0.6,0.2-1c0.1-0.3,0.2-0.6,0.2-1c0.1-0.7,0.3-1.3,0.5-2
	c0.1-0.3,0.2-0.6,0.3-1c0.1-0.3,0.2-0.6,0.2-1c0-0.2,0.1-0.4,0.1-0.6c0-0.2,0.1-0.3,0.2-0.5l0,0c0.1-0.3,0.2-0.5,0.3-0.8
	c0.1-0.2,0.1-0.3,0.1-0.5c0-0.1,0.1-0.3,0.1-0.4c0.1-0.3,0.2-0.7,0.2-1c0.1-0.3,0.1-0.6,0.2-0.9c0.1-0.3,0.2-0.6,0.2-0.9
	c0.1-0.3,0.2-0.7,0.2-1c0.1-0.3,0.1-0.7,0.2-1s0.1-0.7,0.2-1c0-0.3,0.1-0.5,0.2-0.8c0.1-0.2,0.1-0.5,0.2-0.7c0.1-0.5,0.3-1,0.4-1.5
	c0.1-0.2,0.1-0.5,0.2-0.7c0.1-0.3,0.1-0.5,0.2-0.8c0.1-0.5,0.2-0.9,0.4-1.3c0.1-0.2,0.1-0.3,0.2-0.5s0.1-0.3,0.2-0.5
	c0.1-0.4,0.2-0.7,0.4-1.1c0,0,0,0,0,0.1c0.1-0.3,0.2-0.6,0.3-0.9c0.1-0.3,0.2-0.6,0.3-0.9c0.1-0.3,0.2-0.6,0.3-0.9
	c0.1-0.3,0.2-0.5,0.2-0.8c0.1-0.3,0.2-0.6,0.3-0.9c0.1-0.3,0.2-0.7,0.4-1c0.1-0.3,0.2-0.6,0.3-1c0.1-0.3,0.2-0.6,0.3-1
	c0.1-0.3,0.2-0.6,0.3-0.9s0.2-0.6,0.3-0.9c0.2-0.6,0.3-1.2,0.5-1.9c0.1-0.3,0.2-0.7,0.3-1s0.2-0.6,0.3-1c0.2-0.7,0.3-1.3,0.5-2
	s0.3-1.3,0.5-1.9c0.2-0.7,0.3-1.3,0.5-2c0.1-0.7,0.3-1.3,0.4-1.9c0.2-0.6,0.3-1.3,0.4-1.9c0.1-0.6,0.3-1.2,0.5-1.8s0.3-1.3,0.5-1.9
	c0.1-0.6,0.3-1.3,0.5-1.9c0.1-0.3,0.2-0.6,0.3-0.9c0-0.1,0.1-0.3,0.1-0.4c0-0.2,0.1-0.4,0.1-0.5c0.1-0.4,0.1-0.9,0.2-1.3
	c0-0.2,0.1-0.4,0.1-0.6s0-0.5,0-0.7c0-0.4,0-0.8,0.1-1.2c0-0.2,0-0.3,0-0.5c0-0.1,0-0.2,0-0.3c0-0.1,0-0.1,0-0.2s0-0.1-0.1-0.2
	c0,0,0,0-0.1,0C136.1,3.8,136,3.8,136,3.9 M135.7,6.9L135.7,6.9L135.7,6.9"/>
<path d="M137.2,4.2c0,0.1-0.1,0.1-0.1,0.2S137,4.6,137,4.7c0,0.2,0,0.4,0,0.6c0,0,0,0,0-0.1c0,0.3-0.1,0.6-0.1,0.9s-0.1,0.6-0.1,0.9
	s-0.1,0.6-0.1,0.8c0,0.3-0.1,0.6-0.2,1c-0.1,0.3-0.2,0.7-0.2,1c-0.1,0.3-0.1,0.6-0.2,0.9c-0.1,0.3-0.1,0.7-0.2,1
	c-0.1,0.4-0.2,0.7-0.3,1.1c-0.2,0.7-0.3,1.3-0.4,2c-0.1,0.7-0.3,1.3-0.5,2c-0.1,0.3-0.2,0.7-0.3,1s-0.2,0.7-0.2,1
	c-0.2,0.7-0.4,1.4-0.5,2.1c-0.1,0.3-0.2,0.7-0.3,1s-0.1,0.6-0.2,0.9c-0.1,0.3-0.2,0.6-0.2,0.9c-0.1,0.3-0.2,0.6-0.3,0.9
	s-0.2,0.6-0.3,0.9s-0.2,0.6-0.2,0.9c-0.1,0.3-0.2,0.6-0.3,0.9s-0.2,0.6-0.3,0.9c0,0,0,0,0-0.1c-0.1,0.3-0.2,0.6-0.3,0.9
	s-0.2,0.6-0.3,0.9s-0.2,0.6-0.3,0.9s-0.2,0.7-0.3,1c-0.2,0.7-0.4,1.3-0.6,2c-0.1,0.3-0.2,0.6-0.3,0.9c-0.1,0.3-0.2,0.7-0.3,1
	c-0.2,0.7-0.4,1.3-0.5,2c-0.2,0.7-0.4,1.3-0.5,2c-0.1,0.3-0.1,0.6-0.2,0.9c-0.1,0.3-0.1,0.7-0.2,1.1c-0.1,0.6-0.3,1.3-0.5,1.9
	c-0.1,0.3-0.2,0.7-0.3,1c-0.1,0.3-0.2,0.6-0.2,0.9c-0.1,0.3-0.1,0.6-0.2,0.9c-0.1,0.3-0.1,0.6-0.2,0.9c-0.1,0.3-0.2,0.6-0.3,0.9
	c-0.1,0.3-0.2,0.7-0.3,1c-0.2,0.6-0.3,1.3-0.5,1.9c-0.1,0.3-0.2,0.6-0.3,1c-0.1,0.3-0.1,0.6-0.2,0.9c-0.1,0.6-0.3,1.2-0.4,1.8
	c-0.1,0.3-0.2,0.6-0.3,1c-0.1,0.3-0.2,0.6-0.3,0.9c-0.1,0.3-0.1,0.7-0.2,1c-0.1,0.4-0.2,0.7-0.3,1.1c-0.1,0.3-0.2,0.6-0.3,0.9
	c-0.1,0.3-0.2,0.6-0.2,0.9c-0.2,0.7-0.3,1.3-0.5,2c-0.1,0.3-0.2,0.7-0.3,1c-0.1,0.3-0.2,0.6-0.2,1c-0.1,0.3-0.1,0.7-0.2,1
	c0,0.2-0.1,0.3-0.1,0.5s-0.1,0.3-0.2,0.5c-0.2,0.5-0.3,0.9-0.4,1.4c-0.1,0.2-0.1,0.5-0.2,0.7s-0.1,0.5-0.2,0.7l0,0
	c0,0.1-0.1,0.2-0.1,0.3c-0.1,0.1-0.1,0.2-0.2,0.3c0,0.1,0,0.2,0.1,0.2s0.2,0,0.2-0.1c0.1-0.1,0.2-0.3,0.2-0.4
	c0.1-0.1,0.1-0.3,0.2-0.5c0.1-0.3,0.2-0.7,0.2-1c0.1-0.3,0.2-0.6,0.3-1c0.1-0.3,0.2-0.6,0.3-0.9c0.1-0.3,0.2-0.7,0.3-1
	c0.1-0.3,0.1-0.7,0.2-1c0.2-0.7,0.4-1.4,0.5-2.1c0.2-0.6,0.3-1.3,0.5-1.9c0.1-0.3,0.2-0.6,0.3-1c0.1-0.3,0.2-0.6,0.3-0.9
	c0.1-0.4,0.2-0.7,0.3-1.1c0.1-0.3,0.1-0.7,0.2-1s0.2-0.6,0.3-0.9c0.1-0.3,0.2-0.6,0.3-1c0.1-0.3,0.2-0.6,0.2-0.9
	c0.1-0.3,0.1-0.6,0.2-0.9c0.1-0.3,0.1-0.6,0.2-0.9c0.1-0.3,0.2-0.6,0.3-0.9c0.1-0.3,0.2-0.6,0.3-1c0.1-0.3,0.2-0.7,0.3-1
	c0.1-0.3,0.2-0.7,0.3-1c0.1-0.3,0.2-0.6,0.3-0.9c0.2-0.6,0.3-1.2,0.4-1.9c0.1-0.6,0.3-1.2,0.5-1.9s0.4-1.3,0.5-2
	c0.1-0.3,0.1-0.7,0.2-1c0.1-0.3,0.1-0.6,0.2-0.9c0.2-0.7,0.3-1.3,0.5-2s0.4-1.3,0.6-2c0.1-0.3,0.2-0.7,0.3-1s0.2-0.6,0.3-0.9
	c0.1-0.3,0.2-0.7,0.3-1s0.2-0.7,0.3-1s0.2-0.7,0.3-1s0.2-0.6,0.3-0.9s0.2-0.6,0.3-0.9s0.2-0.6,0.3-0.9c0.2-0.6,0.4-1.2,0.5-1.9
	c0.2-0.6,0.4-1.3,0.6-1.9c0.2-0.6,0.3-1.3,0.5-2s0.4-1.3,0.5-2c0.2-0.7,0.3-1.4,0.5-2c0.2-0.7,0.4-1.3,0.6-2
	c0.2-0.6,0.3-1.3,0.4-1.9c0.1-0.3,0.2-0.7,0.2-1c0.1-0.3,0.2-0.7,0.3-1c0.2-0.7,0.3-1.3,0.4-2c0.1-0.7,0.3-1.3,0.4-2
	c0-0.2,0.1-0.4,0.1-0.6s0.1-0.3,0.1-0.5s0-0.3,0.1-0.5c0-0.2,0-0.4,0.1-0.6c0-0.2,0-0.4,0.1-0.5c0-0.2,0-0.4,0.1-0.5
	c0-0.1,0-0.3,0-0.4s0-0.1,0-0.1c0-0.1,0-0.1,0-0.2c0-0.1-0.1-0.2-0.1-0.2l0,0C137.3,4.1,137.2,4.2,137.2,4.2"/>
<path class="st3" d="M143.7,19.3c-0.1,0.1-0.2,0.2-0.2,0.2c-0.1,0.1-0.2,0.2-0.2,0.3c-0.1,0.2-0.2,0.3-0.3,0.5c0,0.2,0,0.4,0.2,0.6
	s0.4,0.3,0.7,0.4c0.2,0,0.4,0.1,0.6,0.1c0.2,0,0.4,0,0.6,0c0.4,0,0.9-0.1,1.3-0.3c0.2-0.1,0.3-0.2,0.5-0.4c0.2-0.1,0.3-0.3,0.3-0.5
	s0-0.4-0.1-0.6c-0.2-0.4-0.6-0.7-1.1-0.8c-0.1,0-0.2,0-0.3,0s-0.2,0-0.3,0s-0.3,0-0.4,0c-0.2,0.1-0.5,0.1-0.7,0.3
	C144,19.1,143.9,19.2,143.7,19.3L143.7,19.3 M143.9,20.3L143.9,20.3L143.9,20.3L143.9,20.3 M145.4,20.9L145.4,20.9L145.4,20.9
	L145.4,20.9z"/>
<path class="st3" d="M150.2,20.3c-0.1,0.1-0.2,0.2-0.3,0.3c-0.1,0.1-0.1,0.2-0.1,0.4c0,0.1,0,0.3,0.1,0.4s0.2,0.2,0.3,0.2
	c0.1,0.1,0.2,0.1,0.3,0.1s0.2,0,0.3,0.1c0.2,0,0.4,0,0.6,0c0.4-0.1,0.8-0.2,1.2-0.4c0.4-0.2,0.9-0.6,0.9-1.1c0-0.2,0-0.4-0.1-0.5
	s-0.2-0.2-0.3-0.4c-0.1-0.1-0.3-0.2-0.5-0.2c-0.3-0.1-0.6,0-0.9,0c-0.2,0-0.4,0.1-0.6,0.2c-0.2,0.1-0.4,0.2-0.6,0.4l0,0
	c0,0-0.1,0-0.1,0.1c-0.1,0.1-0.2,0.2-0.3,0.2C150.3,20.2,150.2,20.2,150.2,20.3"/>
<path class="st3" d="M146.9,12.4c-0.1,0.1-0.1,0.1-0.1,0.2c0,0,0,0.1-0.1,0.1c-0.1,0.2-0.1,0.4-0.1,0.6c0,0.2,0,0.4,0,0.5
	c0,0.4-0.1,0.8-0.1,1.2c-0.1,0.4-0.1,0.9-0.1,1.3c0,0.3,0,0.6,0,0.9s-0.1,0.6-0.1,1s0,0.7,0,1.1c0,0.1,0,0.3,0,0.4
	c0,0.2,0,0.3,0,0.5c0,0.1,0.1,0.2,0.2,0.3c0.1,0.1,0.2,0.1,0.3,0.1s0.2-0.1,0.3-0.2s0.1-0.2,0.1-0.3c0-0.2,0-0.4,0-0.6s0-0.4,0-0.5
	c0-0.4,0-0.7,0.1-1.1c0-0.4,0.1-0.8,0.1-1.3c0-0.4,0-0.8,0.1-1.2c0-0.4,0.1-0.8,0.1-1.3c0-0.2,0-0.3,0-0.5c0-0.1,0-0.2,0-0.3
	s0-0.2,0-0.3v-0.1c0.1,0,0.3,0,0.4,0c0.2,0,0.4,0,0.6,0c0.3,0,0.7-0.1,1-0.1c0.7,0,1.4-0.1,2.1-0.1c0.5,0,1,0,1.5,0.1h0.1l0,0l0,0
	v0.1c0,0.1,0,0.3,0.1,0.4c0,0.4,0,0.8,0,1.1c0,0.4-0.1,0.8-0.1,1.2c-0.1,0.4-0.1,0.8-0.2,1.2c0,0.4-0.1,0.8-0.1,1.2
	c-0.1,0.5-0.2,0.9-0.2,1.4c0,0.1,0,0.2,0.1,0.3c0.1,0.1,0.2,0.2,0.3,0.2c0.3,0,0.5-0.2,0.5-0.4c0.1-0.4,0.1-0.8,0.2-1.2
	c0.1-0.4,0.1-0.8,0.2-1.2c0-0.4,0.1-0.8,0.1-1.2c0.1-0.4,0.1-0.8,0.1-1.3c0-0.4,0-0.8,0-1.2c0-0.1,0-0.2,0-0.4s-0.1-0.4-0.1-0.6
	c0-0.1-0.1-0.2-0.2-0.3c-0.1-0.1-0.2-0.2-0.3-0.2s-0.2,0-0.4-0.1c-0.8-0.1-1.6,0-2.5,0c-0.4,0-0.9,0.1-1.3,0.1
	c-0.4,0-0.8,0.1-1.2,0.1c-0.2,0-0.4,0-0.6,0c-0.1,0-0.1,0-0.2,0c-0.1,0-0.1,0-0.2,0c-0.1,0-0.1,0-0.2,0
	C147,12.4,147,12.4,146.9,12.4C147,12.4,147,12.4,146.9,12.4 M147.2,19L147.2,19L147.2,19"/>
<path class="st3" d="M146.7,15c0,0.1,0,0.2,0.1,0.3s0.2,0.1,0.3,0.1c0.3,0,0.6,0,0.8,0c0.3,0,0.5,0.1,0.8,0.1
	c0.6,0.1,1.2,0.1,1.8,0.1c0.3,0,0.6,0,0.9-0.1c0.3,0,0.6-0.1,0.8-0.1s0.4,0,0.6-0.1c0.2,0,0.5-0.1,0.7-0.3c0.1-0.1,0.1-0.2,0.1-0.4
	c0-0.1,0-0.2-0.1-0.2c-0.1-0.1-0.1-0.1-0.2-0.2c-0.1-0.1-0.2,0-0.3,0h0.1c-0.3,0-0.5,0-0.8,0.1c-0.2,0-0.4,0-0.6,0.1
	c-0.2,0-0.4,0.1-0.6,0.1c-0.4,0.1-0.8,0.1-1.2,0.1s-0.8,0.1-1.2,0.1c-0.2,0-0.5,0-0.7,0c-0.3,0-0.5,0-0.8,0c-0.1,0-0.2,0-0.3,0.1
	l0,0C146.8,14.8,146.7,14.9,146.7,15 M150.6,15.6h-0.1C150.6,15.6,150.6,15.6,150.6,15.6 M150.5,15.6L150.5,15.6L150.5,15.6
	L150.5,15.6"/>
<path d="M158.2,12.8c-0.1,0.1-0.1,0.2-0.2,0.4c-0.1,0.1-0.1,0.3-0.2,0.4c-0.1,0.2-0.1,0.5-0.1,0.7c0,0.3,0.2,0.5,0.4,0.6
	c0.3,0.2,0.6,0.2,0.9,0.1c0.3,0,0.5-0.1,0.7-0.2c0.2-0.1,0.4-0.2,0.6-0.2c0.5-0.2,0.9-0.5,1.3-0.9c0.2-0.2,0.3-0.4,0.4-0.6
	c0.1-0.2,0.2-0.5,0.1-0.7c0-0.3-0.2-0.5-0.4-0.7c-0.4-0.4-1-0.5-1.5-0.5c-0.1,0-0.2,0-0.3,0s-0.3,0.1-0.4,0.1
	c-0.1,0.1-0.3,0.1-0.4,0.2c-0.3,0.2-0.5,0.3-0.7,0.6C158.5,12.3,158.4,12.5,158.2,12.8C158.3,12.7,158.3,12.7,158.2,12.8
	 M158.9,13.8L158.9,13.8L158.9,13.8L158.9,13.8 M160.7,13.9L160.7,13.9C160.7,13.9,160.8,13.9,160.7,13.9L160.7,13.9z"/>
<path d="M159.1,3.7L159.1,3.7 M159.1,3.7c0,0.1-0.1,0.1-0.1,0.2c0,0.1,0,0.1,0,0.2c0,0.2,0.1,0.5,0.1,0.7c0.1,0.2,0.1,0.4,0.2,0.6
	c0.1,0.5,0.2,0.9,0.3,1.4s0.2,1,0.4,1.5c0.1,0.3,0.2,0.7,0.3,1c0.1,0.4,0.2,0.7,0.3,1.1c0.1,0.4,0.3,0.8,0.4,1.2
	c0.1,0.2,0.2,0.3,0.2,0.5c0.1,0.2,0.1,0.3,0.2,0.5c0,0.1,0.2,0.2,0.3,0.3c0.1,0,0.3,0,0.4,0c0.1-0.1,0.2-0.2,0.3-0.3
	c0-0.1,0-0.3,0-0.4c-0.1-0.2-0.2-0.4-0.3-0.6c-0.1-0.2-0.2-0.4-0.3-0.6c-0.1-0.4-0.3-0.8-0.4-1.2c-0.1-0.5-0.3-1-0.4-1.4
	c-0.2-0.5-0.3-0.9-0.4-1.4c-0.1-0.5-0.2-1-0.4-1.4c-0.1-0.2-0.1-0.4-0.2-0.5c-0.1-0.1-0.1-0.2-0.2-0.3c0-0.1-0.1-0.2-0.1-0.3V4.4
	 M162,11L162,11L162,11"/>
<path d="M160.3,6.1c-0.1,0-0.2,0.1-0.3,0.2l0,0c-0.1,0.1-0.1,0.2,0,0.3 M159.9,6.7c0,0.1,0.1,0.2,0.2,0.3c0.1,0.1,0.2,0.1,0.4,0.1"
	/>
<g>
	<path d="M10.3,17.3V18H1.4v-0.7H10.3z M8.2,11.4H2.3v-0.7h6.3l0,0H9v1c0,1.3,0,2.7-0.4,4.8l-0.9-0.1c0.4-2,0.4-3.5,0.4-4.7
		L8.2,11.4L8.2,11.4z"/>
	<path d="M17,9.9h0.9V19H17v-4.8h-1.2c-0.1,1.9-0.9,3.1-2.1,3.1c-1.3,0-2.1-1.3-2.1-3.5c0-2.1,0.8-3.4,2.1-3.4c1.2,0,2,1.2,2.1,3H17
		V9.9z M14.9,13.9c0-1.6-0.5-2.6-1.3-2.6s-1.3,1-1.3,2.6s0.5,2.6,1.3,2.6S14.9,15.5,14.9,13.9z M19.8,9.6v9.9h-0.9V9.6H19.8z"/>
	<path d="M26.9,9.9h0.9V19h-0.9v-4.6h-2c-0.6,1.1-1.5,2.2-2.9,3l-0.5-0.6c2.1-1.3,3.2-3,3.3-5.1h-2.9V11h3.8c0,1-0.1,1.9-0.5,2.8
		h1.7V9.9z M29.8,9.6v9.9h-0.9V9.6H29.8z"/>
	<path d="M39.1,13.9c0,2.1-1,3.4-2.5,3.4s-2.5-1.3-2.5-3.4s1-3.4,2.5-3.4C38.1,10.4,39.1,11.7,39.1,13.9z M35,13.9
		c0,1.6,0.7,2.6,1.7,2.6s1.6-1,1.6-2.6s-0.7-2.6-1.6-2.6C35.7,11.2,35,12.3,35,13.9z M41.8,9.6v9.9h-0.9V9.6H41.8z"/>
	<path d="M51.1,10.7c0,2.8-1.2,5.3-4.4,6.9l-0.5-0.7c2.7-1.3,3.9-3.2,4-5.5h-3.6v-0.7H51.1z M54.2,9.7v9.9h-0.9v-5.2H51v-0.7h2.3v-4
		H54.2z"/>
	<path d="M57.6,16.4c1.6,0,3.1-0.1,4.8-0.4l0.1,0.7c-1.8,0.3-3.3,0.4-5,0.4h-0.8v-3.8h3.6v-2.1h-3.7v-0.7h4.6V14h-3.6
		C57.6,14,57.6,16.4,57.6,16.4z M64.2,9.6v9.9h-0.9V9.6H64.2z"/>
	<path d="M75.1,14.2v0.7h-8.9v-0.7H75.1z M68.1,18.7h6.2v0.6h-7.1v-2.2h5.9v-0.8h-5.9v-0.6H74v2.1h-5.9V18.7z M73.1,10.6h-5.8V9.9
		H74V12h-5.8v0.8h5.9v0.6h-6.8v-2.1h5.8C73.1,11.3,73.1,10.6,73.1,10.6z"/>
	<path d="M82.6,10.5h0.9v6.7h-4.6v-6.7h0.9v2.6h2.8C82.6,13.1,82.6,10.5,82.6,10.5z M82.6,13.8h-2.8v2.6h2.8V13.8z M87.7,14.3h-1.6
		v5.2h-0.9V9.7h0.9v3.9h1.6V14.3z"/>
	<path d="M92.1,12.8c0,1.7,1.1,3.3,2.6,3.9l-0.5,0.7c-1.1-0.5-2.1-1.6-2.5-2.9c-0.4,1.4-1.4,2.5-2.5,3l-0.5-0.7
		c1.5-0.7,2.6-2.4,2.6-4.1v-0.8H89v-0.7h2.3V9.8h0.9v1.5h2.2V12h-2.3V12.8z M96.6,9.6v9.9h-0.9V9.6H96.6z"/>
	<path d="M99.8,16.3c1.7,0,3-0.1,4.4-0.3l0.1,0.7c-1.5,0.3-2.8,0.4-4.7,0.4h-0.8v-6.5h4.6v0.7h-3.7L99.8,16.3L99.8,16.3z
		 M107.7,14.3h-1.6v5.2h-0.9V9.6h0.9v3.9h1.6V14.3z"/>
	<path d="M108.8,18.1c0-0.5,0.3-0.8,0.7-0.8c0.4,0,0.7,0.3,0.7,0.8s-0.3,0.8-0.7,0.8C109.1,18.8,108.8,18.5,108.8,18.1z"/>
</g>
</svg>
